<svg width="796" height="796" viewBox="0 0 796 796" fill="none" xmlns="http://www.w3.org/2000/svg">
<rect width="796" height="796" fill="#0A2540"/>
<path fill-rule="evenodd" clip-rule="evenodd" d="M218.643 605.256L218.594 605.234C203.917 598.458 194.026 585.395 187.19 572.08C180.197 558.461 175.06 541.975 171.195 524.464C163.449 489.369 160.021 446.407 159.054 405.082C158.082 363.571 159.577 322.733 162.013 291.461C163.229 275.856 164.701 262.348 166.275 252.181C167.054 247.152 167.921 242.525 168.9 238.711C169.382 236.831 170.005 234.699 170.827 232.625C171.357 231.285 173.053 227.01 176.813 223.291L177.299 222.811L177.813 222.362C180.921 219.65 185.157 217.062 188.572 215.077C192.466 212.815 197.184 210.271 202.332 207.613C212.655 202.281 225.344 196.154 237.959 190.344C250.57 184.536 263.333 178.94 273.811 174.694C279.029 172.58 283.881 170.718 287.962 169.319C291.175 168.218 296.351 166.509 300.968 166.135L301.261 166.112L301.555 166.096C304.655 165.929 312.085 166.372 320.033 166.89C328.972 167.473 341.072 168.349 355.294 169.452C383.749 171.657 420.881 174.781 458.546 178.308C496.18 181.832 534.503 185.774 565.279 189.619C580.645 191.538 594.335 193.459 605.202 195.32C615.08 197.011 625.237 199.047 631.604 201.803L631.838 201.905L632.071 202.012C641.911 206.549 646.123 215.767 647.795 219.87C649.972 225.215 651.455 231.389 652.556 237.524C654.787 249.961 656.101 266.094 656.812 284.043C658.242 320.171 657.328 366.715 655.192 412.657C653.051 458.676 649.659 504.611 646.042 539.674C644.239 557.153 642.349 572.239 640.481 583.386C639.56 588.887 638.562 593.93 637.461 597.992C636.925 599.97 636.203 602.328 635.213 604.61C634.717 605.754 633.96 607.335 632.859 609.014C631.916 610.451 629.864 613.303 626.324 615.712C622.289 618.46 617.975 619.444 616.756 619.723L616.637 619.75C614.559 620.229 612.326 620.584 610.205 620.865C605.901 621.435 600.452 621.905 594.269 622.302C585.109 622.892 573.615 623.367 560.456 623.725C554.044 632.723 543.595 638.677 531.873 638.78C448.794 640.665 367.195 637.498 286.486 628.59L286.21 628.56L285.935 628.522C276.339 627.216 267.867 622.199 262.219 614.843C255.05 613.956 248.455 612.985 242.598 611.92C233.981 610.354 225.289 608.305 218.643 605.256ZM276.867 594.504C277.395 600.884 282.289 605.969 288.884 606.867C368.613 615.667 449.304 618.801 531.565 616.926C538.877 616.926 545.228 610.645 545.228 603.104V602.213C583.75 601.48 610.81 599.881 614.024 597.647C625.778 589.798 650.869 234.744 622.921 221.859C594.647 209.617 314.159 187.303 302.731 187.919C290.977 188.87 202.988 229.399 192.182 238.829C181.376 249.517 161.051 554.599 227.754 585.392C235.769 589.068 253.374 592.082 276.867 594.504Z" fill="white"/>
<mask id="mask0_10848_116" style="mask-type:alpha" maskUnits="userSpaceOnUse" x="120" y="97" width="601" height="601">
<circle cx="420.5" cy="397.5" r="300.5" fill="#D9D9D9"/>
</mask>
<g mask="url(#mask0_10848_116)">
<path d="M276.819 569.799V593.359C276.819 600.27 281.897 605.922 288.884 606.873C368.613 615.673 449.304 618.807 531.565 616.932C538.877 616.932 545.228 610.65 545.228 603.11V579.55C545.228 572.318 539.514 566.036 531.89 566.036L291.104 556.299C283.169 555.991 276.805 562.273 276.805 569.813L276.819 569.799Z" fill="#1E5390"/>
<path d="M227.755 585.392C271.587 605.496 602.272 605.818 614.025 597.647C625.779 589.799 650.87 234.744 622.922 221.859C594.648 209.618 314.16 187.304 302.732 187.919C290.978 188.871 202.989 229.4 192.183 238.829C181.377 249.518 161.052 554.6 227.755 585.392Z" fill="#78ADDC"/>
<path d="M622.922 221.859C592.598 209.548 314.161 187.304 302.732 187.919C297.966 188.227 279.805 195.6 260.272 204.232C268.843 251.043 273.652 308.066 273.652 369.329C273.652 457.928 263.384 537.49 247.5 590.596C333.707 605.86 603.389 605.02 614.492 597.452C625.935 589.603 651.196 234.436 622.922 221.873V221.859Z" fill="#5799CB"/>
<path d="M622.923 221.892C601.636 212.462 434.922 197.647 350.737 191.043C324.684 193.24 295.732 196.444 289.692 201.788C278.886 211.217 253.795 554.325 320.823 585.117C344.005 595.805 446.93 600.828 540.322 601.765C581.297 601.135 610.886 600.52 614.069 598.323C626.459 590.475 651.182 234.469 622.909 221.892H622.923Z" fill="#ABC7E7"/>
<path d="M632.879 426.381C637.956 330.549 637.857 228.463 622.921 221.86C614.025 217.774 592.144 213.955 535.781 208.135C536.728 257.464 524.282 312.459 497.281 364.629C448.682 458.572 366.096 519.527 288.587 526.76C295.574 556.923 305.744 578.607 320.666 585.518C336.224 591.366 374.2 595.493 425.02 598.319" fill="#CBD7ED"/>
<path d="M228.86 488.733C245.691 488.733 259.679 454.793 259.679 413.004C259.679 371.216 245.705 337.276 228.86 337.276C212.014 337.276 198.04 371.216 198.04 413.004C198.04 454.793 212.014 488.733 228.86 488.733Z" fill="#1E5390"/>
<path d="M604.015 255.916C586.858 248.067 449.634 232.356 380.074 225.431C358.476 226.368 334.644 228.579 329.255 232.972C320.047 240.512 295.578 526.75 352.126 552.52C371.503 561.32 457.583 565.713 535.091 566.664C568.768 566.356 592.897 564.775 595.443 562.887C604.976 556.913 626.885 266.282 604.015 255.916V255.916Z" fill="#081C34"/>
<path d="M584.308 270.364C568.75 263.131 445.499 249.001 382.601 242.72C363.224 243.657 341.627 245.546 337.171 249.631C329.236 256.542 306.988 515.443 357.821 538.694C374.978 546.543 452.487 550.628 522.372 551.258C552.555 550.95 574.153 549.369 576.684 548.11C584.619 542.766 604.633 280.101 584.308 270.35V270.364Z" fill="#0F294B"/>
<path d="M423.904 532.724C456.619 444.432 522.374 380.959 593.221 359.289C593.857 312.478 592.273 273.823 584.324 270.689C574.48 265.975 518.894 258.434 464.257 251.831C464.893 288.904 458.854 327.867 444.568 366.508C421.698 427.77 383.254 477.421 338.149 508.843C342.916 524.232 349.592 534.92 358.474 539.006C367.045 543.091 389.916 545.917 419.463 548.113C420.099 542.769 421.683 537.746 423.904 532.724V532.724Z" fill="#14355C"/>
<path d="M389.591 306.808C380.694 306.808 373.071 314.656 372.759 325.037L367.356 459.831C367.045 469.89 374.032 478.061 382.915 478.061C391.797 478.061 399.435 470.212 399.746 459.831L405.149 325.037C405.46 314.978 398.473 306.808 389.591 306.808V306.808Z" fill="#2F70B5"/>
<path d="M550.322 319.065C541.425 319.065 533.802 326.914 533.49 337.295L528.087 472.089C527.776 482.148 534.763 490.318 543.646 490.318C552.528 490.318 560.166 482.47 560.477 472.089L565.88 337.295C565.88 327.557 559.204 319.065 550.322 319.065V319.065Z" fill="#2F70B5"/>
<path d="M558.268 318.432C549.06 318.432 541.437 326.91 541.111 336.969L535.708 474.589C535.397 484.648 542.384 493.126 551.592 493.126C560.8 493.126 568.423 484.648 568.748 474.589L574.151 336.969C574.463 326.602 567.475 318.432 558.268 318.432V318.432Z" fill="white"/>
<path d="M397.85 300.848C388.642 300.848 381.019 309.648 380.693 320.322L375.29 465.484C374.979 476.48 381.966 484.958 391.174 484.958C400.382 484.958 408.005 476.158 408.331 465.484L413.734 320.322C414.045 309.956 407.058 300.848 397.85 300.848Z" fill="white"/>
<path d="M289.846 569.489C287.937 561.011 283.17 555.037 279.677 555.667C275.858 556.297 274.599 564.145 276.819 572.315C278.729 580.793 283.495 586.767 286.989 586.138C290.171 585.508 291.755 577.66 289.846 569.489Z" fill="#1E5390"/>
<path d="M230.136 468.003C242.526 468.003 252.37 443.185 252.37 413.33C252.37 383.475 242.526 358.657 230.136 358.657C217.746 358.657 207.901 383.475 207.901 413.33C207.901 443.185 217.746 468.003 230.136 468.003Z" fill="#3980B1"/>
<path d="M209.171 358.657H230.132L233.937 361.175V465.807L230.132 468.003H210.43L209.171 358.657Z" fill="#3980B1"/>
<path d="M210.122 468.003C222.512 468.003 232.356 443.185 232.356 413.33C232.356 383.475 222.512 358.657 210.122 358.657C197.732 358.657 187.888 383.475 187.888 413.33C187.888 443.185 197.732 468.003 210.122 468.003Z" fill="#649ECD"/>
<path opacity="0.85" d="M189.163 431.873L223.15 368.722C223.15 368.722 223.787 369.351 226.007 375.003C228.865 382.236 228.553 382.852 228.553 382.852L191.383 444.128L189.799 438.155C188.851 432.503 189.163 431.873 189.163 431.873V431.873Z" fill="#CBD7ED"/>
<path opacity="0.5" d="M232.359 402.959L198.046 458.57C198.046 458.57 197.098 456.681 196.462 455.744C195.825 454.806 195.514 453.855 195.514 453.855L230.45 397.615L231.722 395.726L232.034 399.503L232.345 402.959H232.359Z" fill="#CBD7ED"/>
<path opacity="0.5" d="M243.796 303.356C243.796 303.356 245.706 300.209 246.653 286.386C247.601 267.849 246.653 261.568 246.653 261.568L217.107 307.749L243.796 303.356Z" fill="#CBD7ED"/>
<path opacity="0.5" d="M243.47 230.768L202.17 251.823C202.17 251.823 199.624 254.02 197.403 271.927C194.857 289.834 196.455 306.175 196.455 306.175L243.47 230.768Z" fill="#CBD7ED"/>
</g>
</svg>
