<svg width="377" height="327" viewBox="0 0 377 327" fill="none" xmlns="http://www.w3.org/2000/svg">
<path d="M354.289 132.601H360.435C364.466 132.601 367.482 136.83 367.369 142.298L366.496 183.681C366.355 189.713 362.493 194.844 358.039 194.844H351.893C347.862 194.844 344.846 190.615 344.959 185.147L345.833 143.764C345.973 137.732 349.835 132.601 354.289 132.601Z" fill="white"/>
<path fill-rule="evenodd" clip-rule="evenodd" d="M84.135 271.223L83.2851 267.715C67.4957 202.549 60.6016 134.617 62.2585 64.0952L62.3659 59.5248L66.8599 58.6855C143.093 44.4481 221.708 44.2179 302.778 58.6772L307.092 59.4466L307.411 63.8168C312.271 130.343 310.535 197.368 302.018 264.834L301.523 268.754L297.67 269.627C228.314 285.334 158.272 285.804 87.6764 271.919L84.135 271.223ZM102.193 252.463C162.615 263.113 222.419 262.72 281.66 250.772C288.314 192.817 289.855 135.22 286.412 78.0069C216.915 66.912 149.474 67.0289 83.9412 77.806C83.4607 138.183 89.4884 196.426 102.193 252.463Z" fill="white"/>
<path fill-rule="evenodd" clip-rule="evenodd" d="M46.8225 312.086L45.6732 307.183C24.3216 216.108 14.9989 121.167 17.2395 22.6063L17.3847 16.2188L23.4618 15.0458C126.549 -4.85218 232.859 -5.17384 342.487 15.0343L348.321 16.1096L348.753 22.2174C355.324 115.194 352.977 208.867 341.46 303.157L340.791 308.635L335.58 309.855C241.792 331.808 147.076 332.465 51.6114 313.059L46.8225 312.086ZM65.6035 291.506C147.311 306.389 239.458 305.841 319.568 289.142C328.566 208.145 330.65 116.372 325.994 36.4113C232.016 20.9052 129.54 21.0686 40.9224 36.1306C40.2727 120.514 48.4238 213.189 65.6035 291.506Z" fill="white"/>
<path d="M130.485 98.6982C125.036 99.1754 120.943 104.007 121.231 109.644L125.872 204.309C126.132 209.857 130.572 214.241 135.963 214.241H136.482C142.276 214.241 146.889 209.2 146.572 203.205L141.383 108.54C141.065 102.665 136.107 98.221 130.456 98.6982H130.485Z" fill="white"/>
<path d="M247.116 98.6982C241.982 99.1754 237.739 104.007 237.523 109.644L233.983 204.309C233.767 209.857 237.577 214.241 242.603 214.241H243.089C248.521 214.241 253.277 209.2 253.466 203.206L256.52 108.54C256.709 102.665 252.439 98.221 247.089 98.6982H247.116Z" fill="white"/>
<path d="M30.0424 209.31H21.2655C12.5264 209.31 5.28214 202.544 4.66136 193.834L0.0385512 127.757C-0.609757 118.116 7.00132 109.941 16.642 109.941H20.8044C22.3584 143.555 25.4285 176.681 30.0424 209.31Z" fill="white"/>
<path d="M346.474 210.009L355.24 209.56C363.967 209.113 370.856 201.986 371.03 193.255L372.267 127.028C372.421 117.367 364.402 109.592 354.774 110.085L350.617 110.298C350.784 143.947 349.413 177.187 346.474 210.009Z" fill="white"/>
</svg>
