<svg width="625" height="125" viewBox="0 0 625 125" fill="none" xmlns="http://www.w3.org/2000/svg">
<path d="M168.656 80.7814V48.6713H155.184V34.4059H168.656V17.9211L185.906 14.0725V34.4059H204.538V48.6585H185.906V77.3049C185.906 80.3581 186.571 82.5133 187.926 83.7577C189.268 85.002 191.613 85.6178 194.975 85.6178C196.564 85.6178 198.076 85.5152 199.509 85.3099C200.929 85.1047 202.492 84.707 204.173 84.1297V98.0103C202.323 98.5876 200.095 99.0622 197.502 99.4343C194.896 99.8063 192.668 99.9987 190.831 99.9987C183.522 99.9987 178.011 98.3695 174.271 95.0982C170.519 91.8397 168.656 87.0675 168.656 80.7814Z" fill="white"/>
<path d="M213.099 99.0106V34.4056H230.349V41.4742C232.447 38.6647 234.987 36.5352 237.971 35.0855C240.955 33.6359 244.251 32.9175 247.86 32.9175C249.541 32.9945 250.948 33.1484 252.082 33.3537C253.215 33.5589 254.205 33.9181 255.039 34.4056V49.2868C253.775 48.7095 252.394 48.2734 250.883 47.9783C249.372 47.6832 247.821 47.5421 246.219 47.5421C242.857 47.5421 239.769 48.376 236.968 50.0181C234.154 51.673 231.952 54.0719 230.362 57.2149V98.9978H213.099V99.0106Z" fill="white"/>
<path d="M272.915 26.7216C270.231 26.7216 267.925 25.7722 265.983 23.8736C264.055 21.975 263.091 19.7043 263.091 17.0488C263.091 14.4061 264.055 12.1354 265.983 10.2239C267.912 8.3253 270.218 7.37598 272.915 7.37598C275.599 7.37598 277.905 8.3253 279.846 10.2239C281.774 12.1226 282.739 14.3932 282.739 17.0488C282.739 19.6915 281.774 21.9621 279.846 23.8736C277.905 25.7722 275.599 26.7216 272.915 26.7216ZM281.605 34.4059V98.9981H264.355V34.4059H281.605Z" fill="white"/>
<path d="M311.832 34.406V71.9811C311.832 76.1119 313.07 79.4217 315.546 81.8976C318.021 84.3736 321.318 85.6179 325.435 85.6179C328.366 85.6179 330.998 85.0663 333.304 83.9502C335.611 82.8341 337.526 81.2434 339.037 79.178V34.406H356.288V98.9982H339.037V93.7898C336.523 95.8552 333.708 97.4459 330.607 98.562C327.506 99.6781 324.145 100.23 320.536 100.23C312.979 100.23 306.764 97.818 301.904 92.9816C297.031 88.1452 294.595 81.9746 294.595 74.4442V34.406H311.832Z" fill="white"/>
<path d="M369.746 99.0108V34.4058H386.997V39.2422C389.342 37.2537 391.948 35.7528 394.801 34.7136C397.655 33.6745 400.756 33.1614 404.117 33.1614C408.312 33.1614 412.117 34.0081 415.518 35.7014C418.918 37.3948 421.706 39.7681 423.895 42.8342C426.501 39.6912 429.641 37.2922 433.341 35.6373C437.029 33.9824 441.107 33.1614 445.563 33.1614C452.872 33.1614 458.865 35.5603 463.569 40.3582C468.272 45.1562 470.618 51.3139 470.618 58.8315V98.998H453.367V61.3202C453.367 57.2664 452.26 54.0079 450.032 51.5192C447.804 49.0432 444.807 47.7989 441.029 47.7989C438.423 47.7989 436.051 48.3633 433.915 49.4794C431.778 50.5955 429.954 52.1863 428.442 54.2517C428.521 54.9957 428.612 55.7398 428.69 56.4838C428.768 57.2279 428.82 58.0105 428.82 58.8443V99.0108H411.57V61.3202C411.57 57.2664 410.449 54.0079 408.234 51.5192C406.006 49.0432 403.01 47.7989 399.231 47.7989C396.625 47.7989 394.319 48.2992 392.3 49.287C390.28 50.2748 388.521 51.7244 387.01 53.6231V98.998H369.746V99.0108Z" fill="white"/>
<path d="M483.842 124.925V34.4061H500.845V39.7429C503.451 37.6775 506.344 36.1252 509.536 35.0989C512.728 34.0726 516.037 33.5466 519.49 33.5466C524.102 33.5466 528.454 34.419 532.519 36.1508C536.584 37.8827 540.141 40.2432 543.164 43.2194C546.187 46.1957 548.558 49.7107 550.278 53.7646C551.998 57.8184 552.858 62.1545 552.858 66.7856C552.858 71.4168 551.972 75.7528 550.213 79.8067C548.454 83.8605 546.056 87.3756 543.034 90.339C540.011 93.3153 536.428 95.6501 532.272 97.3434C528.115 99.0368 523.685 99.8835 518.982 99.8835C515.79 99.8835 512.663 99.4473 509.601 98.5878C506.539 97.7155 503.699 96.4583 501.106 94.8034V124.938H483.842V124.925ZM516.702 48.0558C513.601 48.0558 510.695 48.569 508.011 49.6081C505.327 50.6472 503.021 52.1482 501.08 54.1366V79.5501C502.93 81.3718 505.21 82.8214 507.946 83.8862C510.669 84.9638 513.588 85.5026 516.702 85.5026C522.07 85.5026 526.604 83.7066 530.304 80.1146C533.991 76.5226 535.841 72.071 535.841 66.7856C535.841 61.5002 533.978 57.0487 530.239 53.4567C526.513 49.8518 521.992 48.0558 516.702 48.0558Z" fill="white"/>
<path d="M563.424 99.0106V12.212L580.675 8.4917V39.4857C583.189 37.4203 585.991 35.8552 589.052 34.7776C592.114 33.7 595.45 33.1612 599.059 33.1612C606.616 33.1612 612.831 35.5601 617.69 40.358C622.563 45.1559 625 51.3137 625 58.8313V98.9977H607.749V61.32C607.749 57.2662 606.511 54.0077 604.036 51.519C601.56 49.043 598.264 47.7986 594.147 47.7986C591.293 47.7986 588.714 48.3631 586.408 49.4792C584.101 50.5953 582.186 52.186 580.675 54.2514V99.0106H563.424Z" fill="white"/>
<rect width="120.12" height="120.12" fill="white"/>
<path d="M120.12 120.12V51.8088L61.7869 120.12H120.12Z" fill="#4BA9DF"/>
<path d="M97.6059 0H0V114.364L97.6059 0Z" fill="#4BA9DF"/>
</svg>
