<svg width="900" height="185" viewBox="0 0 900 185" fill="none" xmlns="http://www.w3.org/2000/svg">
<path d="M248.786 80.3218H230.16V117.753H211.203V17.936H253.11C278.055 17.936 289.863 28.4169 289.863 48.214C289.863 63.8518 281.88 74.1662 267.911 78.3254L295.683 115.923V117.753H273.565L248.786 80.3218ZM230.16 33.9068V64.3509H251.447C264.418 64.3509 271.237 59.36 271.237 48.7131C271.237 38.0658 266.082 33.9068 251.78 33.9068H230.16Z" fill="#4FACE1"/>
<path d="M290.36 78.4923C290.36 52.7061 305.826 37.5671 330.106 37.5671C354.386 37.5671 369.519 52.7061 369.519 78.4923C369.519 104.278 354.885 119.916 330.106 119.916C305.327 119.916 290.36 104.112 290.36 78.4923ZM308.321 78.3258C308.321 94.4627 314.972 104.444 329.94 104.444C344.907 104.444 351.725 94.4627 351.725 78.3258C351.725 62.1888 344.408 52.7061 329.94 52.7061C315.471 52.7061 308.321 62.1888 308.321 78.3258Z" fill="#4FACE1"/>
<path d="M411.592 53.3713C398.787 53.3713 390.805 61.5232 390.805 78.6584C390.805 94.4627 398.122 104.112 412.093 104.112C424.73 104.112 429.054 96.293 431.384 86.8103L447.847 90.803C444.686 108.936 433.71 119.916 412.258 119.916C387.645 119.916 372.512 105.609 372.512 79.3239C372.512 53.0387 387.978 37.5671 411.925 37.5671C434.375 37.5671 444.518 48.2143 447.678 66.8467L430.882 70.0078C428.556 60.026 423.9 53.3713 411.592 53.3713Z" fill="#4FACE1"/>
<path d="M474.115 71.6714H481.266L505.878 39.5635H526.336V41.3935L495.403 77.9931L528.497 115.923V117.753H508.044L481.266 84.9803H474.115V117.753H456.156V10.9492H474.115V71.6714Z" fill="#4FACE1"/>
<path d="M533.322 67.6787C533.322 35.4046 551.951 15.7739 581.885 15.7739C607.66 15.7739 623.293 29.9147 626.786 53.8707L608.659 57.3644C605.663 41.2274 597.349 32.4101 581.552 32.4101C561.263 32.4101 552.284 47.2165 552.284 67.6787C552.284 89.6386 561.263 103.447 581.384 103.447C598.179 103.447 605.832 94.463 609.156 77.827L627.115 81.1541C623.79 105.276 607.825 119.917 581.384 119.917C550.784 119.917 533.322 99.953 533.322 67.6787Z" fill="white"/>
<path d="M653.207 117.753H635.244V10.9492H653.207V117.753Z" fill="white"/>
<path d="M661.196 78.4923C661.196 52.7061 676.66 37.5671 700.94 37.5671C725.219 37.5671 740.355 52.7061 740.355 78.4923C740.355 104.278 725.721 119.916 700.94 119.916C676.163 119.916 661.196 104.112 661.196 78.4923ZM679.155 78.3258C679.155 94.4627 685.808 104.444 700.775 104.444C715.742 104.444 722.56 94.4627 722.56 78.3258C722.56 62.1888 715.241 52.7061 700.775 52.7061C686.305 52.7061 679.155 62.1888 679.155 78.3258Z" fill="white"/>
<path d="M800.383 97.1246H798.719C794.396 111.598 784.418 119.916 771.448 119.916C754.981 119.916 747.168 108.77 747.168 91.8011V39.5635H765.127V87.1428C765.127 96.6255 769.286 103.613 779.926 103.613C792.066 103.613 799.882 95.6274 799.882 83.8157V39.5635H817.845V117.753H800.383V97.1246Z" fill="white"/>
<path d="M882.206 97.1246H881.038C877.048 110.6 867.736 119.916 853.767 119.916C835.804 119.916 825.329 105.443 825.329 78.9913C825.329 52.5396 835.973 37.4008 854.264 37.5671C868.401 37.4008 877.048 46.3844 881.038 60.0259H882.206V10.9492H899.996V117.753H882.206V97.1246ZM882.206 82.1519V76.1632C882.206 62.6878 874.389 53.7042 862.249 53.7042C849.275 53.7042 842.959 61.8558 842.959 78.9913C842.959 96.1264 848.943 103.945 862.249 103.945C874.221 103.945 882.206 95.4612 882.206 82.1519Z" fill="white"/>
<path d="M55.7629 85.8948C70.7518 85.8948 82.9031 73.739 82.9031 58.7446C82.9031 43.7497 70.7518 31.5942 55.7629 31.5942C40.7737 31.5942 28.6226 43.7497 28.6226 58.7446C28.6226 73.739 40.7737 85.8948 55.7629 85.8948Z" fill="url(#paint0_linear_10985_462)"/>
<path d="M33.127 52.772H99.7968V119.05H33.127C14.834 119.034 0 104.195 0 85.8948C0 67.6114 14.834 52.772 33.127 52.772Z" fill="url(#paint1_linear_10985_462)"/>
<path d="M161.912 65.2827H90.8852C76.0521 65.2827 64.0278 77.3118 64.0278 92.1505V92.1669C64.0278 107.006 76.0521 119.034 90.8852 119.034H161.912C176.745 119.034 188.769 107.006 188.769 92.1669V92.1505C188.769 77.3118 176.745 65.2827 161.912 65.2827Z" fill="url(#paint2_linear_10985_462)"/>
<path d="M162.607 60.8407C162.607 92.9818 136.564 119.051 104.418 119.051C75.3324 119.051 14.1338 119.051 36.4014 119.051C45.099 119.051 46.2295 119.051 46.2295 60.8407C46.2464 28.6829 72.2888 2.63062 104.435 2.63062C136.58 2.63062 162.623 28.6829 162.623 60.8407H162.607Z" fill="url(#paint3_linear_10985_462)"/>
<path d="M694.714 162.528V148.1H688.66V141.69H694.714V134.284L702.46 132.554V141.69H710.827V148.095H702.46V160.966C702.46 162.338 702.76 163.306 703.368 163.865C703.968 164.424 705.025 164.701 706.533 164.701C707.248 164.701 707.926 164.655 708.571 164.563C709.208 164.471 709.911 164.292 710.663 164.033V170.27C709.833 170.529 708.834 170.742 707.667 170.909C706.5 171.077 705.497 171.163 704.671 171.163C701.388 171.163 698.914 170.431 697.233 168.961C695.548 167.497 694.714 165.353 694.714 162.528Z" fill="#B8B8B8"/>
<path d="M714.674 170.719V141.69H722.425V144.866C723.366 143.604 724.508 142.647 725.848 141.995C727.188 141.344 728.667 141.021 730.29 141.021C731.043 141.056 731.675 141.125 732.185 141.218C732.695 141.31 733.138 141.471 733.512 141.69V148.377C732.945 148.117 732.325 147.921 731.647 147.789C730.969 147.656 730.27 147.593 729.551 147.593C728.043 147.593 726.653 147.967 725.396 148.705C724.13 149.449 723.144 150.527 722.429 151.939V170.713H714.674V170.719Z" fill="#B8B8B8"/>
<path d="M741.546 138.238C740.338 138.238 739.303 137.811 738.431 136.958C737.568 136.105 737.133 135.084 737.133 133.891C737.133 132.704 737.568 131.684 738.431 130.825C739.299 129.971 740.334 129.545 741.546 129.545C742.751 129.545 743.786 129.971 744.657 130.825C745.525 131.678 745.96 132.698 745.96 133.891C745.96 135.079 745.525 136.099 744.657 136.958C743.786 137.811 742.751 138.238 741.546 138.238ZM745.451 141.69V170.713H737.7V141.69H745.451Z" fill="#B8B8B8"/>
<path d="M759.025 141.69V158.573C759.025 160.429 759.584 161.917 760.693 163.029C761.807 164.142 763.286 164.701 765.136 164.701C766.455 164.701 767.634 164.453 768.67 163.951C769.706 163.45 770.569 162.735 771.247 161.807V141.69H778.993V170.713H771.247V168.372C770.116 169.301 768.851 170.015 767.458 170.517C766.069 171.018 764.556 171.266 762.937 171.266C759.542 171.266 756.752 170.182 754.566 168.009C752.379 165.836 751.282 163.064 751.282 159.68V141.69H759.025Z" fill="#B8B8B8"/>
<path d="M785.034 170.719V141.69H792.785V143.863C793.837 142.97 795.008 142.295 796.29 141.829C797.573 141.361 798.966 141.131 800.474 141.131C802.356 141.131 804.066 141.511 805.594 142.272C807.123 143.033 808.373 144.099 809.359 145.477C810.526 144.065 811.94 142.987 813.6 142.243C815.256 141.5 817.089 141.131 819.09 141.131C822.374 141.131 825.066 142.209 827.178 144.365C829.29 146.521 830.342 149.287 830.342 152.665V170.713H822.596V153.783C822.596 151.962 822.099 150.498 821.096 149.379C820.097 148.267 818.749 147.708 817.052 147.708C815.881 147.708 814.816 147.961 813.859 148.463C812.897 148.965 812.079 149.679 811.401 150.607C811.434 150.942 811.475 151.276 811.512 151.61C811.545 151.944 811.57 152.296 811.57 152.671V170.719H803.819V153.783C803.819 151.962 803.318 150.498 802.323 149.379C801.32 148.267 799.977 147.708 798.279 147.708C797.108 147.708 796.073 147.933 795.164 148.376C794.26 148.82 793.467 149.471 792.789 150.325V170.713H785.034V170.719Z" fill="#B8B8B8"/>
<path d="M836.285 182.363V141.691H843.921V144.089C845.092 143.16 846.39 142.463 847.825 142.002C849.259 141.541 850.747 141.304 852.296 141.304C854.367 141.304 856.323 141.696 858.148 142.475C859.973 143.252 861.571 144.313 862.931 145.65C864.288 146.988 865.352 148.567 866.125 150.389C866.897 152.21 867.284 154.158 867.284 156.239C867.284 158.32 866.885 160.268 866.096 162.09C865.307 163.912 864.23 165.491 862.87 166.822C861.514 168.16 859.903 169.209 858.037 169.97C856.171 170.731 854.182 171.111 852.07 171.111C850.636 171.111 849.23 170.915 847.853 170.529C846.481 170.137 845.203 169.572 844.04 168.828V182.368H836.285V182.363ZM851.042 147.824C849.653 147.824 848.347 148.054 847.142 148.521C845.934 148.988 844.899 149.663 844.027 150.556V161.975C844.858 162.793 845.881 163.445 847.114 163.923C848.334 164.407 849.645 164.649 851.042 164.649C853.455 164.649 855.493 163.843 857.153 162.229C858.81 160.614 859.64 158.614 859.64 156.239C859.64 153.864 858.805 151.864 857.125 150.25C855.452 148.631 853.422 147.824 851.042 147.824Z" fill="#B8B8B8"/>
<path d="M872.026 170.718V131.717L879.777 130.046V143.972C880.907 143.044 882.164 142.341 883.537 141.857C884.914 141.372 886.414 141.131 888.033 141.131C891.427 141.131 894.218 142.208 896.4 144.364C898.59 146.52 899.684 149.287 899.684 152.665V170.712H891.937V153.783C891.937 151.961 891.382 150.497 890.269 149.379C889.155 148.267 887.675 147.707 885.826 147.707C884.544 147.707 883.385 147.961 882.349 148.462C881.314 148.964 880.455 149.679 879.777 150.607V170.718H872.026Z" fill="#B8B8B8"/>
<path d="M638.84 163.33V139.296L643.541 138.506V146.85C644.963 145.751 646.631 145.201 648.555 145.201C650.248 145.201 651.781 145.613 653.153 146.437C654.526 147.239 655.611 148.337 656.412 149.734C657.238 151.13 657.649 152.686 657.649 154.403C657.649 156.12 657.238 157.676 656.412 159.073C655.59 160.446 654.481 161.545 653.084 162.369C651.711 163.17 650.153 163.571 648.415 163.571C647.523 163.571 646.656 163.445 645.81 163.193C644.963 162.941 644.182 162.575 643.475 162.094V163.33H638.84ZM647.799 159.588C648.781 159.588 649.664 159.359 650.441 158.901C651.242 158.443 651.871 157.825 652.327 157.047C652.788 156.269 653.014 155.388 653.014 154.403C653.014 153.419 652.788 152.538 652.327 151.76C651.871 150.981 651.242 150.363 650.441 149.905C649.664 149.447 648.781 149.218 647.799 149.218C646.927 149.218 646.13 149.367 645.395 149.665C644.688 149.963 644.067 150.386 643.541 150.935V157.905C644.047 158.409 644.663 158.821 645.395 159.141C646.151 159.439 646.952 159.588 647.799 159.588Z" fill="#B8B8B8"/>
<path d="M661.775 170.712C661.36 170.712 660.962 170.69 660.571 170.644C660.205 170.621 659.897 170.586 659.647 170.541V166.489C660.103 166.581 660.653 166.627 661.294 166.627C663.008 166.627 664.2 165.814 664.862 164.189L665.137 163.502L658.171 145.442H663.386L667.816 157.631L672.859 145.442H677.975L669.703 164.738C669.086 166.18 668.408 167.336 667.677 168.206C666.945 169.099 666.099 169.74 665.137 170.128C664.2 170.518 663.078 170.712 661.775 170.712Z" fill="#B8B8B8"/>
<defs>
<linearGradient id="paint0_linear_10985_462" x1="44.9699" y1="93.3811" x2="69.9151" y2="13.4328" gradientUnits="userSpaceOnUse">
<stop stop-color="white"/>
<stop offset="0.52" stop-color="#D7D7D7"/>
<stop offset="1" stop-color="#A7A7A7"/>
</linearGradient>
<linearGradient id="paint1_linear_10985_462" x1="94.941" y1="62.022" x2="-1.00485" y2="129.847" gradientUnits="userSpaceOnUse">
<stop stop-color="white"/>
<stop offset="0.52" stop-color="#E1E1E1"/>
<stop offset="1" stop-color="#9B9B9B"/>
</linearGradient>
<linearGradient id="paint2_linear_10985_462" x1="230.245" y1="123.859" x2="113.329" y2="88.1984" gradientUnits="userSpaceOnUse">
<stop stop-color="white"/>
<stop offset="0.57" stop-color="#E4E4E4"/>
<stop offset="0.93" stop-color="#ABABAB"/>
</linearGradient>
<linearGradient id="paint3_linear_10985_462" x1="175.112" y1="12.0301" x2="33.8898" y2="109.453" gradientUnits="userSpaceOnUse">
<stop stop-color="#E9E9E9"/>
<stop offset="0.52" stop-color="#EDEDED"/>
<stop offset="1" stop-color="#C7C7C7"/>
</linearGradient>
</defs>
</svg>
