<svg width="865" height="189" viewBox="0 0 865 189" fill="none" xmlns="http://www.w3.org/2000/svg">
<path d="M239.103 74.6397H221.203V110.601H202.982V14.7043H243.259C267.233 14.7043 278.581 24.7735 278.581 43.793C278.581 58.8167 270.909 68.7261 257.483 72.7217L284.175 108.843V110.601H262.918L239.103 74.6397ZM221.203 30.0478V59.2962H241.66C254.127 59.2962 260.68 54.5014 260.68 44.2724C260.68 34.0435 255.725 30.0478 241.98 30.0478H221.203Z" fill="#4BA9DF"/>
<path d="M279.061 72.8815C279.061 48.1083 293.925 33.564 317.26 33.564C340.595 33.564 355.139 48.1083 355.139 72.8815C355.139 97.6548 341.074 112.679 317.26 112.679C293.446 112.679 279.061 97.495 279.061 72.8815ZM296.323 72.7217C296.323 88.225 302.716 97.8146 317.1 97.8146C331.485 97.8146 338.038 88.225 338.038 72.7217C338.038 57.2184 331.005 48.1083 317.1 48.1083C303.195 48.1083 296.323 57.2184 296.323 72.7217Z" fill="#4BA9DF"/>
<path d="M395.575 48.7476C383.268 48.7476 375.596 56.5791 375.596 73.0414C375.596 88.225 382.629 97.495 396.054 97.495C408.201 97.495 412.357 89.9831 414.594 80.8729L430.417 84.7088C427.38 102.13 416.832 112.679 396.214 112.679C372.56 112.679 358.015 98.9334 358.015 73.6807C358.015 48.4279 372.879 33.564 395.894 33.564C417.471 33.564 427.221 43.7929 430.257 61.6936L414.115 64.7303C411.877 55.1407 407.402 48.7476 395.575 48.7476Z" fill="#4BA9DF"/>
<path d="M455.667 66.3283H462.54L486.194 35.4815H505.853V37.2396L476.125 72.4017L507.931 108.842V110.6H488.272L462.54 79.1145H455.667V110.6H438.406V7.99121H455.667V66.3283Z" fill="#4BA9DF"/>
<path d="M512.567 62.4924C512.567 31.4859 530.468 12.6262 559.237 12.6262C584.01 12.6262 599.034 26.2116 602.39 49.2267L584.969 52.5831C582.092 37.0798 574.101 28.609 558.917 28.609C539.418 28.609 530.788 42.8336 530.788 62.4924C530.788 83.5896 539.418 96.8553 558.758 96.8553C574.9 96.8553 582.252 88.2246 585.449 72.2419L602.71 75.4384C599.514 98.6134 584.17 112.678 558.758 112.678C529.349 112.678 512.567 93.4989 512.567 62.4924Z" fill="#13456A"/>
<path d="M627.787 110.6H610.525V7.99121H627.787V110.6Z" fill="#13456A"/>
<path d="M635.459 72.8815C635.459 48.1083 650.323 33.564 673.658 33.564C696.993 33.564 711.537 48.1083 711.537 72.8815C711.537 97.6548 697.473 112.679 673.658 112.679C649.844 112.679 635.459 97.495 635.459 72.8815ZM652.721 72.7217C652.721 88.225 659.114 97.8146 673.498 97.8146C687.883 97.8146 694.436 88.225 694.436 72.7217C694.436 57.2184 687.403 48.1083 673.498 48.1083C659.593 48.1083 652.721 57.2184 652.721 72.7217Z" fill="#13456A"/>
<path d="M769.234 90.7823H767.635C763.48 104.687 753.89 112.679 741.424 112.679C725.601 112.679 718.089 101.97 718.089 85.6678V35.4819H735.35V81.1926C735.35 90.3028 739.346 97.0155 749.575 97.0155C761.242 97.0155 768.754 89.3438 768.754 77.9961V35.4819H786.016V110.601H769.234V90.7823Z" fill="#13456A"/>
<path d="M847.868 90.7819H846.75C842.914 103.728 833.963 112.678 820.538 112.678C803.277 112.678 793.207 98.7733 793.207 73.3607C793.207 47.9481 803.436 33.4038 821.017 33.5636C834.603 33.4038 842.914 42.0345 846.75 55.1403H847.868V7.99121H864.97V110.601H847.868V90.7819ZM847.868 76.3974V70.6436C847.868 57.6976 840.356 49.0669 828.689 49.0669C816.223 49.0669 810.149 56.8984 810.149 73.3607C810.149 89.8229 815.903 97.3348 828.689 97.3348C840.197 97.3348 847.868 89.1836 847.868 76.3974Z" fill="#13456A"/>
<path d="M53.5907 79.9936C67.9964 79.9936 79.6745 68.3155 79.6745 53.9098C79.6745 39.5041 67.9964 27.8259 53.5907 27.8259C39.185 27.8259 27.5068 39.5041 27.5068 53.9098C27.5068 68.3155 39.185 79.9936 53.5907 79.9936Z" fill="url(#paint0_linear_10985_487)"/>
<path d="M31.8376 48.1716H95.9125V111.847H31.8376C14.2566 111.831 0 97.5743 0 79.9933C0 62.4282 14.2566 48.1716 31.8376 48.1716Z" fill="url(#paint1_linear_10985_487)"/>
<path d="M155.608 60.1907H87.3456C73.0899 60.1907 61.5334 71.7472 61.5334 86.0028V86.0188C61.5334 100.274 73.0899 111.831 87.3456 111.831H155.608C169.864 111.831 181.42 100.274 181.42 86.0188V86.0028C181.42 71.7472 169.864 60.1907 155.608 60.1907Z" fill="url(#paint2_linear_10985_487)"/>
<path d="M156.28 55.9237C156.28 86.8023 131.251 111.847 100.356 111.847C72.4021 111.847 13.5855 111.847 34.9865 111.847C43.3454 111.847 44.4323 111.847 44.4323 55.9237C44.4482 25.029 69.4772 0 100.372 0C131.267 0 156.296 25.029 156.296 55.9237H156.28Z" fill="url(#paint3_linear_10985_487)"/>
<path d="M667.673 153.617V139.756H661.857V133.598H667.673V126.482L675.12 124.821V133.598H683.162V139.751H675.12V152.117C675.12 153.435 675.406 154.365 675.991 154.902C676.571 155.439 677.583 155.705 679.034 155.705C679.72 155.705 680.373 155.661 680.991 155.572C681.604 155.484 682.279 155.312 683.005 155.063V161.055C682.206 161.304 681.244 161.509 680.125 161.669C679 161.83 678.039 161.913 677.246 161.913C674.09 161.913 671.711 161.21 670.097 159.797C668.477 158.391 667.673 156.331 667.673 153.617Z" fill="#B8B8B8"/>
<path d="M686.859 161.486V133.597H694.306V136.649C695.211 135.436 696.308 134.517 697.596 133.891C698.884 133.265 700.307 132.955 701.865 132.955C702.59 132.988 703.198 133.055 703.687 133.143C704.177 133.232 704.604 133.387 704.964 133.597V140.021C704.418 139.772 703.822 139.584 703.17 139.456C702.517 139.329 701.848 139.268 701.156 139.268C699.705 139.268 698.372 139.628 697.163 140.337C695.948 141.051 694.998 142.087 694.311 143.444V161.48H686.859V161.486Z" fill="#B8B8B8"/>
<path d="M712.68 130.281C711.521 130.281 710.526 129.871 709.688 129.052C708.855 128.232 708.439 127.252 708.439 126.106C708.439 124.965 708.855 123.985 709.688 123.16C710.52 122.34 711.515 121.93 712.68 121.93C713.838 121.93 714.834 122.34 715.672 123.16C716.504 123.979 716.92 124.959 716.92 126.106C716.92 127.246 716.504 128.227 715.672 129.052C714.834 129.871 713.838 130.281 712.68 130.281ZM716.431 133.598V161.481H708.985V133.598H716.431Z" fill="#B8B8B8"/>
<path d="M729.481 133.598V149.818C729.481 151.601 730.015 153.03 731.083 154.099C732.152 155.167 733.575 155.705 735.352 155.705C736.618 155.705 737.754 155.466 738.749 154.985C739.745 154.503 740.572 153.816 741.224 152.925V133.598H748.671V161.48H741.224V159.232C740.139 160.124 738.924 160.81 737.585 161.292C736.247 161.774 734.795 162.012 733.238 162.012C729.975 162.012 727.293 160.971 725.195 158.883C723.091 156.795 722.04 154.132 722.04 150.881V133.598H729.481Z" fill="#B8B8B8"/>
<path d="M754.481 161.487V133.598H761.928V135.686C762.94 134.828 764.065 134.18 765.297 133.731C766.528 133.283 767.867 133.061 769.318 133.061C771.129 133.061 772.771 133.427 774.239 134.158C775.707 134.889 776.911 135.913 777.856 137.237C778.981 135.88 780.336 134.844 781.933 134.13C783.525 133.415 785.285 133.061 787.209 133.061C790.364 133.061 792.951 134.097 794.982 136.168C797.012 138.239 798.025 140.897 798.025 144.142V161.481H790.578V145.216C790.578 143.467 790.1 142.06 789.138 140.986C788.176 139.917 786.883 139.38 785.252 139.38C784.127 139.38 783.103 139.623 782.181 140.105C781.258 140.587 780.471 141.274 779.819 142.165C779.852 142.486 779.892 142.808 779.925 143.129C779.959 143.45 779.982 143.788 779.982 144.148V161.487H772.535V145.216C772.535 143.467 772.051 142.06 771.095 140.986C770.134 139.917 768.84 139.38 767.209 139.38C766.084 139.38 765.089 139.596 764.217 140.022C763.345 140.448 762.586 141.074 761.933 141.894V161.481H754.481V161.487Z" fill="#B8B8B8"/>
<path d="M803.732 172.672V133.598H811.072V135.902C812.197 135.01 813.445 134.34 814.823 133.897C816.201 133.454 817.63 133.227 819.12 133.227C821.111 133.227 822.99 133.603 824.745 134.351C826.499 135.099 828.035 136.118 829.34 137.402C830.645 138.687 831.668 140.204 832.411 141.954C833.153 143.704 833.524 145.576 833.524 147.575C833.524 149.574 833.142 151.446 832.382 153.196C831.623 154.946 830.588 156.463 829.283 157.743C827.979 159.027 826.432 160.035 824.638 160.766C822.844 161.497 820.931 161.863 818.901 161.863C817.523 161.863 816.173 161.674 814.851 161.303C813.53 160.927 812.304 160.384 811.184 159.67V172.678H803.732V172.672ZM817.917 139.49C816.578 139.49 815.324 139.712 814.165 140.16C813.007 140.609 812.011 141.257 811.173 142.115V153.085C811.972 153.872 812.956 154.497 814.137 154.957C815.313 155.422 816.572 155.655 817.917 155.655C820.234 155.655 822.191 154.88 823.788 153.329C825.38 151.778 826.179 149.857 826.179 147.575C826.179 145.294 825.375 143.372 823.76 141.821C822.152 140.265 820.2 139.49 817.917 139.49Z" fill="#B8B8B8"/>
<path d="M838.085 161.486V124.018L845.532 122.412V135.791C846.617 134.899 847.827 134.224 849.148 133.759C850.47 133.293 851.91 133.061 853.468 133.061C856.73 133.061 859.413 134.096 861.51 136.167C863.614 138.239 864.666 140.897 864.666 144.142V161.481H857.219V145.216C857.219 143.466 856.685 142.06 855.616 140.985C854.548 139.917 853.125 139.379 851.347 139.379C850.116 139.379 849.002 139.623 848.007 140.105C847.011 140.587 846.184 141.273 845.532 142.165V161.486H838.085Z" fill="#B8B8B8"/>
<path d="M613.343 135.093V120.197L616.258 119.707V124.878C617.138 124.198 618.174 123.857 619.365 123.857C620.415 123.857 621.366 124.112 622.217 124.623C623.068 125.12 623.742 125.801 624.238 126.666C624.749 127.531 625.004 128.496 625.004 129.56C625.004 130.624 624.749 131.589 624.238 132.454C623.728 133.305 623.04 133.986 622.174 134.497C621.323 134.993 620.358 135.242 619.28 135.242C618.727 135.242 618.188 135.164 617.663 135.008C617.138 134.852 616.656 134.625 616.216 134.327V135.093H613.343ZM618.897 132.773C619.507 132.773 620.053 132.631 620.536 132.348C621.032 132.064 621.422 131.681 621.706 131.199C621.99 130.716 622.132 130.17 622.132 129.56C622.132 128.95 621.99 128.404 621.706 127.921C621.422 127.439 621.032 127.056 620.536 126.772C620.053 126.489 619.507 126.347 618.897 126.347C618.358 126.347 617.861 126.439 617.408 126.623C616.968 126.808 616.585 127.07 616.258 127.411V131.731C616.571 132.043 616.954 132.298 617.408 132.497C617.876 132.681 618.372 132.773 618.897 132.773ZM627.562 139.668C627.307 139.668 627.058 139.654 626.817 139.625C626.59 139.611 626.399 139.59 626.243 139.562V137.051C626.526 137.107 626.867 137.136 627.264 137.136C628.328 137.136 629.066 136.632 629.477 135.625L629.647 135.199L625.328 124.006H628.562L631.307 131.56L634.435 124.006H637.606L632.478 135.965C632.095 136.859 631.676 137.575 631.222 138.115C630.768 138.668 630.243 139.065 629.647 139.306C629.066 139.547 628.371 139.668 627.562 139.668Z" fill="#B8B8B8"/>
<defs>
<linearGradient id="paint0_linear_10985_487" x1="43.2179" y1="87.1859" x2="67.176" y2="10.3728" gradientUnits="userSpaceOnUse">
<stop stop-color="white"/>
<stop offset="0.52" stop-color="#D7D7D7"/>
<stop offset="1" stop-color="#A7A7A7"/>
</linearGradient>
<linearGradient id="paint1_linear_10985_487" x1="91.2455" y1="57.058" x2="-0.942983" y2="122.252" gradientUnits="userSpaceOnUse">
<stop stop-color="white"/>
<stop offset="0.52" stop-color="#E1E1E1"/>
<stop offset="1" stop-color="#9B9B9B"/>
</linearGradient>
<linearGradient id="paint2_linear_10985_487" x1="221.281" y1="116.466" x2="108.922" y2="82.1829" gradientUnits="userSpaceOnUse">
<stop stop-color="white"/>
<stop offset="0.57" stop-color="#E4E4E4"/>
<stop offset="0.93" stop-color="#ABABAB"/>
</linearGradient>
<linearGradient id="paint3_linear_10985_487" x1="168.299" y1="9.03025" x2="32.605" y2="102.673" gradientUnits="userSpaceOnUse">
<stop stop-color="white"/>
<stop offset="0.52" stop-color="#EDEDED"/>
<stop offset="1" stop-color="#C7C7C7"/>
</linearGradient>
</defs>
</svg>
