<svg width="611" height="789" viewBox="0 0 611 789" fill="none" xmlns="http://www.w3.org/2000/svg">
<path d="M340.495 466.131C339.493 475.87 346.536 483.933 357.288 483.26C424.788 479.221 471.802 489.976 492.288 495.691C499.002 497.71 506.733 494.015 510.083 487.957C514.12 481.24 511.758 473.506 505.044 470.828C485.23 462.765 438.889 448.315 360.967 448.988C350.559 448.988 341.826 456.378 340.48 466.116L340.495 466.131Z" fill="#0F294B"/>
<path d="M460.736 457.739C436.228 452.698 403.644 448.674 361.326 449.347C351.247 449.347 342.185 457.081 340.839 466.475C339.837 476.214 346.881 484.277 357.632 483.604C375.771 482.601 392.892 482.601 408.01 483.275C408.683 470.514 431.188 460.088 460.736 457.739Z" fill="#091B2A"/>
<path d="M153.442 552.147L199.783 576.666C187.686 607.243 163.506 764.809 163.506 764.809L144.365 755.4C144.365 755.011 140.328 630.041 153.427 552.132L153.442 552.147Z" fill="#0F294B"/>
<path d="M183.035 649.084C188.957 620.287 195.237 589.591 199.828 576.516L153.487 551.998C146.429 594.662 144.201 651.851 143.857 694.515C155.281 672.002 168.934 654.798 183.035 649.084Z" fill="#091B2A"/>
<path d="M355.613 552.147L308.256 576.666C320.682 607.243 345.191 764.809 345.191 764.809L364.675 755.4C365.004 755.071 369.042 630.085 355.613 552.132V552.147Z" fill="#0F294B"/>
<path d="M364.017 638.493C362.342 608.589 359.98 577.354 355.957 551.818L308.6 576.337C315.658 593.809 326.394 651.597 334.454 698.629C340.166 669.399 350.574 646.885 364.002 638.493H364.017Z" fill="#091B2A"/>
<path d="M133.958 415.404C132.956 418.426 138.997 608.589 138.997 608.589L266.281 645.538L368.713 601.184L363.673 424.469L133.958 415.404Z" fill="#78ADDC"/>
<path d="M352.249 535.677C352.249 493.342 349.901 454.373 346.208 424.14L301.541 422.121C297.504 452.698 294.827 492.34 294.827 535.677C294.827 570.951 296.502 603.548 299.194 631.088L349.572 609.247C351.591 587.077 352.264 562.215 352.264 535.677H352.249Z" fill="#ABC7E7"/>
<path d="M235.208 610.264C201.996 610.264 169.711 607.931 138.862 604.236L138.952 608.589L266.281 645.538L368.713 601.184L368.623 598.162C328.039 605.896 282.835 610.264 235.208 610.264Z" fill="#3980B1"/>
<path d="M306.925 469.826C328.413 469.826 348.57 479.236 365.692 495.362L363.673 424.814L133.958 415.404C132.956 418.426 138.997 608.589 138.997 608.589L196.762 625.388C200.785 538.041 248.815 469.841 306.91 469.841L306.925 469.826Z" fill="#3980B1"/>
<path d="M134.974 471.846C136.649 528.96 138.862 608.604 138.862 608.604L171.117 617.909C171.446 611.192 171.252 604.206 171.252 597.145C170.923 531.294 155.132 477.201 134.974 471.831V471.846Z" fill="#649ECD"/>
<path d="M101.718 408.343V433.535C101.718 440.925 107.086 446.968 114.473 447.986C198.766 457.395 284.076 460.746 371.045 458.741C378.776 458.741 385.49 452.025 385.49 443.961V418.77C385.49 411.036 379.449 404.319 371.389 404.319L116.821 393.908C108.432 393.578 101.703 400.295 101.703 408.358L101.718 408.343Z" fill="#1E5390"/>
<path d="M49.8442 425.023C96.1851 446.519 445.798 446.864 458.224 438.127C470.651 429.735 497.178 50.0822 467.63 36.3047C437.738 23.2153 141.195 -0.644841 129.113 0.0133697C116.686 1.0306 23.6606 44.3678 12.2361 54.4504C0.811641 65.8793 -20.6765 392.097 49.8442 425.023Z" fill="#78ADDC"/>
<path d="M467.63 36.3047C435.57 23.1405 141.195 -0.644831 129.113 0.01338C124.073 0.342485 104.873 8.22605 84.2222 17.456C93.2841 67.5099 98.3683 128.484 98.3683 193.991C98.3683 288.728 87.512 373.802 70.7192 430.588C161.861 446.908 446.979 446.011 458.718 437.918C470.815 429.526 497.522 49.7532 467.63 36.3197V36.3047Z" fill="#5799CB"/>
<path d="M446.964 788.998H327.067C327.067 788.998 327.067 752.049 356.615 742.295C389.199 731.884 443.929 774.548 446.949 788.998H446.964Z" fill="#649ECD"/>
<path d="M91.6541 788.998H195.431C195.431 788.998 194.429 752.049 168.56 742.295C140.343 731.884 94.0018 774.548 91.6541 788.998Z" fill="#649ECD"/>
<path d="M190.048 502.078C192.067 482.931 181.988 464.785 167.543 461.419C153.098 458.053 139.999 469.811 138.324 488.974C136.305 508.122 146.384 526.268 160.829 529.634C175.274 532.999 188.373 520.568 190.048 502.078Z" fill="#0F294B"/>
<path d="M143.363 486.296C139.326 494.689 143.692 504.771 152.769 508.466C269.975 555.169 411.031 540.045 450.658 534.331C456.699 533.658 461.409 528.616 462.082 522.229C462.411 514.839 456.041 508.795 447.637 509.468C400.279 513.507 251.851 521.57 168.889 477.889C159.154 473.192 147.73 477.216 143.363 486.281V486.296Z" fill="#0F294B"/>
<path d="M240.082 512.505C240.082 509.139 242.43 505.788 246.797 502.767C219.252 497.396 193.069 489.662 171.909 478.248C162.504 473.207 151.094 477.575 146.728 486.64C142.69 495.033 147.057 505.115 156.134 508.81C203.82 527.958 255.544 536.365 302.558 539.716C264.606 533.328 240.097 523.261 240.097 512.505H240.082Z" fill="#091B2A"/>
<path d="M454.007 587.421L545.358 433.55L517.141 416.75L429.828 578.012L454.007 587.421Z" fill="#3B89B6"/>
<path d="M609.838 376.764C607.819 366.682 594.047 364.333 589.022 373.742L575.594 397.932C558.472 428.164 515.481 403.975 532.603 373.742L546.031 349.553C551.07 340.144 541.994 329.388 532.603 333.098C519.848 337.795 508.423 347.205 501.709 360.309C487.264 387.191 496.67 421.448 522.195 437.589C550.412 455.39 587.677 445.652 604.14 416.765C610.526 404.005 612.529 389.554 609.853 376.779L609.838 376.764Z" fill="#6291B9"/>
<path d="M381.139 612.284C382.814 620.347 393.565 622.366 397.932 614.977L409.356 595.829C423.801 571.639 457.387 591.79 443.615 615.994L432.19 635.142C427.824 642.532 434.882 651.597 442.942 648.575C453.349 645.209 462.755 637.819 468.467 627.079C480.565 605.582 473.836 578.027 453.35 564.923C430.844 550.143 400.952 557.189 387.195 580.046C381.154 590.129 379.135 601.543 381.154 612.299L381.139 612.284Z" fill="#6291B9"/>
<path d="M437.559 542.394L483.9 565.237L503.384 518.534L453.35 505.429L437.559 542.379V542.394Z" fill="#649ECD"/>
<path d="M472.146 483.948L511.773 505.788L531.586 461.434L488.595 443.288L472.146 483.948Z" fill="#649ECD"/>
<path d="M467.63 36.3346C445.125 26.252 268.868 10.4101 179.865 3.3493C152.321 5.69792 121.711 9.12361 115.326 14.8381C103.901 24.9207 77.3736 391.798 148.238 424.724C172.747 436.153 281.564 441.523 380.302 442.525C423.622 441.852 454.905 441.194 458.269 438.845C471.368 430.453 497.507 49.7831 467.615 36.3346H467.63Z" fill="#ABC7E7"/>
<path d="M478.157 254.995C483.526 152.524 483.421 43.3655 467.63 36.3047C458.224 31.9366 435.091 27.8527 375.501 21.6296C376.503 74.3762 363.344 133.181 334.798 188.965C283.418 289.417 196.104 354.594 114.159 362.328C121.546 394.581 132.298 417.768 148.074 425.158C164.523 431.411 204.673 435.824 258.401 438.845" fill="#CBD7ED"/>
<path d="M51.0104 321.669C68.8051 321.669 83.5941 285.378 83.5941 240.694C83.5941 196.011 68.82 159.719 51.0104 159.719C33.2008 159.719 18.4268 196.011 18.4268 240.694C18.4268 285.378 33.2008 321.669 51.0104 321.669Z" fill="#1E5390"/>
<path d="M447.637 72.7157C429.499 64.3235 284.42 47.5242 210.878 40.1194C188.044 41.1216 162.848 43.4852 157.15 48.1824C147.416 56.2455 121.546 362.313 181.33 389.868C201.817 399.278 292.824 403.975 374.769 404.992C410.373 404.663 435.884 402.973 438.575 400.953C448.654 394.566 471.817 83.8006 447.637 72.7157Z" fill="#081C34"/>
<path d="M426.807 88.1687C410.358 80.4348 280.053 65.3258 213.555 58.6091C193.069 59.6114 170.235 61.6309 165.524 65.999C157.135 73.3889 133.614 350.226 187.356 375.089C205.495 383.481 287.44 387.849 361.325 388.522C393.236 388.193 416.07 386.503 418.747 385.156C427.136 379.442 448.295 98.5804 426.807 88.1538V88.1687Z" fill="#0F294B"/>
<path d="M257.219 368.701C291.807 274.293 361.325 206.422 436.228 183.25C436.9 133.196 435.226 91.8637 426.822 88.5128C416.414 83.4715 357.647 75.4084 299.882 68.3476C300.554 107.99 294.169 149.652 279.066 190.969C254.886 256.476 214.243 309.567 166.556 343.165C171.595 359.621 178.654 371.05 188.044 375.418C197.106 379.786 221.286 382.808 252.524 385.156C253.197 379.442 254.872 374.071 257.219 368.701Z" fill="#14355C"/>
<path d="M220.942 127.138C211.536 127.138 203.476 135.53 203.147 146.63L197.435 290.763C197.106 301.519 204.493 310.255 213.884 310.255C223.275 310.255 231.35 301.863 231.679 290.763L237.391 146.63C237.72 135.874 230.333 127.138 220.942 127.138Z" fill="#2F70B5"/>
<path d="M390.874 140.242C381.468 140.242 373.408 148.634 373.079 159.734L367.367 303.867C367.038 314.623 374.425 323.359 383.816 323.359C393.206 323.359 401.281 314.967 401.61 303.867L407.323 159.734C407.323 149.322 400.264 140.242 390.874 140.242Z" fill="#2F70B5"/>
<path d="M356.331 742.49C352.309 743.492 349.288 745.497 346.267 747.501C348.286 760.217 374.126 777.285 410.044 788.983H446.964C443.615 774.263 388.9 731.764 356.331 742.475V742.49Z" fill="#ABC7E7"/>
<path d="M168.59 742.31C166.99 741.712 163.76 740.575 157.808 740.68C142.361 747.397 131.954 760.142 131.954 774.907C131.954 779.948 132.956 784.645 135.318 788.998H195.431C195.431 788.669 194.131 751.705 168.605 742.31H168.59Z" fill="#ABC7E7"/>
<path d="M359.307 764.136C360.982 757.075 357.632 751.705 352.593 751.705C347.554 751.705 342.514 757.075 340.839 764.136C339.165 771.197 342.514 776.567 347.554 776.567C352.593 776.896 357.632 771.197 359.307 764.136Z" fill="#0F294B"/>
<path d="M181.644 761.787C178.953 755.744 174.93 751.032 173.584 752.049C171.566 752.722 172.583 759.11 175.259 765.153C177.951 771.197 181.973 775.909 183.319 774.892C185.338 774.219 184.665 768.175 181.644 761.787Z" fill="#0F294B"/>
<path d="M503.384 518.549L467.839 509.244C464.475 516.978 462.411 526.283 462.411 536.365C462.411 543.426 463.413 549.799 465.103 555.857L483.914 565.267L503.399 518.564L503.384 518.549Z" fill="#ABC7E7"/>
<path d="M503.608 449.616C500.587 457.35 499.017 466.46 499.017 476.543C499.017 485.608 499.974 493.507 502.322 500.553L511.788 505.773L531.601 461.419L503.623 449.601L503.608 449.616Z" fill="#ABC7E7"/>
<path d="M478.337 468.644L504.386 478.562L507.406 470.17L481.641 460.462L478.337 468.644Z" fill="#1E5390"/>
<path d="M495.548 537.323L475.167 529.634L471.802 538.026L492.049 545.67L495.533 537.323H495.548Z" fill="#1E5390"/>
<path d="M399.277 139.569C389.543 139.569 381.483 148.634 381.139 159.39L375.427 306.545C375.098 317.301 382.485 326.366 392.219 326.366C401.954 326.366 410.014 317.301 410.358 306.545L416.07 159.39C416.399 148.305 409.012 139.569 399.277 139.569Z" fill="white"/>
<path d="M229.675 120.765C219.94 120.765 211.88 130.175 211.536 141.588L205.824 296.807C205.495 308.565 212.882 317.63 222.617 317.63C232.352 317.63 240.411 308.22 240.755 296.807L246.468 141.588C246.797 130.504 239.41 120.765 229.675 120.765Z" fill="white"/>
<path d="M115.49 408.014C113.471 398.949 108.432 392.561 104.738 393.234C100.701 393.908 99.3701 402.3 101.718 411.036C103.737 420.101 108.776 426.489 112.469 425.816C115.834 425.143 117.509 416.75 115.49 408.014Z" fill="#1E5390"/>
<path d="M52.3563 299.499C65.4555 299.499 75.8632 272.961 75.8632 241.038C75.8632 209.115 65.4555 182.577 52.3563 182.577C39.257 182.577 28.8494 209.115 28.8494 241.038C28.8494 272.961 39.257 299.499 52.3563 299.499Z" fill="#3980B1"/>
<path d="M30.1953 182.577H52.3564L56.3789 185.27V297.151L52.3564 299.499H31.5262L30.1953 182.577Z" fill="#3980B1"/>
<path d="M31.1971 299.499C44.2964 299.499 54.704 272.961 54.704 241.038C54.704 209.115 44.2964 182.577 31.1971 182.577C18.0978 182.577 7.69019 209.115 7.69019 241.038C7.69019 272.961 18.0978 299.499 31.1971 299.499Z" fill="#649ECD"/>
<path opacity="0.85" d="M9.03607 260.859L44.9693 193.333C44.9693 193.333 45.6422 194.006 47.9899 200.05C51.0105 207.784 50.6816 208.442 50.6816 208.442L11.3838 273.964L9.70897 267.576C8.70709 261.532 9.03607 260.859 9.03607 260.859Z" fill="#CBD7ED"/>
<path opacity="0.5" d="M54.7039 229.953L18.4267 289.417C18.4267 289.417 17.4248 287.397 16.7519 286.395C16.079 285.393 15.75 284.375 15.75 284.375L52.6851 224.239L54.031 222.219L54.3599 226.258L54.6889 229.953H54.7039Z" fill="#CBD7ED"/>
<path opacity="0.5" d="M66.8015 123.443C66.8015 123.443 68.8202 120.077 69.8221 105.297C70.824 85.476 69.8221 78.7593 69.8221 78.7593L38.5842 128.14L66.8015 123.443Z" fill="#CBD7ED"/>
<path opacity="0.5" d="M66.4575 45.8338L22.7933 68.3476C22.7933 68.3476 20.1017 70.6962 17.754 89.8442C15.0624 108.992 16.7521 126.465 16.7521 126.465L66.4575 45.8338Z" fill="#CBD7ED"/>
</svg>
