<svg width="617" height="617" viewBox="0 0 617 617" fill="none" xmlns="http://www.w3.org/2000/svg">
<rect width="616.046" height="616.046" fill="#0A2540"/>
<path d="M474.289 277.601H480.435C484.466 277.601 487.482 281.83 487.369 287.298L486.496 328.681C486.355 334.713 482.493 339.844 478.039 339.844H471.893C467.862 339.844 464.846 335.615 464.959 330.147L465.832 288.764C465.973 282.732 469.835 277.601 474.289 277.601Z" fill="white"/>
<path fill-rule="evenodd" clip-rule="evenodd" d="M204.135 416.223L203.285 412.715C187.496 347.549 180.602 279.617 182.259 209.095L182.366 204.525L186.86 203.685C263.093 189.448 341.708 189.218 422.778 203.677L427.092 204.447L427.411 208.817C432.271 275.343 430.535 342.368 422.018 409.834L421.523 413.754L417.67 414.627C348.314 430.334 278.272 430.804 207.676 416.919L204.135 416.223ZM222.193 397.463C282.615 408.113 342.419 407.72 401.66 395.772C408.314 337.817 409.855 280.22 406.412 223.007C336.915 211.912 269.474 212.029 203.941 222.806C203.461 283.183 209.488 341.426 222.193 397.463Z" fill="white"/>
<path fill-rule="evenodd" clip-rule="evenodd" d="M166.822 457.086L165.673 452.183C144.322 361.108 134.999 266.167 137.239 167.606L137.385 161.219L143.462 160.046C246.549 140.148 352.859 139.826 462.487 160.034L468.321 161.11L468.753 167.217C475.324 260.194 472.977 353.867 461.46 448.157L460.791 453.635L455.58 454.855C361.792 476.808 267.076 477.465 171.611 458.059L166.822 457.086ZM185.603 436.506C267.311 451.389 359.458 450.841 439.568 434.142C448.566 353.145 450.65 261.372 445.994 181.411C352.016 165.905 249.54 166.069 160.922 181.131C160.273 265.514 168.424 358.189 185.603 436.506Z" fill="white"/>
<path d="M250.485 243.698C245.036 244.175 240.943 249.007 241.231 254.644L245.872 349.309C246.132 354.857 250.572 359.241 255.963 359.241H256.482C262.276 359.241 266.889 354.2 266.572 348.205L261.383 253.54C261.065 247.665 256.107 243.221 250.456 243.698H250.485Z" fill="white"/>
<path d="M367.116 243.698C361.981 244.175 357.739 249.007 357.523 254.644L353.983 349.309C353.767 354.857 357.577 359.241 362.603 359.241H363.089C368.521 359.241 373.277 354.2 373.466 348.206L376.52 253.54C376.709 247.665 372.439 243.221 367.089 243.698H367.116Z" fill="white"/>
<path d="M150.042 354.31H141.265C132.526 354.31 125.282 347.544 124.661 338.834L120.039 272.757C119.39 263.116 127.001 254.941 136.642 254.941H140.804C142.358 288.555 145.429 321.681 150.042 354.31Z" fill="white"/>
<path d="M466.474 355.009L475.24 354.56C483.967 354.113 490.856 346.986 491.03 338.255L492.267 272.028C492.421 262.367 484.402 254.592 474.774 255.085L470.617 255.298C470.784 288.947 469.413 322.187 466.474 355.009Z" fill="white"/>
</svg>
