<svg width="638" height="638" viewBox="0 0 638 638" fill="none" xmlns="http://www.w3.org/2000/svg">
<path fill-rule="evenodd" clip-rule="evenodd" d="M104.716 539.547L104.664 539.523C89.0829 532.33 78.5835 518.463 71.3259 504.328C63.9034 489.871 58.4501 472.37 54.347 453.781C46.1235 416.524 42.4844 370.918 41.458 327.049C40.4269 282.982 42.013 239.63 44.5992 206.433C45.8898 189.867 47.4526 175.527 49.1239 164.735C49.9507 159.396 50.8707 154.484 51.91 150.435C52.4221 148.44 53.0832 146.176 53.9556 143.974C54.5191 142.552 56.3195 138.014 60.3109 134.066L60.8261 133.556L61.3722 133.08C64.6718 130.201 69.168 127.454 72.7933 125.347C76.9269 122.945 81.9358 120.245 87.4004 117.422C98.3588 111.762 111.829 105.259 125.221 99.0908C138.608 92.9251 152.157 86.9843 163.28 82.4772C168.819 80.2327 173.97 78.2568 178.302 76.7716C181.713 75.6023 187.208 73.7885 192.109 73.3918L192.42 73.3665L192.733 73.3497C196.023 73.1725 203.91 73.6426 212.348 74.1929C221.837 74.8118 234.682 75.742 249.78 76.912C279.986 79.253 319.405 82.5693 359.389 86.3138C399.339 90.0552 440.022 94.2397 472.692 98.3208C489.004 100.358 503.537 102.397 515.073 104.373C525.559 106.168 536.342 108.329 543.1 111.255L543.349 111.363L543.596 111.477C554.042 116.293 558.513 126.079 560.288 130.435C562.599 136.108 564.174 142.663 565.342 149.176C567.71 162.378 569.105 179.504 569.86 198.559C571.378 236.91 570.408 286.32 568.14 335.09C565.868 383.943 562.267 432.706 558.427 469.926C556.513 488.482 554.507 504.496 552.524 516.329C551.546 522.17 550.487 527.523 549.318 531.836C548.749 533.935 547.983 536.438 546.932 538.861C546.405 540.075 545.601 541.753 544.432 543.535C543.432 545.061 541.253 548.089 537.495 550.646C533.211 553.563 528.633 554.608 527.339 554.904L527.212 554.933C525.006 555.441 522.635 555.818 520.384 556.117C515.815 556.722 510.03 557.22 503.467 557.642C493.742 558.268 481.542 558.773 467.572 559.152C460.765 568.704 449.673 575.025 437.229 575.134C349.036 577.136 262.413 573.773 176.736 564.317L176.443 564.285L176.151 564.245C165.964 562.858 156.97 557.533 150.975 549.724C143.364 548.782 136.363 547.751 130.145 546.621C120.998 544.958 111.771 542.783 104.716 539.547ZM166.524 528.133C167.085 534.905 172.28 540.304 179.281 541.257C263.919 550.599 349.577 553.925 436.903 551.935C444.665 551.935 451.407 545.267 451.407 537.262V536.317C492.3 535.538 521.026 533.84 524.438 531.469C536.915 523.137 563.551 146.224 533.882 132.546C503.868 119.551 206.112 95.8627 193.98 96.5161C181.503 97.526 88.097 140.551 76.6258 150.56C65.1546 161.907 43.5785 485.771 114.388 518.459C122.896 522.361 141.585 525.561 166.524 528.133Z" fill="white"/>
<mask id="mask0_373_2481" style="mask-type:alpha" maskUnits="userSpaceOnUse" x="0" y="0" width="638" height="638">
<circle cx="319" cy="319" r="319" fill="#D9D9D9"/>
</mask>
<g mask="url(#mask0_373_2481)">
<path d="M166.473 501.907V526.917C166.473 534.253 171.864 540.253 179.281 541.263C263.918 550.605 349.577 553.931 436.902 551.941C444.665 551.941 451.407 545.273 451.407 537.268V512.258C451.407 504.58 445.341 497.912 437.248 497.912L181.638 487.575C173.215 487.249 166.458 493.917 166.458 501.922L166.473 501.907Z" fill="#1E5390"/>
<path d="M114.389 518.46C160.919 539.801 511.962 540.143 524.439 531.469C536.917 523.138 563.553 146.224 533.884 132.546C503.869 119.551 206.113 95.8633 193.982 96.5167C181.504 97.5266 88.0982 140.551 76.627 150.561C65.1558 161.907 43.5797 485.772 114.389 518.46Z" fill="#78ADDC"/>
<path d="M533.884 132.546C501.693 119.477 206.114 95.8633 193.982 96.5168C188.922 96.8435 169.643 104.67 148.908 113.833C158.007 163.526 163.112 224.061 163.112 289.095C163.112 383.149 152.211 467.609 135.35 523.984C226.864 540.187 513.149 539.296 524.935 531.262C537.082 522.93 563.898 145.898 533.884 132.561V132.546Z" fill="#5799CB"/>
<path d="M533.885 132.58C511.288 122.571 334.31 106.843 244.943 99.833C217.286 102.165 186.551 105.566 180.139 111.239C168.668 121.249 142.032 485.479 213.187 518.167C237.796 529.514 347.057 534.845 446.199 535.84C489.697 535.172 521.107 534.518 524.486 532.187C537.638 523.855 563.884 145.932 533.87 132.58H533.885Z" fill="#ABC7E7"/>
<path d="M544.453 349.659C549.844 247.927 549.739 139.556 533.883 132.546C524.439 128.21 501.211 124.155 441.378 117.977C442.384 170.343 429.171 228.724 400.508 284.105C348.917 383.832 261.247 448.54 178.966 456.218C186.384 488.237 197.179 511.257 213.02 518.594C229.536 524.802 269.85 529.183 323.798 532.183" fill="#CBD7ED"/>
<path d="M115.562 415.85C133.429 415.85 148.279 379.82 148.279 335.459C148.279 291.098 133.444 255.068 115.562 255.068C97.6792 255.068 82.8447 291.098 82.8447 335.459C82.8447 379.82 97.6792 415.85 115.562 415.85Z" fill="#1E5390"/>
<path d="M513.813 168.699C495.6 160.368 349.927 143.69 276.085 136.338C253.158 137.333 227.858 139.68 222.138 144.343C212.363 152.348 186.388 456.207 246.416 483.564C266.986 492.905 358.366 497.569 440.646 498.578C476.396 498.252 502.011 496.573 504.714 494.569C514.834 488.227 538.091 179.704 513.813 168.699Z" fill="#081C34"/>
<path d="M492.893 184.038C476.376 176.359 345.539 161.359 278.768 154.691C258.198 155.686 235.271 157.691 230.541 162.028C222.118 169.364 198.5 444.204 252.463 468.887C270.675 477.219 352.956 481.556 427.143 482.224C459.185 481.897 482.112 480.219 484.8 478.882C493.223 473.209 514.469 194.374 492.893 184.023V184.038Z" fill="#0F294B"/>
<path d="M322.614 462.549C357.342 368.822 427.146 301.441 502.354 278.436C503.03 228.743 501.348 187.709 492.91 184.382C482.46 179.377 423.452 171.373 365.45 164.363C366.126 203.719 359.715 245.08 344.55 286.1C320.271 351.134 279.461 403.841 231.58 437.198C236.64 453.534 243.726 464.881 253.156 469.217C262.255 473.554 286.533 476.554 317.899 478.886C318.575 473.212 320.256 467.881 322.614 462.549Z" fill="#14355C"/>
<path d="M286.188 222.724C276.744 222.724 268.651 231.056 268.32 242.076L262.585 385.169C262.254 395.847 269.672 404.52 279.101 404.52C288.53 404.52 296.638 396.189 296.968 385.169L302.704 242.076C303.034 231.398 295.617 222.724 286.188 222.724Z" fill="#2F70B5"/>
<path d="M456.814 235.737C447.37 235.737 439.277 244.069 438.947 255.088L433.211 398.182C432.881 408.86 440.298 417.533 449.727 417.533C459.156 417.533 467.264 409.201 467.595 398.182L473.33 255.088C473.33 244.752 466.243 235.737 456.814 235.737Z" fill="#2F70B5"/>
<path d="M465.249 235.064C455.475 235.064 447.382 244.064 447.037 254.742L441.301 400.835C440.971 411.514 448.388 420.513 458.162 420.513C467.937 420.513 476.03 411.514 476.375 400.835L482.111 254.742C482.441 243.737 475.024 235.064 465.249 235.064Z" fill="white"/>
<path d="M294.956 216.398C285.181 216.398 277.088 225.739 276.743 237.071L271.007 391.169C270.677 402.842 278.094 411.842 287.869 411.842C297.643 411.842 305.736 402.501 306.081 391.169L311.817 237.071C312.147 226.066 304.73 216.398 294.956 216.398Z" fill="white"/>
<path d="M180.303 501.578C178.276 492.578 173.216 486.236 169.507 486.904C165.453 487.573 164.117 495.904 166.474 504.578C168.501 513.578 173.561 519.919 177.27 519.251C180.648 518.583 182.33 510.251 180.303 501.578Z" fill="#1E5390"/>
<path d="M116.916 393.844C130.069 393.844 140.519 367.498 140.519 335.805C140.519 304.112 130.069 277.766 116.916 277.766C103.763 277.766 93.313 304.112 93.313 335.805C93.313 367.498 103.763 393.844 116.916 393.844Z" fill="#3980B1"/>
<path d="M94.6606 277.766H116.912L120.951 280.439V391.513L116.912 393.844H95.9969L94.6606 277.766Z" fill="#3980B1"/>
<path d="M95.6704 393.844C108.823 393.844 119.273 367.498 119.273 335.805C119.273 304.112 108.823 277.766 95.6704 277.766C82.5176 277.766 72.0674 304.112 72.0674 335.805C72.0674 367.498 82.5176 393.844 95.6704 393.844Z" fill="#649ECD"/>
<path opacity="0.85" d="M73.4206 355.49L109.501 288.45C109.501 288.45 110.176 289.119 112.534 295.119C115.567 302.797 115.236 303.45 115.236 303.45L75.7779 368.499L74.0962 362.158C73.0902 356.158 73.4206 355.49 73.4206 355.49Z" fill="#CBD7ED"/>
<path opacity="0.5" d="M119.276 324.795L82.8507 383.829C82.8507 383.829 81.8447 381.824 81.1691 380.829C80.4934 379.834 80.1631 378.824 80.1631 378.824L117.249 319.122L118.601 317.117L118.931 321.127L119.261 324.795H119.276Z" fill="#CBD7ED"/>
<path opacity="0.5" d="M131.418 219.06C131.418 219.06 133.445 215.719 134.451 201.046C135.457 181.368 134.451 174.699 134.451 174.699L103.085 223.724L131.418 219.06Z" fill="#CBD7ED"/>
<path opacity="0.5" d="M131.071 142.003L87.2284 164.355C87.2284 164.355 84.5257 166.686 82.1684 185.696C79.4658 204.706 81.1624 222.052 81.1624 222.052L131.071 142.003Z" fill="#CBD7ED"/>
</g>
</svg>
