<svg width="760" height="459" viewBox="0 0 760 459" fill="none" xmlns="http://www.w3.org/2000/svg">
<path d="M130.486 445.908C130.365 445.931 130.365 445.931 130.486 445.908L130.244 445.954L130.061 444.989L130.182 444.966C132.479 444.529 134.874 443.948 137.247 443.247L137.551 444.189C135.179 444.89 132.783 445.471 130.486 445.908ZM126.496 446.667C124.055 447.006 121.47 447.248 118.96 447.226L118.898 446.238C121.385 446.14 123.849 445.921 126.313 445.702L126.496 446.667ZM141.086 443.016L140.782 442.075C143.131 441.253 145.458 440.31 147.617 439.15L148.02 439.948C145.883 441.229 143.436 442.195 141.086 443.016ZM115.195 447.193C112.685 447.17 110.13 446.907 107.672 446.5L107.753 445.61C110.188 445.896 112.744 446.16 115.133 446.205L115.195 447.193ZM151.464 438.293L151.061 437.495C153.221 436.335 155.334 434.933 157.327 433.554L157.851 434.329C155.737 435.731 153.623 437.133 151.464 438.293ZM103.936 445.961C101.455 445.434 98.9744 444.906 96.5686 444.114L96.8917 443.178C99.2745 443.849 101.657 444.52 104.138 445.048L103.936 445.961ZM160.794 432.02L160.15 431.268C162.12 429.769 163.923 428.051 165.726 426.334L166.347 426.965C164.688 428.78 162.764 430.521 160.794 432.02ZM93.0809 442.904C90.7731 441.968 88.4653 441.033 86.1116 439.856L86.5785 439.018C88.7883 440.097 91.1191 441.153 93.4039 441.967L93.0809 442.904ZM168.98 424.34L168.238 423.732C169.897 421.917 171.412 420.004 172.905 417.971L173.647 418.579C172.252 420.469 170.639 422.525 168.98 424.34ZM82.8948 438.094C80.783 436.872 78.6482 435.529 76.6113 434.042L77.2221 433.301C79.2589 434.788 81.2728 436.154 83.5056 437.353L82.8948 438.094ZM175.923 415.397L175.083 414.932C176.454 412.922 177.659 410.694 178.743 408.488L179.583 408.953C178.476 411.038 177.272 413.267 175.923 415.397ZM73.5216 431.631C71.5828 430.001 69.6439 428.371 67.9239 426.574L68.5576 425.953C70.2776 427.75 72.0955 429.403 74.0115 430.913L73.5216 431.631ZM181.163 405.404L180.346 405.06C181.286 402.757 182.226 400.454 182.901 398.076L183.839 398.398C183.141 400.655 182.224 403.078 181.163 405.404ZM65.4158 423.927C63.8167 422.107 62.1718 420.046 60.7915 418.06L61.5691 417.537C62.9493 419.524 64.5713 421.464 66.1934 423.404L65.4158 423.927ZM184.889 394.699L183.974 394.499C184.529 392.144 185.06 389.669 185.35 387.24L186.242 387.32C185.952 389.749 185.444 392.345 184.889 394.699ZM58.5544 414.862C57.2722 412.732 55.9899 410.602 54.9266 408.305L55.727 407.903C56.7675 410.079 58.0727 412.33 59.332 414.339L58.5544 414.862ZM186.786 383.593L185.893 383.513C186.062 381.107 186.208 378.58 186.112 376.1L186.981 376.059C186.956 378.563 186.931 381.067 186.786 383.593ZM53.392 404.849C52.4495 402.529 51.6279 400.186 50.7834 397.723L51.7278 397.419C52.4284 399.784 53.25 402.127 54.1924 404.447L53.392 404.849ZM186.776 372.35L185.786 372.413C185.569 369.955 185.231 367.521 184.772 365.109C184.359 362.939 183.803 360.671 183.148 358.546L184.092 358.242C184.747 360.366 185.304 362.634 185.717 364.805C186.198 367.337 186.559 369.892 186.776 372.35ZM49.8534 394.152C49.6469 393.067 49.2966 391.884 49.0901 390.798C48.8378 389.472 48.5854 388.146 48.454 386.796L49.4212 386.612C49.5527 387.962 49.805 389.288 50.0574 390.614C50.2639 391.7 50.4703 392.785 50.7977 393.847L49.8534 394.152ZM49.0957 382.926L48.1055 382.989C47.8885 380.532 47.8903 377.907 47.9381 375.524L48.8303 375.604C48.7826 377.987 48.8787 380.468 49.0957 382.926ZM182.097 354.998C181.275 352.655 180.333 350.335 179.292 348.159L180.093 347.757C181.156 350.054 182.099 352.373 183.041 354.693L182.097 354.998ZM49.1323 371.923L48.2401 371.843C48.5067 369.294 48.7962 366.864 49.3276 364.389L50.2199 364.47C49.6885 366.945 49.3989 369.374 49.1323 371.923ZM177.539 344.869C176.378 342.716 174.974 340.609 173.594 338.623L174.372 338.1C175.752 340.087 177.178 342.314 178.339 344.467L177.539 344.869ZM51.0513 360.938L50.1362 360.737C50.8114 358.36 51.4637 355.861 52.4037 353.558L53.2209 353.903C52.4018 356.183 51.5827 358.463 51.0513 360.938ZM171.38 335.546C169.879 333.582 168.159 331.785 166.439 329.988L167.073 329.368C168.793 331.165 170.536 333.082 172.037 335.046L171.38 335.546ZM54.6798 350.377L53.8626 350.032C54.9235 347.706 56.0074 345.501 57.2121 343.273L58.0523 343.737C56.8246 345.845 55.6198 348.074 54.6798 350.377ZM163.81 327.365C161.992 325.712 160.053 324.081 158.039 322.715L158.65 321.974C160.687 323.461 162.626 325.091 164.444 326.745L163.81 327.365ZM59.9657 340.625L59.1256 340.16C60.4742 338.029 61.9666 335.996 63.6029 334.06L64.3451 334.669C62.8068 336.461 61.3143 338.494 59.9657 340.625ZM155.018 320.666C153.004 319.3 150.772 318.1 148.539 316.901L149.006 316.062C151.239 317.262 153.471 318.461 155.485 319.828L155.018 320.666ZM66.811 331.825L66.0688 331.217C67.728 329.402 69.5082 327.564 71.4551 325.944L72.0994 326.696C70.2504 328.172 68.4702 330.01 66.811 331.825ZM145.224 315.283C143.037 314.324 140.609 313.412 138.203 312.62L138.526 311.684C140.932 312.476 143.36 313.388 145.547 314.346L145.224 315.283ZM74.9968 324.146L74.3526 323.393C76.3225 321.894 78.4133 320.372 80.5499 319.091L81.0732 319.866C78.9595 321.268 76.8458 322.669 74.9968 324.146ZM134.64 311.674C132.257 311.002 129.799 310.595 127.341 310.188L127.423 309.298C129.881 309.705 132.338 310.112 134.842 310.761L134.64 311.674ZM84.2293 318.016L83.8269 317.218C85.9865 316.057 88.267 314.874 90.5934 313.931L90.9958 314.729C88.6923 315.792 86.3889 316.855 84.2293 318.016ZM123.75 309.747C121.315 309.461 118.805 309.439 116.318 309.537L116.278 308.67C118.765 308.571 121.298 308.714 123.854 308.978L123.75 309.747ZM94.3874 313.459L94.083 312.518C96.4323 311.696 98.9255 310.972 101.321 310.391L101.504 311.356C99.1091 311.936 96.7368 312.638 94.3874 313.459ZM112.576 309.624C110.112 309.843 107.648 310.062 105.23 310.522L105.046 309.557C107.464 309.097 110.026 308.735 112.513 308.636L112.576 309.624Z" fill="#5D758B"/>
<path d="M664.207 195.052L664.086 195.075L663.903 194.111L664.024 194.088C666.442 193.628 668.837 193.047 671.089 192.369L671.393 193.31C668.998 193.891 666.625 194.592 664.207 195.052ZM660.315 195.668C657.874 196.007 655.289 196.249 652.779 196.227L652.717 195.239C655.204 195.141 657.691 195.043 660.132 194.703L660.315 195.668ZM674.906 192.017L674.601 191.076C676.95 190.254 679.277 189.311 681.436 188.151L681.839 188.949C679.581 190.253 677.255 191.196 674.906 192.017ZM649.014 196.194C646.504 196.171 643.949 195.908 641.491 195.501L641.572 194.611C644.007 194.897 646.563 195.161 648.952 195.206L649.014 196.194ZM685.162 187.317L684.759 186.519C686.919 185.359 689.033 183.957 691.025 182.578L691.549 183.353C689.556 184.732 687.442 186.134 685.162 187.317ZM637.755 194.962C635.274 194.435 632.793 193.907 630.388 193.115L630.711 192.179C633.094 192.85 635.476 193.522 637.957 194.049L637.755 194.962ZM694.613 181.021L693.969 180.269C695.939 178.77 697.742 177.052 699.545 175.335L700.166 175.966C698.386 177.804 696.583 179.522 694.613 181.021ZM626.9 191.905C624.592 190.969 622.284 190.034 619.931 188.857L620.398 188.019C622.607 189.098 624.938 190.154 627.223 190.968L626.9 191.905ZM702.799 173.341L702.057 172.733C703.716 170.918 705.231 169.005 706.724 166.972L707.466 167.58C706.071 169.47 704.458 171.526 702.799 173.341ZM616.714 187.095C614.602 185.873 612.467 184.53 610.43 183.043L611.041 182.302C613.078 183.789 615.213 185.132 617.325 186.354L616.714 187.095ZM709.742 164.398L708.902 163.933C710.273 161.923 711.478 159.695 712.562 157.49L713.402 157.954C712.295 160.039 711.091 162.268 709.742 164.398ZM607.364 180.753C605.425 179.122 603.486 177.492 601.766 175.695L602.4 175.075C604.12 176.872 605.938 178.525 607.853 180.035L607.364 180.753ZM714.982 154.405L714.165 154.061C715.105 151.758 716.045 149.455 716.72 147.078L717.658 147.399C716.862 149.799 716.043 152.079 714.982 154.405ZM599.235 172.928C597.636 171.108 595.991 169.047 594.611 167.061L595.388 166.538C596.768 168.525 598.39 170.465 599.989 172.285L599.235 172.928ZM718.708 143.7L717.793 143.5C718.348 141.145 718.879 138.67 719.169 136.241L720.061 136.321C719.794 138.871 719.263 141.346 718.708 143.7ZM592.373 163.863C591.091 161.733 589.786 159.482 588.746 157.306L589.546 156.904C590.587 159.08 591.892 161.331 593.151 163.34L592.373 163.863ZM720.484 132.617L719.591 132.537C719.76 130.131 719.906 127.604 719.81 125.124L720.679 125.083C720.775 127.564 720.75 130.068 720.484 132.617ZM587.234 153.97C586.291 151.651 585.47 149.308 584.625 146.845L585.57 146.54C586.27 148.906 587.092 151.249 588.034 153.568L587.234 153.97ZM720.595 121.351L719.605 121.414C719.388 118.956 719.05 116.522 718.591 114.11C718.178 111.94 717.622 109.672 716.967 107.547L717.911 107.243C718.566 109.367 719.123 111.635 719.559 113.926C720.017 116.338 720.378 118.893 720.595 121.351ZM583.695 143.273C583.489 142.188 583.139 141.005 582.932 139.92C582.68 138.594 582.427 137.267 582.296 135.918L583.263 135.734C583.395 137.083 583.647 138.41 583.899 139.736C584.106 140.821 584.312 141.907 584.64 142.969L583.695 143.273ZM582.817 132.07L581.827 132.134C581.61 129.676 581.634 127.172 581.659 124.669L582.551 124.749C582.625 127.109 582.721 129.59 582.817 132.07ZM715.916 103.999C715.094 101.656 714.152 99.3364 713.111 97.1603L713.912 96.7582C714.975 99.0548 715.918 101.374 716.86 103.694L715.916 103.999ZM582.951 120.924L582.059 120.844C582.326 118.295 582.615 115.866 583.147 113.39L584.062 113.591C583.508 115.946 583.097 118.398 582.951 120.924ZM711.358 93.8705C710.197 91.7174 708.793 89.6104 707.413 87.6239L708.191 87.1012C709.594 89.2082 710.997 91.3152 712.158 93.4683L711.358 93.8705ZM584.87 109.939L583.955 109.738C584.608 107.24 585.283 104.862 586.223 102.559L587.04 102.904C586.221 105.184 585.425 107.584 584.87 109.939ZM705.199 84.5467C703.698 82.5832 701.978 80.7863 700.258 78.9895L700.892 78.3691C702.612 80.166 704.355 82.0834 705.856 84.0469L705.199 84.5467ZM588.499 99.3776L587.682 99.0333C588.743 96.7073 589.826 94.502 591.031 92.2736L591.871 92.7385C590.644 94.8463 589.462 97.1952 588.499 99.3776ZM697.652 76.4865C695.834 74.8333 693.895 73.203 691.881 71.8369L692.492 71.0959C694.529 72.5826 696.468 74.2129 698.286 75.8662L697.652 76.4865ZM593.785 89.6256L593.066 89.1377C594.414 87.0069 595.907 84.9737 597.543 83.0381L598.285 83.6465C596.649 85.5822 595.133 87.4948 593.785 89.6256ZM688.837 69.6671C686.823 68.301 684.591 67.1015 682.358 65.902L682.825 65.0635C685.058 66.263 687.29 67.4625 689.304 68.8286L688.837 69.6671ZM600.63 80.8264L599.888 80.2179C601.547 78.4029 603.448 76.5418 605.274 74.9449L605.918 75.697C604.069 77.1733 602.289 79.0114 600.63 80.8264ZM679.043 64.2836C676.735 63.3482 674.428 62.4129 672.143 61.5981L672.466 60.662C674.872 61.4538 677.156 62.2685 679.487 63.3245L679.043 64.2836ZM608.718 73.2902L608.074 72.5381C610.044 71.0388 612.134 69.5165 614.271 68.2353L614.794 69.0104C612.779 70.2686 610.665 71.6703 608.718 73.2902ZM668.459 60.6746C666.076 60.0035 663.618 59.5964 661.161 59.1894L661.242 58.2993C663.7 58.7063 666.157 59.1134 668.661 59.7615L668.459 60.6746ZM618.048 67.0169L617.646 66.2188C619.806 65.0583 622.086 63.8747 624.412 62.9323L624.815 63.7304C622.511 64.7934 620.208 65.8563 618.048 67.0169ZM657.448 58.7713C655.013 58.4849 652.503 58.4626 650.016 58.5609L649.976 57.6938C652.463 57.5955 654.996 57.7383 657.552 58.0018L657.448 58.7713ZM628.206 62.4604L627.902 61.5187C630.251 60.6969 632.745 59.9726 635.14 59.392L635.323 60.3567C632.928 60.9373 630.556 61.6385 628.206 62.4604ZM646.395 58.6251C643.931 58.844 641.467 59.0629 639.049 59.523L638.865 58.5583C641.283 58.0982 643.845 57.7357 646.332 57.6374L646.395 58.6251Z" fill="#5D758B"/>
<path d="M646.948 122.118C644.394 119.23 641.104 115.108 637.4 111.44C633.793 107.628 630.088 103.96 627.413 101.095C624.52 98.397 622.679 96.6231 622.679 96.6231L618.633 103.015C616.498 101.672 614.242 100.352 611.699 98.837L610.427 98.0794C594.827 89.1774 570.479 76.442 538.277 67.2002C523.237 62.5646 506.016 58.969 486.876 56.488C468.099 53.938 448.314 53.3291 428.222 54.4028C406.535 55.6551 385.579 58.7676 366.198 63.5794C345.268 68.8108 324.729 76.0921 305.161 85.1878C267.505 102.598 232.105 128.575 203.046 160.217C171.474 194.462 152.855 229.616 142.92 253.122C137.286 266.314 132.492 279.971 128.193 294.908C124.654 308.576 122.229 319.533 120.887 328.284C120.274 331.65 119.76 334.871 119.441 337.806L111.992 336.849C111.992 336.849 112.232 339.427 112.483 343.378C112.733 347.328 113.334 352.462 114.079 357.693C114.68 362.826 115.545 368.034 116.256 371.772C116.968 375.51 117.328 378.066 117.328 378.066C117.328 378.066 117.981 375.568 118.887 371.772C119.794 367.976 121 363.123 122.57 358.201C124.018 353.303 125.489 348.525 126.805 344.901C127.999 341.3 128.818 339.02 128.818 339.02L121.369 338.063C121.711 335.25 122.226 332.028 122.838 328.663C124.18 319.911 126.508 309.098 130.069 295.55C134.271 280.757 139.064 267.1 144.698 253.909C154.656 230.523 173.057 195.535 204.432 161.578C233.394 130.079 268.454 104.291 305.989 86.9045C325.436 77.8319 345.854 70.5735 366.663 65.3651C385.923 60.5763 406.759 57.4868 428.324 56.2576C448.272 55.0863 467.839 55.8617 486.593 58.2912C505.611 60.7952 522.833 64.3908 537.728 68.9288C569.787 78.073 594.014 90.8314 609.471 99.6358L610.742 100.393C613.286 101.909 615.541 103.229 617.676 104.572L613.63 110.964C613.63 110.964 616.036 111.756 619.547 113.087C623.08 114.539 627.817 116.387 632.455 118.378C637.215 120.346 641.658 122.625 645.214 124.197C648.673 125.913 651.003 126.969 651.003 126.969C651.003 126.969 649.502 125.006 646.948 122.118Z" fill="#5D758B"/>
<path d="M111.542 373.293L110.988 374.105L123.399 382.521L123.953 381.709L111.542 373.293Z" fill="#5D758B"/>
<path d="M121.284 371.448L112.836 383.836L113.65 384.388L122.098 371.999L121.284 371.448Z" fill="#5D758B"/>
<path d="M650.33 119.476L649.362 119.66L652.161 134.371L653.128 134.187L650.33 119.476Z" fill="#5D758B"/>
<path d="M658.529 125.038L643.778 127.844L643.962 128.809L658.712 126.002L658.529 125.038Z" fill="#5D758B"/>
<path d="M112.654 418.69C112.291 418.759 112.027 418.685 111.739 418.49C111.451 418.295 111.285 418.076 111.216 417.715L107.729 399.386C107.66 399.024 107.735 398.76 107.931 398.473C108.127 398.186 108.346 398.019 108.708 397.95L113.786 396.984C114.754 396.8 115.623 396.76 116.296 397.006C117.068 397.109 117.764 397.477 118.219 397.89C118.673 398.303 119.271 398.814 119.628 399.371C119.984 399.928 120.243 400.629 120.358 401.232C120.472 401.834 120.466 402.46 120.437 402.966C120.287 403.494 120.137 404.022 119.964 404.43C119.67 404.861 119.376 405.292 118.961 405.745C118.547 406.199 118.109 406.532 117.671 406.866C118.178 406.894 118.707 407.043 119.237 407.192C119.766 407.342 120.296 407.491 120.727 407.783C121.159 408.076 121.613 408.489 121.947 408.926C122.28 409.362 122.539 410.063 122.7 410.907C122.86 411.751 122.877 412.497 122.652 413.29C122.548 414.059 122.179 414.754 121.787 415.329C121.395 415.903 120.761 416.523 120.082 416.902C119.402 417.282 118.481 417.707 117.513 417.891L112.677 418.811L112.654 418.69ZM114.903 406.143C115.386 406.051 115.847 405.838 116.428 405.603C116.889 405.39 117.327 405.057 117.621 404.626C117.915 404.195 118.209 403.764 118.359 403.236C118.509 402.708 118.515 402.082 118.4 401.479C118.308 400.997 118.119 400.658 117.929 400.319C117.739 399.98 117.429 399.665 117.118 399.349C116.686 399.056 116.278 398.884 115.771 398.855C115.242 398.706 114.637 398.821 113.912 398.959L109.68 399.764L111.033 406.879L114.903 406.143ZM111.521 408.785L113.036 416.744L116.905 416.008C118.476 415.708 119.617 415.117 120.204 414.255C120.792 413.394 120.971 412.36 120.765 411.275C120.627 410.551 120.415 410.092 120.058 409.535C119.725 409.099 119.27 408.685 118.839 408.393C118.407 408.1 117.757 407.974 117.129 407.968C116.502 407.963 115.874 407.957 115.149 408.095L111.521 408.785Z" fill="#5D758B"/>
<path d="M129.917 396.162L126.409 399.453C126.19 399.62 126.092 399.764 125.873 399.93C125.654 400.097 125.533 400.12 125.292 400.166C125.05 400.212 124.906 400.114 124.641 400.04C124.497 399.942 124.33 399.724 124.285 399.483C124.216 399.121 124.291 398.857 124.608 398.547L129.821 393.681C130.04 393.515 130.161 393.492 130.403 393.446C130.765 393.377 131.03 393.451 131.197 393.67C131.485 393.865 131.53 394.106 131.576 394.347L135.224 413.52C135.27 413.761 135.195 414.025 135.12 414.289C134.924 414.576 134.803 414.599 134.44 414.668C134.198 414.714 133.934 414.64 133.669 414.565C133.381 414.37 133.358 414.249 133.289 413.888L129.917 396.162V396.162Z" fill="#5D758B"/>
<path d="M646.302 165.474C645.939 165.543 645.674 165.468 645.387 165.273C645.099 165.078 644.932 164.86 644.863 164.498L641.376 146.169C641.307 145.807 641.382 145.543 641.578 145.256C641.774 144.969 641.993 144.802 642.356 144.733L647.434 143.767C648.401 143.583 649.271 143.543 649.944 143.789C650.715 143.893 651.412 144.26 651.866 144.673C652.441 145.064 652.919 145.597 653.275 146.154C653.632 146.711 653.891 147.412 654.005 148.015C654.12 148.618 654.114 149.244 654.085 149.749C653.935 150.277 653.785 150.806 653.612 151.213C653.318 151.644 653.024 152.075 652.609 152.529C652.194 152.982 651.756 153.316 651.319 153.649C651.825 153.677 652.355 153.826 652.884 153.976C653.414 154.125 653.943 154.274 654.375 154.567C654.806 154.859 655.261 155.273 655.594 155.709C655.928 156.145 656.187 156.846 656.347 157.69C656.508 158.534 656.524 159.28 656.299 160.073C656.195 160.842 655.826 161.537 655.434 162.112C655.043 162.686 654.409 163.306 653.729 163.686C653.05 164.065 652.128 164.49 651.161 164.674L646.325 165.594L646.302 165.474ZM648.55 152.926C649.034 152.834 649.494 152.621 650.076 152.386C650.537 152.173 650.974 151.84 651.268 151.409C651.562 150.978 651.856 150.548 652.006 150.019C652.156 149.491 652.162 148.865 652.048 148.262C651.956 147.78 651.766 147.441 651.577 147.102C651.387 146.764 651.076 146.448 650.766 146.132C650.334 145.839 649.925 145.667 649.419 145.639C648.889 145.489 648.285 145.604 647.559 145.743L643.327 146.548L644.681 153.662L648.55 152.926V152.926ZM645.169 155.568L646.683 163.527L650.552 162.791C652.124 162.492 653.264 161.9 653.852 161.038C654.44 160.177 654.619 159.143 654.413 158.058C654.275 157.334 654.062 156.875 653.706 156.318C653.372 155.882 652.918 155.469 652.486 155.176C652.055 154.883 651.404 154.757 650.777 154.751C650.149 154.746 649.522 154.74 648.796 154.878L645.169 155.568Z" fill="#5D758B"/>
<path d="M672.015 159.706C672.061 159.947 671.986 160.211 671.888 160.355C671.79 160.499 671.571 160.665 671.209 160.734L661.294 162.62C661.052 162.666 660.788 162.592 660.523 162.517C660.235 162.322 660.189 162.081 660.143 161.84C660.12 161.719 660.075 161.478 660.052 161.358C660.006 161.116 660.104 160.973 660.058 160.732C660.185 160.083 660.433 159.411 660.681 158.739C660.929 158.067 661.298 157.372 661.69 156.798C662.059 156.103 662.451 155.528 662.843 154.954C663.234 154.38 663.626 153.805 664.018 153.231C664.41 152.657 664.802 152.082 665.217 151.629C665.609 151.054 665.879 150.503 666.294 150.049C666.686 149.475 666.934 148.803 667.182 148.131C667.43 147.459 667.391 146.592 667.253 145.868C667.023 144.663 666.477 143.767 665.735 143.158C664.993 142.55 663.813 142.275 662.604 142.505C661.999 142.62 661.516 142.712 661.055 142.924C660.594 143.137 660.134 143.35 659.817 143.66C659.696 143.683 659.598 143.826 659.5 143.97C659.402 144.113 659.304 144.257 659.183 144.28C659.085 144.424 658.866 144.59 658.745 144.613C658.647 144.757 658.406 144.803 658.285 144.826C658.043 144.872 657.778 144.797 657.634 144.7C657.369 144.625 657.324 144.384 657.278 144.143C657.209 143.781 657.405 143.494 657.82 143.04C659.11 141.92 660.711 141.116 662.524 140.771C663.371 140.61 664.24 140.569 665.034 140.793C665.806 140.896 666.502 141.263 667.077 141.654C667.653 142.044 668.13 142.578 668.51 143.255C668.889 143.933 669.148 144.633 669.285 145.357C669.515 146.563 669.479 147.694 669.277 148.607C669.075 149.52 668.729 150.336 668.141 151.197C667.772 151.892 667.479 152.323 667.087 152.897C666.793 153.328 666.378 153.782 666.084 154.212C665.277 155.24 664.615 156.366 663.952 157.492C663.289 158.618 662.77 159.841 662.395 161.162L670.979 159.528C671.221 159.482 671.486 159.557 671.751 159.632C671.803 159.247 671.97 159.465 672.015 159.706Z" fill="#5D758B"/>
</svg>
