<svg width="233" height="235" viewBox="0 0 233 235" fill="none" xmlns="http://www.w3.org/2000/svg">
<path d="M118.908 212.479L118.869 211.226C122.17 211.148 125.471 210.873 128.733 210.443L128.888 211.696C125.587 212.166 122.247 212.401 118.908 212.479ZM113.898 212.479C110.559 212.401 107.18 212.127 103.879 211.657L104.035 210.403C107.297 210.834 110.597 211.108 113.898 211.226V212.479ZM133.859 210.913L133.626 209.659C136.849 209.033 140.111 208.249 143.256 207.309L143.606 208.523C140.421 209.503 137.159 210.325 133.859 210.913ZM98.9085 210.873C95.6077 210.247 92.3457 209.424 89.1614 208.445L89.5109 207.231C92.6564 208.21 95.8795 208.993 99.1415 209.62L98.9085 210.873ZM148.382 206.957L147.955 205.782C151.062 204.646 154.13 203.353 157.081 201.904L157.625 203.04C154.634 204.489 151.528 205.821 148.382 206.957ZM84.3848 206.839C81.2393 205.703 78.1327 204.372 75.1425 202.883L75.6862 201.748C78.6375 203.197 81.7054 204.528 84.812 205.664L84.3848 206.839ZM162.09 200.69L161.469 199.593C164.343 197.988 167.178 196.225 169.857 194.306L170.595 195.324C167.877 197.283 165.003 199.084 162.09 200.69ZM70.6767 200.533C67.7642 198.888 64.8905 197.087 62.1722 195.128L62.91 194.11C65.5895 196.029 68.4244 197.831 71.298 199.437L70.6767 200.533ZM174.634 192.308L173.857 191.329C176.459 189.293 178.944 187.06 181.313 184.749L182.167 185.65C179.798 188 177.274 190.233 174.634 192.308ZM58.1723 192.113C55.5705 190.037 53.0075 187.765 50.6387 185.415L51.5318 184.514C53.9007 186.825 56.386 189.058 58.9878 191.133L58.1723 192.113ZM185.701 182.008L184.769 181.146C187.021 178.718 189.157 176.133 191.099 173.469L192.109 174.213C190.128 176.916 187.992 179.54 185.701 182.008ZM47.1437 181.773C44.8913 179.305 42.7555 176.681 40.7362 173.978L41.7458 173.234C43.7263 175.898 45.8233 178.483 48.0368 180.95L47.1437 181.773ZM195.021 170.101L193.973 169.396C195.798 166.615 197.506 163.717 199.021 160.779L200.108 161.367C198.594 164.343 196.885 167.281 195.021 170.101ZM37.8625 169.827C36.0373 167.007 34.3287 164.069 32.7753 161.093L33.9015 160.505C35.416 163.443 37.0858 166.341 38.911 169.122L37.8625 169.827ZM202.361 156.823L201.234 156.314C202.594 153.259 203.836 150.126 204.846 146.993L206.011 147.384C204.962 150.557 203.72 153.729 202.361 156.823ZM30.6007 156.549C29.2415 153.494 27.9988 150.322 26.9892 147.11L28.193 146.718C29.2027 149.891 30.4065 153.024 31.7657 156.04L30.6007 156.549ZM207.448 142.528L206.244 142.214C207.098 139.042 207.797 135.752 208.341 132.462L209.584 132.658C209.04 135.987 208.341 139.316 207.448 142.528ZM25.5523 142.253C24.698 139.003 23.999 135.673 23.4553 132.344L24.698 132.148C25.2028 135.438 25.9018 138.728 26.7562 141.94L25.5523 142.253ZM210.244 127.605L209.001 127.488C209.351 124.198 209.506 120.868 209.506 117.5C209.506 116.012 209.467 114.563 209.389 113.074L210.632 112.996C210.71 114.484 210.749 115.973 210.749 117.461C210.749 120.868 210.593 124.276 210.244 127.605ZM22.7952 127.331C22.4457 124.119 22.2903 120.79 22.2903 117.5V117.187H23.533V117.5C23.533 120.751 23.6883 124.002 24.0378 127.174L22.7952 127.331ZM23.7272 112.213L22.4845 112.134C22.6787 108.766 23.0282 105.398 23.5718 102.068L24.8145 102.264C24.232 105.554 23.8825 108.923 23.7272 112.213ZM209.04 108.1C208.69 104.771 208.186 101.442 207.525 98.23L208.729 97.9558C209.389 101.246 209.933 104.614 210.244 107.943L209.04 108.1ZM25.7077 97.3683L24.5038 97.0942C25.2028 93.8042 26.1348 90.5142 27.1833 87.3417L28.3483 87.7333C27.2998 90.8667 26.4067 94.1175 25.7077 97.3683ZM206.399 93.3733C205.545 90.1617 204.535 86.95 203.331 83.8558L204.496 83.3858C205.7 86.5192 206.749 89.77 207.603 93.0208L206.399 93.3733ZM30.057 83.0333L28.892 82.5633C30.1347 79.43 31.5327 76.3358 33.086 73.3592L34.1733 73.9467C32.6588 76.8842 31.2608 79.9392 30.057 83.0333ZM201.467 79.2733C200.108 76.2575 198.594 73.2417 196.963 70.3825L198.05 69.7558C199.72 72.6542 201.273 75.7092 202.632 78.7642L201.467 79.2733ZM36.581 69.56L35.4937 68.9333C37.2023 66.0742 39.0663 63.2542 41.0857 60.5125L42.0953 61.2567C40.1148 63.9592 38.2897 66.74 36.581 69.56ZM194.322 66.1133C192.497 63.3325 190.516 60.63 188.458 58.045L189.429 57.2617C191.526 59.8467 193.545 62.5883 195.371 65.4083L194.322 66.1133ZM45.202 57.34L44.2312 56.5175C46.367 53.9325 48.6582 51.465 51.0658 49.115L51.9202 50.0158C49.5902 52.3658 47.299 54.8333 45.202 57.34ZM185.196 54.285C182.983 51.8567 180.614 49.4675 178.129 47.2742L178.944 46.3342C181.468 48.5667 183.876 50.9558 186.089 53.4625L185.196 54.285ZM55.6093 46.6475L54.7938 45.7075C57.318 43.5142 59.9587 41.3992 62.7158 39.48L63.4148 40.4983C60.6965 42.4175 58.0947 44.4933 55.6093 46.6475ZM174.362 44.0625C171.799 41.9867 169.08 40.0675 166.284 38.2658L166.945 37.2083C169.779 39.01 172.537 41.0075 175.138 43.0833L174.362 44.0625ZM67.57 37.7958L66.9099 36.7383C69.7447 34.9758 72.696 33.3308 75.725 31.8425L76.2687 32.9783C73.2785 34.3883 70.366 36.0333 67.57 37.7958ZM162.013 35.6808C159.139 34.0358 156.149 32.5475 153.12 31.255L153.625 30.1192C156.693 31.4508 159.722 32.9392 162.634 34.5842L162.013 35.6808ZM80.7345 30.9025L80.2685 29.7275C83.3752 28.435 86.5595 27.2992 89.7439 26.32L90.0934 27.5342C86.9479 28.5133 83.8024 29.6492 80.7345 30.9025ZM148.538 29.4142C145.47 28.2783 142.247 27.2992 139.062 26.4767L139.373 25.2625C142.635 26.085 145.858 27.0642 148.965 28.2392L148.538 29.4142ZM94.8699 26.2808L94.5592 25.0667C97.7824 24.2833 101.083 23.6958 104.423 23.265L104.578 24.5183C101.316 24.91 98.0542 25.5367 94.8699 26.2808ZM134.208 25.4192C130.985 24.7925 127.684 24.3225 124.383 24.0483L124.5 22.795C127.839 23.0692 131.179 23.5392 134.441 24.1658L134.208 25.4192ZM109.549 23.97L109.471 22.7167C112.772 22.4817 116.189 22.4033 119.49 22.4817L119.451 23.735C116.151 23.6567 112.811 23.735 109.549 23.97Z" fill="#5D758B"/>
<path d="M116.539 196.538C73.3173 196.538 38.1732 161.093 38.1732 117.5C38.1732 73.9075 73.3562 38.4617 116.539 38.4617C159.76 38.4617 194.904 73.9075 194.904 117.5C194.904 161.093 159.76 196.538 116.539 196.538ZM116.539 39.715C74.0163 39.715 39.4158 74.6125 39.4158 117.5C39.4158 160.388 74.0163 195.285 116.539 195.285C159.061 195.285 193.662 160.388 193.662 117.5C193.662 74.6125 159.061 39.715 116.539 39.715Z" fill="#5D758B"/>
<path d="M117.16 107.395H115.917V127.566H117.16V107.395Z" fill="#5D758B"/>
<path d="M126.519 116.873H106.52V118.127H126.519V116.873Z" fill="#5D758B"/>
<path d="M117.354 13.0034H116.112V33.1742H117.354V13.0034Z" fill="#5D758B"/>
<path d="M117.354 201.826H116.112V221.997H117.354V201.826Z" fill="#5D758B"/>
<path d="M220.069 116.873H200.069V118.127H220.069V116.873Z" fill="#5D758B"/>
<path d="M32.9307 116.873H12.9315V118.127H32.9307V116.873Z" fill="#5D758B"/>
<path d="M101.355 170.101C100.889 170.101 100.501 169.944 100.19 169.631C99.8793 169.317 99.724 168.926 99.724 168.456V143.389C99.724 142.919 99.8793 142.488 100.19 142.175C100.501 141.862 100.889 141.705 101.355 141.705H108.267C109.549 141.705 110.675 141.901 111.607 142.293C112.578 142.684 113.354 143.233 113.976 143.898C114.597 144.564 115.063 145.348 115.413 146.209C115.723 147.071 115.879 147.972 115.879 148.873C115.879 149.734 115.762 150.478 115.49 151.144C115.218 151.81 114.869 152.398 114.442 152.907C113.976 153.416 113.471 153.886 112.85 154.317C112.228 154.748 111.568 155.1 110.869 155.453C111.529 155.688 112.228 155.962 112.888 156.275C113.587 156.588 114.209 156.98 114.752 157.489C115.296 157.998 115.762 158.625 116.112 159.369C116.461 160.113 116.655 161.014 116.655 162.111C116.655 163.207 116.461 164.265 116.073 165.205C115.684 166.184 115.102 167.007 114.364 167.712C113.626 168.417 112.733 168.965 111.685 169.396C110.636 169.787 109.432 169.983 108.112 169.983H101.355V170.101ZM107.374 154.003C108.073 154.003 108.772 153.886 109.432 153.69C110.131 153.494 110.753 153.181 111.296 152.75C111.84 152.319 112.306 151.771 112.694 151.144C113.044 150.518 113.238 149.734 113.238 148.833C113.238 148.246 113.16 147.658 112.966 147.10C112.811 146.562 112.5 146.053 112.073 145.622C111.646 145.191 111.141 144.838 110.442 144.603C109.782 144.329 108.966 144.212 107.995 144.212H102.287V153.964H107.374V154.003ZM102.326 156.628V167.516H107.646C109.782 167.516 111.413 167.046 112.422 166.027C113.471 165.048 113.976 163.795 113.976 162.228C113.976 161.328 113.82 160.505 113.471 159.8C113.121 159.095 112.694 158.508 112.112 158.038C111.529 157.568 110.869 157.215 110.054 156.98C109.238 156.745 108.384 156.628 107.452 156.628H102.326V156.628Z" fill="#5D758B"/>
<path d="M127.568 153.612C128.81 153.651 129.898 153.847 130.946 154.199C131.956 154.552 132.849 155.061 133.626 155.727C134.402 156.393 134.985 157.176 135.412 158.155C135.839 159.095 136.033 160.192 136.033 161.406C136.033 162.424 135.878 163.482 135.567 164.539C135.257 165.597 134.752 166.576 134.092 167.437C133.431 168.299 132.577 169.043 131.49 169.592C130.441 170.14 129.16 170.453 127.684 170.453C127.296 170.453 126.674 170.414 125.898 170.336C125.082 170.257 124.306 170.14 123.49 169.944C122.674 169.748 121.975 169.474 121.393 169.122C120.81 168.769 120.5 168.299 120.5 167.712C120.5 167.359 120.616 167.046 120.849 166.811C121.082 166.537 121.354 166.419 121.704 166.419C121.859 166.419 122.092 166.497 122.441 166.654C123.14 167.007 123.878 167.32 124.616 167.633C125.393 167.947 126.364 168.064 127.568 168.064C128.694 168.064 129.626 167.868 130.364 167.477C131.101 167.085 131.723 166.576 132.15 165.949C132.616 165.322 132.927 164.617 133.121 163.873C133.315 163.09 133.393 162.307 133.393 161.523C133.393 159.526 132.849 158.077 131.723 157.176C130.635 156.314 129.237 155.883 127.568 155.883C127.063 155.883 126.558 156.001 126.092 156.197C125.82 156.314 125.626 156.392 125.509 156.392C125.393 156.392 125.276 156.392 125.121 156.392C124.888 156.392 124.694 156.314 124.539 156.197C124.344 156.079 124.228 155.883 124.15 155.727C124.073 155.531 124.034 155.335 124.034 155.1C124.034 154.865 124.15 154.669 124.306 154.434L131.995 144.368H122.247C121.859 144.368 121.587 144.251 121.315 144.016C121.082 143.781 120.966 143.468 120.966 143.115C120.966 142.723 121.082 142.41 121.315 142.136C121.548 141.862 121.859 141.705 122.247 141.705H133.664C134.053 141.705 134.402 141.862 134.674 142.136C134.946 142.41 135.062 142.802 135.062 143.272C135.062 143.663 134.946 144.016 134.752 144.251L127.568 153.612Z" fill="#5D758B"/>
</svg>
