<svg width="567" height="624" viewBox="0 0 567 624" fill="none" xmlns="http://www.w3.org/2000/svg">
<path d="M384.459 369.006C384.459 369.006 384.514 367.679 384.569 365.55C384.542 364.832 384.569 364.03 384.597 363.173C384.652 361.625 384.735 359.883 384.459 358.169C384.182 355.515 384.016 352.86 383.906 350.842C383.795 348.879 383.712 347.773 383.546 347.193C383.353 346.197 382.44 341.497 381.694 336.742C380.367 332.318 379.206 327.784 378.929 326.706C378.929 326.264 378.625 325.49 377.685 323.167C376.939 321.315 375.971 318.827 375.114 316.366C374.589 314.624 373.787 313.076 373.04 311.694C372.626 310.947 372.266 310.228 371.962 309.482C371.105 307.768 370.442 306.551 370.442 306.551C370.414 306.496 369.861 305.279 368.949 303.344L367.373 300.883C366.626 299.722 365.797 298.478 365.023 297.234C363.364 294.331 362.009 292.285 360.876 291.041C359.631 289.41 358.747 288.387 358.747 288.387C357.171 286.396 347.301 274.37 344.232 272.545C343.983 272.324 343.071 271.522 341.716 270.361C341.135 269.918 340.555 269.366 339.947 268.785C338.813 267.734 337.569 266.518 336.021 265.605C331.652 262.647 327.339 259.412 327.146 259.302C327.091 259.302 322.363 256.758 317.884 254.104C316.391 253.137 314.76 252.501 313.35 251.948C312.52 251.616 311.746 251.339 311.027 250.952C309.7 250.399 308.705 249.957 308.235 249.764C305.857 247.745 287.5 243.184 287.334 243.184H287.251C286.808 243.101 285.73 242.852 284.32 242.548C282.274 241.912 279.51 241.608 276.883 241.414C275.694 241.276 274.533 241.11 273.427 240.972C272.017 240.778 270.69 240.612 269.446 240.474H266.101C266.101 240.474 264.746 240.474 262.728 240.419H262.368C261.815 240.419 261.207 240.419 260.543 240.363C258.802 240.281 256.728 240.253 255.29 240.474C252.692 240.751 250.065 240.916 248.075 241.027C245.531 241.193 244.702 241.248 244.287 241.414C243.153 241.635 238.592 242.548 233.891 243.239C229.357 244.594 224.74 245.782 223.773 246.031C223.358 246.031 222.805 246.252 220.261 247.248C218.409 247.966 215.948 248.962 213.515 249.791C211.691 250.344 210.06 251.229 208.622 252.003C207.958 252.362 207.322 252.722 206.714 252.998L203.728 254.464C203.728 254.464 202.512 255.017 200.576 255.957C198.89 257.062 196.651 258.472 194.439 259.855C191.702 261.431 189.6 262.841 188.19 264.002C186.67 265.246 185.647 266.075 185.647 266.075C182.385 268.038 169.999 279.789 169.612 280.784C169.28 281.199 168.561 282.056 167.566 283.162C167.123 283.77 166.515 284.406 165.907 285.069C164.884 286.175 163.723 287.419 162.838 288.885C159.824 293.253 156.673 297.621 156.562 297.759C156.562 297.815 154.018 302.515 151.364 306.993C150.314 308.569 149.65 310.256 149.097 311.721C148.793 312.495 148.544 313.186 148.212 313.85L146.858 316.919L146.968 316.974C144.397 320.624 140.471 337.129 140.444 337.295V337.654C140.305 338.152 140.029 339.23 139.725 340.64C139.227 342.327 138.868 344.677 138.591 348.16C138.259 350.759 137.928 353.33 137.651 355.432V358.777C137.651 358.777 137.651 360.132 137.596 362.178C137.624 362.896 137.596 363.698 137.541 364.583C137.458 366.131 137.375 367.9 137.651 369.587C137.9 371.992 138.066 374.425 138.177 376.333C138.342 378.766 138.425 380.01 138.647 380.618C138.868 381.835 139.752 386.424 140.416 391.069C141.743 395.327 142.904 399.75 143.208 400.967C143.236 401.658 143.734 402.874 144.701 405.307C145.392 407.049 146.277 409.233 147.024 411.362C147.521 413.131 148.378 414.735 149.125 416.117C149.512 416.836 149.871 417.5 150.148 418.163C151.033 420.016 151.641 421.177 151.641 421.177L153.134 424.301L157.06 430.466C158.414 432.761 159.824 435.139 161.234 436.659C162.423 438.18 163.253 439.258 163.253 439.258H163.28C164.856 441.221 174.699 453.137 177.823 455.1L180.366 457.257C180.892 457.671 181.445 458.197 182.025 458.75C183.186 459.855 184.486 461.1 186.062 462.012C190.43 464.97 194.743 468.15 194.936 468.26C194.992 468.26 199.692 470.804 204.198 473.458C205.719 474.509 207.378 475.144 208.843 475.725C209.645 476.029 210.364 476.333 211.055 476.665L213.847 477.909C216.28 479.817 234.583 484.434 234.749 484.434H234.776C235.219 484.517 236.324 484.766 237.762 485.07C239.753 485.706 242.517 485.982 245.144 486.203C247.826 486.535 250.48 486.867 252.553 487.143H255.843C255.843 487.143 257.198 487.143 259.327 487.199H259.686C260.239 487.199 260.848 487.199 261.511 487.254C262.285 487.282 263.087 487.337 263.916 487.337C264.995 487.337 265.935 487.254 266.736 487.143C269.169 486.895 271.658 486.729 273.593 486.618C275.943 486.48 277.132 486.397 277.74 486.176C278.901 485.955 283.435 485.125 288.163 484.379C292.587 483.052 297.176 481.863 298.227 481.586C298.697 481.586 299.443 481.31 302.567 480.038C304.282 479.347 306.383 478.49 308.429 477.743C310.226 477.273 311.802 476.416 313.156 475.67C313.903 475.283 314.594 474.896 315.313 474.591C317.027 473.734 318.216 473.181 318.299 473.154C318.299 473.154 319.488 472.518 321.423 471.633C323.054 470.583 325.376 469.117 327.533 467.707C329.828 466.325 332.205 464.915 333.726 463.533C335.329 462.316 336.38 461.487 336.38 461.487C339.698 459.579 351.945 447.857 352.36 446.806L354.378 444.373C354.793 443.848 355.318 443.295 355.899 442.686C357.005 441.553 358.249 440.253 359.161 438.705C362.12 434.282 365.327 430.024 365.465 429.83C365.465 429.775 368.009 425.02 370.635 420.513C371.741 418.937 372.404 417.223 372.985 415.675C373.262 414.956 373.51 414.293 373.814 413.684C374.644 411.86 375.197 410.616 375.197 410.616L375.086 410.56C377.657 406.883 381.611 390.267 381.611 390.074V389.908C381.722 389.438 381.998 388.36 382.302 386.95C382.883 384.876 383.159 382.167 383.436 379.568C383.768 376.941 384.099 374.232 384.32 372.131V368.841L384.459 369.006ZM382.385 363.09C382.357 364.03 382.302 364.887 382.358 365.606C382.302 367.624 382.247 368.923 382.247 368.979V372.186C382.026 374.149 381.722 376.831 381.39 379.485C381.113 382.028 380.865 384.627 380.312 386.59C379.869 388.498 379.565 389.797 379.565 389.797L379.261 391.014H379.399C378.597 394.608 375.142 406.192 373.897 409.012L373.732 408.957L373.317 409.869C373.317 409.869 372.764 411.141 371.962 412.91C371.658 413.546 371.382 414.265 371.077 415.039C370.524 416.449 369.916 418.053 368.921 419.463C366.239 424.025 363.723 428.78 363.723 428.78C363.723 428.78 360.406 433.148 357.42 437.655C356.59 439.009 355.457 440.226 354.434 441.276C353.798 441.94 353.245 442.548 352.803 443.074L349.9 446.474L350.038 446.585C347.937 449.018 338.924 457.091 336.131 459.22L336.076 459.109L335.164 459.828C335.164 459.828 334.113 460.657 332.482 461.901C331.072 463.201 328.777 464.556 326.538 465.91C324.353 467.32 322.059 468.813 320.566 469.781C318.713 470.61 317.469 471.274 317.469 471.274C317.414 471.301 316.197 471.854 314.539 472.684C313.82 472.988 313.073 473.375 312.244 473.817C310.917 474.536 309.535 475.283 307.876 475.725C305.719 476.527 303.59 477.384 301.876 478.075C300.798 478.517 299.692 478.96 299.029 479.209L298.033 479.457C298.033 479.457 292.697 480.812 287.776 482.305C282.44 483.134 277.16 484.13 277.16 484.13L276.247 484.296C275.584 484.351 274.533 484.434 273.538 484.489C271.575 484.627 269.087 484.766 266.543 485.042C265.161 485.263 263.308 485.236 261.705 485.153C261.013 485.125 260.378 485.097 259.769 485.097H259.382C257.392 485.097 256.037 485.042 255.982 485.042H252.802C250.867 484.793 248.185 484.462 245.448 484.13C243.015 483.909 240.278 483.66 238.398 483.052C236.407 482.609 235.108 482.333 235.108 482.333L233.947 482.084V482.139C230.353 481.337 218.851 477.881 215.948 476.637L216.004 476.499L212.105 474.757C211.414 474.398 210.612 474.066 209.728 473.734C208.318 473.181 206.852 472.601 205.47 471.661C200.908 468.979 196.208 466.463 196.181 466.463C196.181 466.463 191.757 463.228 187.306 460.215C185.896 459.385 184.735 458.28 183.629 457.229C182.993 456.621 182.385 456.068 181.832 455.625L178.569 452.861L178.459 452.971C176.109 450.925 167.98 441.857 165.713 438.982H165.769L165.077 438.014C165.077 438.014 164.248 436.908 162.976 435.305C161.677 433.867 160.267 431.489 158.995 429.36L155.124 423.278L153.687 420.209C153.687 420.209 153.078 419.076 152.249 417.279C151.973 416.615 151.558 415.869 151.143 415.094C150.452 413.795 149.65 412.33 149.208 410.699C148.406 408.459 147.521 406.275 146.83 404.506C146.415 403.483 146.001 402.404 145.752 401.713L145.503 400.773C145.503 400.718 144.148 395.465 142.628 390.571C141.605 383.411 141.135 380.646 140.692 379.568C140.609 379.098 140.527 377.632 140.416 376.195C140.278 374.259 140.139 371.771 139.863 369.255C139.614 367.735 139.697 366.103 139.78 364.666C139.835 363.698 139.863 362.813 139.835 362.122C139.891 360.132 139.891 358.749 139.891 358.749V355.542C140.139 353.579 140.471 351.008 140.831 348.243C141.107 345.036 141.439 342.741 141.909 341.166C142.351 339.203 142.655 337.903 142.655 337.903L142.932 336.797H142.794C143.54 333.397 146.996 321.757 148.295 318.744L148.434 318.799L150.231 314.79C150.563 314.127 150.867 313.352 151.198 312.523C151.724 311.141 152.332 309.592 153.272 308.182C155.981 303.648 158.497 298.948 158.47 298.948C158.47 298.948 161.677 294.525 164.718 290.101C165.52 288.774 166.543 287.668 167.538 286.59C168.229 285.843 168.865 285.152 169.307 284.572C170.634 283.079 171.519 282.028 171.519 282.028L172.21 281.226L172.1 281.143C174.284 278.71 183.408 270.554 186.117 268.453L186.172 268.536L187.029 267.873C187.029 267.873 188.08 267.043 189.628 265.771C190.928 264.665 192.918 263.338 195.6 261.818C197.839 260.408 200.106 258.97 201.682 257.947C203.479 257.09 204.668 256.537 204.696 256.51L207.682 255.044C208.318 254.768 208.981 254.408 209.7 253.994C211.055 253.275 212.575 252.445 214.234 251.948C216.75 251.063 219.238 250.095 221.118 249.349C221.975 249.017 222.86 248.658 223.385 248.464L224.16 248.271C224.16 248.271 229.44 246.944 234.417 245.451C239.697 244.704 245.006 243.598 245.061 243.571L245.642 243.46C246.222 243.405 247.273 243.349 248.296 243.266C250.314 243.156 252.968 242.99 255.65 242.686C257.032 242.465 258.885 242.492 260.488 242.575C261.179 242.603 261.815 242.631 262.424 242.631H262.783C264.774 242.686 266.156 242.686 266.156 242.686H269.363C270.469 242.796 271.768 242.962 273.151 243.156C274.257 243.294 275.445 243.46 276.689 243.598C279.233 243.792 281.86 244.068 283.767 244.676C285.703 245.119 287.03 245.395 287.03 245.395L288.053 245.616V245.534C291.453 246.28 303.259 249.791 306.162 251.091L306.106 251.257L307.074 251.671C307.074 251.671 308.318 252.224 310.06 252.971C310.779 253.33 311.636 253.662 312.52 254.021C313.903 254.574 315.34 255.127 316.695 256.012C321.202 258.694 325.929 261.21 325.957 261.21C326.04 261.265 330.381 264.5 334.804 267.513C336.187 268.343 337.348 269.448 338.398 270.444C339.089 271.107 339.725 271.716 340.306 272.13C341.827 273.43 342.822 274.314 342.822 274.314L343.596 275.006L343.734 274.867C346.167 276.969 354.461 286.23 356.48 288.912L356.341 289.05L357.088 289.907C357.088 289.907 357.945 290.875 359.161 292.479C360.24 293.695 361.511 295.603 363.115 298.423C363.917 299.695 364.746 300.966 365.493 302.128L366.986 304.45C367.843 306.302 368.396 307.491 368.423 307.574C368.423 307.574 369.087 308.763 369.916 310.422C370.22 311.141 370.635 311.915 371.05 312.744C371.713 314.016 372.487 315.454 372.957 317.057C373.842 319.601 374.837 322.117 375.584 323.997C375.943 324.881 376.303 325.821 376.496 326.374L376.662 327.01C376.662 327.01 377.989 332.291 379.482 337.267C380.284 342.493 381.335 347.801 381.362 347.856L381.473 348.437C381.528 349.017 381.583 350.04 381.639 351.036C381.749 353.054 381.915 355.763 382.219 358.5C382.468 360.076 382.413 361.625 382.358 363.118L382.385 363.09Z" fill="#5D758B"/>
<path d="M223.939 218.606C225.405 218.606 226.898 218.44 228.335 218.108C233.533 216.947 237.957 213.851 240.832 209.344C243.68 204.838 244.592 199.502 243.431 194.332C241.385 185.319 233.174 178.766 223.967 178.766C222.529 178.766 221.064 178.932 219.626 179.236C208.927 181.669 202.153 192.341 204.559 203.041C206.632 212.219 214.595 218.634 223.939 218.634V218.606ZM220.124 181.393C221.396 181.116 222.695 180.978 223.967 180.978C232.178 180.978 239.45 186.784 241.274 194.802C242.325 199.419 241.495 204.146 238.98 208.155C236.436 212.164 232.51 214.929 227.865 215.952C226.566 216.256 225.266 216.394 223.939 216.394C215.645 216.394 208.567 210.699 206.715 202.543C204.586 193.032 210.613 183.549 220.124 181.393Z" fill="#5D758B"/>
<path d="M504.063 343.549C503.897 341.641 502.597 340.148 501.077 340.065C501.077 340.065 496.294 339.734 491.483 339.457C489.99 339.374 488.525 339.291 487.142 339.181C487.004 337.577 486.866 336.222 486.755 335.282C486.645 334.149 486.534 333.458 486.534 333.458C486.534 333.458 486.175 331.301 485.567 327.928C486.092 327.762 486.645 327.569 487.225 327.375C488.027 327.099 488.857 326.822 489.714 326.574C494.248 324.97 498.865 323.394 498.893 323.394C500.33 322.841 501.187 320.989 500.8 319.219L499.252 310.345C498.063 306.087 496.957 301.774 496.957 301.719C496.432 300.032 495.05 298.788 493.64 298.788L483.714 299.894C482.221 300.087 480.756 300.253 479.401 300.392L477.438 293.259C477.107 292.346 476.637 291.13 476.056 289.554C477.024 289.029 478.102 288.448 479.18 287.867L479.899 287.48C484.046 285.13 488.248 282.78 488.221 282.78C489.741 282.034 490.045 279.933 489.465 278.329L486.313 270.007C484.765 265.722 482.719 261.824 482.636 261.685C481.862 260.054 479.899 259.059 478.599 259.446C478.599 259.446 473.927 260.745 469.172 262.155C467.789 262.57 466.352 263.012 465.108 263.427L462.592 258.368C462.592 258.368 461.569 256.349 459.993 253.225C461.071 252.396 462.232 251.484 463.366 250.516C467.07 247.558 470.803 244.489 470.803 244.489C472.019 243.521 472.185 241.503 471.162 239.844L461.624 224.638C460.546 223.2 458.749 222.481 457.256 223.145C457.256 223.145 452.86 225.274 448.464 227.486L447.828 227.79C446.722 228.343 445.616 228.896 444.593 229.449C442.464 226.767 441.054 224.97 441.054 224.97C441.054 224.97 439.727 223.2 437.598 220.436C438.483 219.44 439.479 218.362 440.584 217.146C443.764 213.413 446.888 209.819 446.888 209.791C447.966 208.547 447.8 206.391 446.529 205.147L434.281 192.014C432.981 190.742 431.046 190.3 429.719 191.185C429.719 191.185 425.821 194.032 421.978 196.88C420.872 197.682 419.849 198.456 418.854 199.202L418.467 199.507C415.895 197.267 414.237 195.774 414.209 195.747C414.209 195.747 412.522 194.254 409.924 192.014C410.532 191.019 411.195 189.968 411.859 188.89L417.167 179.96C417.969 178.633 417.444 176.698 416.006 175.481L413.96 173.712C412.744 172.55 410.947 171.251 409.011 169.813C405.362 167.297 401.768 164.671 401.74 164.671C400.275 163.648 398.173 163.62 397.123 164.699L390.432 171.721C389.769 172.412 389.077 173.159 388.414 173.85C388.082 174.209 387.75 174.541 387.446 174.873C384.654 172.965 382.802 171.693 382.719 171.638L377.853 168.818C378.378 167.574 378.931 166.164 379.456 164.754C381.198 160.275 382.912 155.796 382.912 155.796C383.52 154.359 382.636 152.478 380.949 151.566C380.949 151.566 377.106 149.382 373.18 147.198C371.3 146.092 369.254 145.069 367.651 144.405C366.103 143.687 365.08 143.244 365.08 143.244C363.421 142.498 361.347 142.885 360.518 144.129C360.518 144.129 357.891 148.166 355.127 152.147C354.352 153.419 353.523 154.69 352.777 155.796C349.625 154.469 347.579 153.584 347.579 153.584C347.579 153.584 345.505 152.672 342.326 151.317L342.436 150.709C342.658 149.576 342.906 148.359 343.238 147.004L344.98 137.604C345.312 136.084 344.178 134.452 342.326 133.789L325.267 128.287C323.581 127.789 321.59 128.564 320.872 130.001C320.872 130.001 318.881 134.397 316.973 138.904C316.669 139.65 316.337 140.397 316.033 141.115C315.757 141.751 315.508 142.36 315.259 142.94C311.886 142.138 309.702 141.696 309.674 141.696C309.674 141.696 307.435 141.254 304.117 140.535C304.173 139.153 304.2 137.577 304.256 136.056C304.366 131.218 304.421 126.407 304.421 126.379C304.421 124.859 303.011 123.366 301.076 122.979L283.327 120.905C281.419 120.656 279.649 121.707 279.318 123.172L277.023 132.517C276.719 134.038 276.359 135.475 276.028 136.775C272.599 136.664 270.36 136.554 270.305 136.554C270.305 136.554 268.065 136.554 264.637 136.471L264.582 135.973C264.416 134.757 264.25 133.43 264.001 132.13L262.48 122.647C262.315 121.126 260.683 119.91 258.803 119.91C258.803 119.91 257.67 119.855 255.983 119.855C254.407 119.855 252.057 119.91 249.735 120.131L240.777 120.795C238.897 120.961 237.321 122.288 237.238 123.808C237.238 123.808 236.962 128.619 236.575 133.43C236.52 134.922 236.464 136.388 236.381 137.715C235.331 137.798 234.418 137.908 233.617 137.991L232.345 138.13C231.377 138.295 230.797 138.351 230.658 138.351C230.658 138.351 228.502 138.765 225.157 139.374C224.852 138.489 224.548 137.521 224.217 136.554L223.747 135.171C222.171 130.637 220.622 126.02 220.595 125.937C219.987 124.582 218.3 123.781 216.448 124.085C216.448 124.085 212.052 124.859 207.573 125.688L198.919 127.983C197.122 128.453 195.85 130.029 196.016 131.522L197.012 141.198C197.233 142.691 197.399 144.184 197.565 145.484L192.09 147.004L188.966 148.055C188.33 148.276 187.584 148.553 186.727 148.857C186.091 147.64 185.372 146.341 184.653 144.986C182.303 140.839 180.009 136.609 179.981 136.581C179.234 135.31 177.354 134.757 175.502 135.42C175.502 135.42 171.327 137.051 167.18 138.6C162.95 140.148 159.052 142.194 158.886 142.277C157.227 143.106 156.232 144.903 156.674 146.368C156.674 146.368 157.974 151.041 159.356 155.63C159.743 157.096 160.185 158.533 160.6 159.833C157.531 161.353 155.541 162.349 155.513 162.349C155.513 162.349 153.578 163.372 150.454 164.975C149.596 163.897 148.684 162.708 147.744 161.547L141.689 154.082C140.694 152.921 138.538 152.81 137.072 153.75L121.811 163.344C120.346 164.45 119.71 166.385 120.373 167.74C120.373 167.74 122.502 172.053 124.659 176.449C125.073 177.278 125.516 178.108 125.903 178.909C126.152 179.407 126.4 179.877 126.649 180.347C123.912 182.421 122.115 183.831 122.115 183.831C122.115 183.831 120.29 185.213 117.581 187.286C117.194 186.955 116.807 186.595 116.42 186.264C115.729 185.655 115.01 185.019 114.291 184.383C110.614 181.204 107.02 178.025 106.964 177.969C105.748 177.029 103.453 177.25 102.292 178.412L89.1595 190.659C87.8047 192.014 87.473 193.977 88.3853 195.221C88.3853 195.221 91.1777 199.064 94.053 202.907L94.5783 203.598C95.3248 204.594 96.0436 205.534 96.6795 206.418L92.8919 210.731C92.8919 210.731 91.4542 212.418 89.1595 214.961C87.9983 214.27 86.7265 213.524 85.4547 212.694C81.28 210.178 77.1052 207.69 77.0776 207.69C75.7782 206.971 73.7599 207.524 72.654 208.824C72.654 208.824 71.8799 209.653 70.774 210.925C69.7234 212.141 68.3134 213.938 66.9587 215.901C64.3875 219.551 61.8439 223.173 61.8439 223.173C60.738 224.666 60.738 226.712 61.8439 227.817C61.8439 227.817 65.3551 231.107 68.8111 234.453C69.9169 235.476 71.0228 236.526 71.9905 237.466L68.7005 242.139L65.9357 247.005C65.5487 246.839 65.134 246.701 64.7192 246.535C63.8069 246.175 62.8392 245.788 61.8163 245.373L52.8586 242C51.4485 241.42 49.5685 242.277 48.6285 243.908L44.3155 251.677C43.0161 253.944 42.0485 255.824 41.4679 257.234C40.749 258.782 40.3343 259.75 40.3343 259.75C39.5602 261.437 39.9749 263.455 41.2743 264.312L52.9415 272.108C51.5868 275.233 50.7021 277.306 50.7021 277.306C50.7021 277.306 49.7897 279.38 48.435 282.504C47.965 282.421 47.495 282.31 46.9973 282.227C46.085 282.061 45.145 281.868 44.1773 281.647C39.3943 280.707 34.7496 279.85 34.7219 279.85H34.2796C32.8419 279.822 31.4319 280.956 30.9619 282.504L25.4601 299.59C24.9348 301.387 25.7089 303.35 27.1189 303.986L36.0213 307.939L37.0167 308.354C38.0672 308.796 39.1455 309.239 40.0855 309.653C39.339 312.999 38.8967 315.183 38.8967 315.183C38.8967 315.183 38.3714 317.478 37.7078 320.768L23.5248 320.519C21.9489 320.519 20.4836 321.929 20.1794 323.781L18.0506 341.531C17.8294 343.411 18.7971 345.153 20.373 345.595C20.373 345.595 25.0177 346.701 29.7178 347.89C31.1831 348.194 32.6207 348.498 33.9202 348.83C33.8096 352.258 33.7543 354.58 33.7543 354.58C33.7543 354.58 33.699 356.764 33.6437 360.22C32.676 360.359 31.6254 360.497 30.6025 360.663L19.7647 362.377C18.2441 362.653 17.0553 364.312 17.0553 366.109C17.0553 366.303 16.8341 370.671 17.2765 375.205C17.6635 379.629 17.9953 384.025 17.9953 384.025C18.0782 385.877 19.433 387.536 20.9536 387.619L30.6025 388.282C31.4319 388.338 32.289 388.365 33.1184 388.421C33.7266 388.448 34.3349 388.476 34.9155 388.504L35.026 389.72C35.109 390.798 35.1919 391.711 35.2749 392.512C35.4408 393.563 35.5513 394.171 35.5513 394.171C35.5513 394.199 35.9108 396.411 36.519 399.728C35.8002 399.977 35.026 400.226 34.2243 400.475L23.193 404.29C21.7553 404.815 20.8983 406.585 21.23 408.437C21.23 408.437 22.0595 412.806 22.8336 417.34L25.156 425.966C25.6536 427.68 27.0083 428.869 28.446 428.869L38.3437 427.873L39.5326 427.735C40.6384 427.597 41.7167 427.486 42.7396 427.348C43.6244 430.61 44.2326 432.767 44.2326 432.794C44.2326 432.794 44.3985 433.347 44.7026 434.536C44.8961 435.034 45.1173 435.67 45.3938 436.416L46.0573 438.213C44.8961 438.822 43.5691 439.54 42.242 440.259L33.7819 444.987C32.4825 445.761 31.9848 447.724 32.6484 449.438L35.8278 457.732C37.3208 461.935 39.422 465.888 39.4773 465.999C40.2514 467.63 42.1038 468.653 43.5138 468.238C43.5138 468.238 48.1585 466.856 52.8586 465.557C54.2962 465.114 55.7339 464.672 57.0333 464.285C58.5263 467.354 59.5216 469.317 59.5216 469.317C59.5216 469.317 60.5445 471.39 62.0928 474.431L51.2827 483.196C50.0662 484.136 49.8726 486.181 50.868 487.785L60.4616 503.046C61.5398 504.484 63.5304 505.203 64.8575 504.512C64.8575 504.512 69.2258 502.327 73.594 500.226C74.7276 499.618 75.8888 499.037 76.967 498.512L77.4923 498.236C79.6211 500.973 80.9482 502.742 80.9759 502.77C80.9759 502.77 82.3582 504.484 84.4594 507.193C83.9341 507.802 83.3535 508.465 82.7453 509.156L81.5012 510.566C78.3217 514.188 75.1423 517.865 75.1423 517.865C74.1193 519.082 74.3129 521.238 75.557 522.565L87.7771 535.615C89.0489 536.97 91.2054 537.274 92.2836 536.389C92.2836 536.389 96.1819 533.597 100.08 530.749C100.799 530.224 101.49 529.671 102.181 529.145C102.651 528.786 103.121 528.427 103.564 528.095C106.135 530.417 107.849 531.855 107.849 531.855L112.107 535.615C111.388 536.776 110.614 538.048 109.812 539.32C107.351 543.494 104.891 547.586 104.863 547.614C104.117 548.941 104.587 550.876 105.997 552.148C105.997 552.148 106.881 552.867 108.098 553.917C109.259 554.996 110.946 556.267 113.019 557.733C116.696 560.359 120.318 562.93 120.346 562.958C121.922 563.981 123.94 563.926 124.907 562.847C124.907 562.847 128.253 559.392 131.57 555.936L133.091 554.304C133.616 553.752 134.086 553.226 134.556 552.729C137.321 554.719 139.146 555.991 139.229 556.046C139.229 556.046 141.164 557.152 144.122 558.783C143.791 559.64 143.459 560.525 143.099 561.41L142.546 562.847C140.805 567.326 139.118 571.86 139.118 571.86C138.51 573.27 139.339 575.095 141.026 576.063C141.026 576.063 144.924 578.247 148.795 580.403C150.924 581.62 152.804 582.671 154.352 583.224C155.9 583.942 156.895 584.385 156.895 584.385C158.554 585.131 160.628 584.744 161.457 583.5L168.314 573.243C168.645 572.745 168.977 572.247 169.281 571.777C172.406 573.188 174.451 574.1 174.479 574.1C174.479 574.1 176.553 574.957 179.704 576.339L178.82 580.597C177.935 585.297 177.023 590.025 176.995 590.052C176.746 591.545 177.935 593.204 179.677 593.757L196.763 599.231C198.505 599.84 200.578 599.038 201.159 597.6C201.159 597.6 203.122 593.149 205.112 588.753C205.582 587.564 206.108 586.375 206.55 585.297L206.799 584.689C210.144 585.38 212.384 585.878 212.384 585.878C212.384 585.878 214.54 586.375 217.913 587.039C217.913 588.421 217.858 589.942 217.802 591.462C217.692 596.301 217.637 601.167 217.637 601.194C217.637 602.715 219.074 604.208 220.899 604.54L238.759 606.724C240.611 606.89 242.381 605.839 242.74 604.401C242.74 604.401 243.901 599.729 244.98 595.029L246.003 590.827C249.376 590.909 251.698 590.937 251.726 590.909C251.753 590.909 253.993 590.965 257.366 591.02C257.421 591.435 257.476 591.822 257.559 592.237C257.697 593.26 257.863 594.338 258.057 595.388L259.577 604.899C259.771 606.42 261.43 607.691 263.255 607.691C263.255 607.691 264.278 607.747 265.853 607.747C267.429 607.747 269.918 607.691 272.323 607.415L281.253 606.751C283.133 606.613 284.654 605.286 284.737 603.765L285.4 594.117C285.455 592.624 285.511 591.131 285.594 589.831L286.921 589.721C287.971 589.61 288.828 589.555 289.685 589.472C290.681 589.251 291.317 589.168 291.344 589.168L296.874 588.228C297.288 589.499 297.786 590.965 298.228 592.402C299.86 596.937 301.408 601.471 301.408 601.498C301.933 602.936 303.592 603.848 305.61 603.517L314.457 601.858L323.111 599.563C324.88 599.093 326.18 597.462 326.014 595.969C326.014 595.969 325.461 591.214 324.963 586.431L324.88 585.629C324.742 584.357 324.604 583.168 324.466 582.035C327.645 581.178 329.774 580.542 329.774 580.542C329.829 580.542 330.465 580.403 331.543 580.072C332.456 579.795 333.672 579.325 335.11 578.772L335.276 578.717C335.58 579.27 335.884 579.878 336.216 580.486L337.322 582.532C339.727 586.735 342.022 590.965 342.022 590.965C342.796 592.319 345.008 592.762 346.445 592.098C346.445 592.098 350.62 590.55 354.822 588.919C359.08 587.426 363.006 585.325 363.089 585.269C364.803 584.495 365.771 582.753 365.328 581.205L362.647 571.86C362.204 570.45 361.762 569.013 361.375 567.713L366.407 565.197C366.407 565.197 368.48 564.175 371.549 562.654L372.379 563.705C372.987 564.451 373.595 565.253 374.259 566.055L380.313 573.547C381.281 574.681 383.354 574.874 384.93 573.934L400.136 564.34C401.657 563.179 402.293 561.272 401.629 559.889C401.629 559.889 399.501 555.521 397.344 551.18L395.353 547.254C398.09 545.181 399.832 543.826 399.832 543.826L404.339 540.315C404.864 540.785 405.417 541.255 405.97 541.78L407.629 543.273C411.361 546.453 414.955 549.632 414.983 549.632C416.144 550.627 418.439 550.461 419.683 549.273L432.788 536.997C434.115 535.753 434.474 533.707 433.59 532.463L427.894 524.667C427.01 523.478 426.125 522.261 425.295 521.183C427.535 518.612 429.028 516.953 429.028 516.953C429.028 516.953 430.521 515.266 432.733 512.64L444.842 519.939C446.142 520.658 448.077 520.188 449.293 518.833C449.293 518.833 450.067 517.948 451.063 516.676C452.113 515.571 453.385 513.939 454.933 511.728L460.103 504.484C461.209 502.936 461.182 500.89 460.103 499.867C460.103 499.867 456.592 496.466 453.136 493.176C452.39 492.457 451.671 491.794 450.952 491.158C450.593 490.826 450.261 490.522 449.929 490.218C451.864 487.426 453.164 485.628 453.219 485.546L455.984 480.624L457.09 481.067C458.03 481.426 458.997 481.813 460.02 482.255C464.499 483.942 469.006 485.684 469.033 485.711C470.471 486.209 472.296 485.352 473.208 483.721L477.576 475.952C478.904 473.602 479.844 471.777 480.369 470.45C481.088 468.93 481.558 467.879 481.585 467.879C482.359 466.192 481.945 464.174 480.645 463.317C480.645 463.317 476.637 460.635 472.6 457.871C471.549 457.207 470.499 456.571 469.531 455.935L468.951 455.576C470.278 452.452 471.218 450.406 471.245 450.351C471.245 450.351 472.102 448.222 473.457 445.098L473.844 445.181C475.061 445.457 476.388 445.761 477.715 445.982C482.415 446.867 487.142 447.779 487.17 447.779H487.585C488.967 447.807 490.322 446.729 490.93 445.125L496.377 428.067C497.013 426.353 496.211 424.279 494.69 423.643C494.69 423.643 490.294 421.68 485.871 419.745C484.654 419.22 483.465 418.722 482.387 418.252L481.807 418.003C482.553 414.63 483.023 412.418 483.023 412.418C483.023 412.418 483.493 410.179 484.24 406.861C485.65 406.917 487.142 406.944 488.635 406.944L498.312 407.165C499.805 407.165 501.298 405.755 501.713 403.82L503.786 386.071C504.118 384.246 503.067 382.421 501.547 382.062C501.547 382.062 496.874 380.845 492.202 379.767L490.626 379.38C489.686 379.159 488.801 378.938 487.944 378.744C488 375.288 488.11 373.104 488.11 373.049C488.11 373.049 488.11 370.782 488.193 367.409C489.548 367.187 491.013 366.966 492.534 366.745L502.072 365.197C503.565 364.948 504.726 363.345 504.809 361.464C504.809 361.271 504.975 356.847 504.533 352.396L503.869 343.466L504.063 343.549ZM502.763 361.464C502.736 362.377 502.21 363.04 501.878 363.096L492.368 364.644C490.488 364.92 488.663 365.197 487.087 365.473L486.175 365.639V366.911C486.064 370.56 486.064 373.076 486.064 373.076C486.064 373.132 485.954 375.482 485.898 379.103C485.843 379.297 485.843 379.518 485.843 379.712V380.596L486.7 380.79C487.778 381.039 488.995 381.315 490.267 381.619L491.842 382.006C496.487 383.085 501.132 384.301 501.16 384.301C501.436 384.356 501.878 385.02 501.74 385.822L499.667 403.516C499.473 404.373 498.81 405.009 498.45 405.009L488.774 404.788C486.977 404.788 485.18 404.732 483.438 404.677L482.277 404.843V405.977C481.447 409.598 480.949 412.031 480.949 412.031C480.949 412.031 480.452 414.437 479.733 417.782C479.567 418.114 479.567 418.473 479.567 418.722V419.441L481.641 420.326C482.719 420.796 483.908 421.293 485.124 421.819C489.548 423.726 493.916 425.689 493.971 425.717C494.331 425.855 494.69 426.657 494.441 427.376L488.995 444.434C488.718 445.153 488.138 445.651 487.723 445.651C487.723 445.651 482.995 444.71 478.268 443.853C476.968 443.632 475.669 443.328 474.48 443.052L472.213 442.554L471.743 443.853C470.25 447.226 469.338 449.521 469.338 449.521C469.338 449.576 468.287 451.761 466.905 455.078C466.822 455.189 466.794 455.272 466.849 455.244L465.882 456.212L468.453 457.843C469.448 458.479 470.471 459.142 471.494 459.778C475.503 462.515 479.512 465.197 479.512 465.197C479.816 465.391 480.009 466.22 479.678 466.994C479.678 466.994 479.18 468.045 478.434 469.648C477.936 470.92 477.051 472.662 475.752 474.929L471.356 482.698C470.969 483.389 470.388 483.804 469.863 483.693C469.863 483.693 465.356 481.951 460.905 480.265C459.91 479.85 458.915 479.463 457.975 479.076L455.072 477.915L451.422 484.412C451.422 484.412 449.902 486.541 447.634 489.803L447.082 490.577L447.773 491.241C448.326 491.766 448.906 492.292 449.514 492.872C450.206 493.508 450.924 494.172 451.671 494.863C455.127 498.153 458.61 501.553 458.638 501.553C458.832 501.747 458.887 502.549 458.389 503.267L453.219 510.511C451.726 512.64 450.51 514.188 449.487 515.294C448.464 516.566 447.717 517.423 447.717 517.423C447.247 517.948 446.529 518.363 446.031 518.086L437.737 513.165L432.705 510.041L432.152 510.345C431.875 510.483 431.71 510.677 431.516 510.87C429.111 513.691 427.48 515.543 427.48 515.543C427.48 515.543 425.821 517.368 423.36 520.215L422.254 520.851L423.028 521.846C423.996 523.091 425.102 524.556 426.18 526.049L431.875 533.818C432.041 534.067 431.958 534.896 431.35 535.449L418.245 547.724C417.748 548.194 416.697 548.194 416.504 548.028C416.504 548.028 412.882 544.849 409.149 541.67L407.518 540.204C406.716 539.485 405.942 538.767 405.196 538.158L404.615 537.661L403.952 538.02C403.952 538.02 403.731 538.158 403.454 538.352L398.533 542.167C398.533 542.167 396.625 543.633 393.473 546.01L392.533 546.508L395.436 552.231C397.565 556.572 399.694 560.94 399.722 560.94C399.888 561.272 399.639 562.073 398.975 562.599L383.88 572.109C383.272 572.469 382.359 572.441 382.138 572.192L376.111 564.727C375.447 563.926 374.839 563.124 374.231 562.377L372.821 560.608L372.185 560L371.411 560.359C371.411 560.359 371.134 560.47 370.996 560.608C367.761 562.212 365.577 563.29 365.577 563.29L360.103 566.027L358.914 566.69L359.163 567.547C359.605 569.096 360.158 570.865 360.711 572.579L363.393 581.869C363.504 582.284 363.089 582.975 362.287 583.334C362.26 583.334 358.361 585.435 354.242 586.901C350.039 588.532 345.892 590.08 345.809 590.108C345.174 590.384 344.344 590.246 344.178 589.942C344.178 589.942 341.884 585.712 339.478 581.509L338.4 579.491C337.902 578.579 337.432 577.722 337.045 576.92L336.741 576.312H336.078C335.856 576.312 335.663 576.367 335.525 576.422L334.585 576.754C333.175 577.279 332.013 577.722 331.129 577.998C330.189 578.302 329.636 578.413 329.498 578.44C329.498 578.44 326.926 579.187 323.222 580.182L322.309 580.431L322.392 581.371C322.53 582.781 322.696 584.329 322.89 585.961L322.973 586.762C323.47 591.545 324.023 596.301 324.023 596.301C324.051 596.632 323.526 597.296 322.752 597.517L314.181 599.812L305.444 601.443C304.56 601.609 303.813 601.167 303.703 600.863C303.703 600.863 302.154 596.301 300.523 591.794C299.97 590.025 299.362 588.2 298.864 586.735L298.56 585.822L291.178 587.066C291.178 587.066 290.487 587.177 289.602 587.371C288.911 587.398 287.999 587.481 286.921 587.592L285.207 587.758C285.207 587.758 284.958 587.758 284.764 587.813H283.741L283.686 588.836C283.575 590.384 283.465 592.264 283.409 594.089L282.746 603.71C282.746 604.042 282.165 604.567 281.308 604.622L272.351 605.286C270.001 605.535 267.65 605.59 266.075 605.59C264.499 605.59 263.586 605.535 263.531 605.535C262.646 605.535 262.038 604.954 261.983 604.65L260.435 595.084C260.241 594.034 260.103 592.983 259.937 591.96C259.826 591.214 259.716 590.467 259.605 589.776L259.439 588.864H258.14C254.407 588.808 251.947 588.753 251.919 588.753C251.919 588.753 249.486 588.753 245.92 588.642C245.864 588.642 245.809 588.642 245.809 588.642L244.62 588.117L243.044 594.559C241.938 599.259 240.805 603.904 240.805 603.931C240.75 604.152 240.031 604.512 239.229 604.567L221.48 602.383C220.678 602.245 220.097 601.609 220.097 601.25C220.097 601.25 220.152 596.384 220.263 591.573C220.318 589.693 220.374 587.841 220.374 586.209V585.546L219.765 585.242C219.434 585.048 219.074 585.076 219.102 585.076C215.508 584.302 213.102 583.776 213.075 583.749C213.075 583.749 210.614 583.196 206.992 582.449L206.578 582.311H205.61L204.698 584.44C204.228 585.546 203.73 586.735 203.26 587.896C201.297 592.292 199.306 596.715 199.306 596.743C199.168 597.075 198.449 597.407 197.648 597.158L180.534 591.684C179.76 591.435 179.317 590.744 179.373 590.495C179.373 590.495 180.313 585.767 181.17 581.067L182.276 575.869L182.718 574.542H181.363L181.059 574.459C177.741 573.022 175.557 572.109 175.557 572.109C175.557 572.109 173.29 571.114 169.917 569.593L168.701 568.985L168.148 569.842C167.678 570.561 167.18 571.308 166.683 572.082L159.826 582.311C159.66 582.56 158.775 582.753 158.001 582.394C158.001 582.394 157.006 581.952 155.43 581.233C153.965 580.68 152.14 579.685 150.094 578.496C146.224 576.367 142.325 574.183 142.325 574.183C141.551 573.74 141.275 573.022 141.385 572.745C141.385 572.745 143.072 568.211 144.841 563.705L145.394 562.267C145.892 561.023 146.362 559.806 146.776 558.673L147.108 557.788L146.279 557.346C142.961 555.521 140.694 554.222 140.666 554.222C140.583 554.166 138.427 552.673 135.303 550.406L134.501 549.826L133.838 550.572C133.174 551.291 132.483 552.065 131.709 552.867L130.188 554.498C126.898 557.954 123.553 561.41 123.553 561.41C123.11 561.88 122.364 561.548 121.839 561.189C121.839 561.189 118.217 558.617 114.54 555.991C112.521 554.581 110.946 553.364 109.812 552.341C108.568 551.263 107.683 550.544 107.683 550.544C107.02 549.936 106.854 549.107 107.02 548.83C107.02 548.83 109.48 544.711 111.941 540.564C112.936 538.988 113.904 537.384 114.733 536.002L115.203 534.924L114.18 534.371L109.508 530.251C109.508 530.251 107.656 528.675 104.891 526.187L104.117 526.989L104.642 525.938L103.978 525.275L103.232 525.828C102.568 526.325 101.85 526.878 101.103 527.431C100.412 527.957 99.7207 528.482 99.0296 529.007C95.1313 531.855 91.2607 534.647 91.2054 534.675C90.9289 534.896 90.0995 534.647 89.6295 534.15L77.4094 521.1C76.8288 520.464 76.8564 519.579 77.0499 519.331C77.0499 519.331 80.2294 515.654 83.4088 512.059L84.653 510.649C85.4824 509.709 86.2841 508.797 86.9753 507.995L87.9153 506.917L86.8094 506.364L86.7265 506.253C84.4871 503.35 82.9665 501.443 82.9665 501.443C82.9665 501.443 81.4735 499.452 79.2894 496.66C79.2341 496.549 79.1511 496.466 79.0958 496.383L78.6258 495.333L76.2482 496.522C75.1423 497.074 73.9811 497.655 72.8476 498.263C68.5069 500.337 64.1387 502.549 63.9175 502.576C63.5304 502.576 62.8945 502.272 62.5351 501.802L52.9968 486.624C52.5544 485.905 52.6927 485.131 52.9139 484.937L60.2957 478.883L65.1893 475.04L64.7469 474.21C64.7469 474.21 64.6087 473.989 64.5257 473.878C62.8392 470.616 61.7333 468.377 61.7333 468.349C61.7333 468.349 60.6275 466.165 58.9963 462.792C58.941 462.681 58.858 462.598 58.8027 462.515L58.4157 461.631L57.5033 461.907C56.0104 462.35 54.1856 462.902 52.4715 463.455C47.7991 464.755 43.1267 466.137 43.0438 466.165C42.6567 466.165 41.9932 465.722 41.689 465.059C41.689 465.031 39.5602 461.078 38.1225 457.014L34.9431 448.664C34.6113 447.862 34.8325 447.061 35.109 446.922L43.5414 442.222C45.2003 441.338 46.8314 440.48 48.1862 439.762L49.0156 439.319L48.7391 438.435C48.6838 438.213 48.6009 437.992 48.5456 437.937L47.7162 435.67C47.4397 434.923 47.2185 434.26 47.0526 433.873C46.7761 432.767 46.6103 432.186 46.6103 432.186C46.6103 432.159 45.8914 429.587 44.8685 425.827L44.6197 424.887L43.652 425.026C42.4079 425.191 40.9979 425.357 39.5326 425.551L28.7225 426.684C28.3354 426.684 27.7824 426.187 27.5613 425.413L25.2665 416.925C24.4924 412.474 23.6906 408.105 23.6906 408.105C23.5524 407.276 23.9118 406.53 24.2159 406.419L33.3119 403.24L35.1919 402.631C36.3255 402.272 37.4314 401.913 38.4267 401.553L39.3114 401.249L39.1455 400.337C38.4267 396.521 38.012 393.895 38.012 393.867C38.012 393.867 37.9014 393.259 37.7631 392.319C37.6802 391.6 37.6249 390.688 37.542 389.637L37.4037 387.951C37.4037 387.785 37.3761 387.619 37.3484 387.564V386.541L36.3255 386.458C35.4684 386.402 34.5284 386.347 33.5331 386.319C32.7037 386.292 31.8743 386.236 31.0448 386.181L21.3683 385.518C21.1194 385.518 20.5389 384.937 20.4836 384.025C20.4836 384.025 20.1518 379.573 19.7647 375.122C19.3224 370.754 19.5436 366.386 19.5436 366.303C19.5436 365.446 20.0689 364.755 20.4283 364.699L31.2384 362.985C32.6207 362.792 34.0031 362.57 35.2196 362.404L36.1872 362.266V360.884C36.2425 357.151 36.2978 354.746 36.2978 354.746C36.2978 354.746 36.3531 352.23 36.4637 348.526L36.519 347.226L35.6896 347.005C34.1413 346.618 32.3166 346.231 30.5472 345.844C25.9024 344.655 21.2577 343.549 21.2577 343.549C20.843 343.438 20.4836 342.72 20.5665 341.89L22.6953 324.196C22.8336 323.367 23.4695 322.814 23.8289 322.814L33.5054 322.924L39.6708 323.118L40.0579 321.818C40.832 318.169 41.3573 315.763 41.3849 315.736C41.3849 315.736 41.8826 313.331 42.7396 309.515L42.7949 308.409L42.159 308.105C40.9979 307.552 39.6155 306.972 38.2055 306.419L28.363 302.078C28.0866 301.94 27.6995 301.193 27.9207 300.364L33.4225 283.306C33.6437 282.587 34.2243 282.034 34.6943 282.144C34.6943 282.144 39.339 283.029 44.0944 283.941C45.062 284.135 46.002 284.329 46.9144 284.522C47.7438 284.688 48.5179 284.826 49.2368 284.992L50.0938 285.158L50.4809 284.384C50.4809 284.384 50.6191 284.08 50.6744 283.831C52.1121 280.541 53.0521 278.357 53.0797 278.357C53.0797 278.357 54.075 276.062 55.5403 272.661L54.5174 272.219L55.6786 272.357L56.0656 271.5L42.8502 262.653C42.5461 262.459 42.3526 261.63 42.712 260.828C42.712 260.828 43.1544 259.833 43.8732 258.285C44.4261 256.93 45.3661 255.133 46.6103 252.921L50.9232 245.152C51.2827 244.516 51.8356 244.185 52.4162 244.212L61.3739 247.585C62.3416 248 63.3369 248.359 64.2769 248.746C65.0234 249.023 65.7146 249.299 66.3781 249.576L67.2904 249.935L70.9399 243.493L75.2529 237.356L74.5617 236.692C73.4005 235.586 72.0458 234.259 70.6634 233.015C67.2352 229.697 63.7239 226.407 63.7239 226.407C63.4751 226.159 63.4198 225.357 63.9451 224.666C63.9451 224.666 66.5163 221.044 69.0875 217.367C70.387 215.487 71.7417 213.745 72.737 212.584C73.8152 211.34 74.5617 210.538 74.617 210.483C75.1699 209.819 76.0823 209.681 76.2758 209.791C76.2758 209.791 80.4229 212.252 84.57 214.768C85.9247 215.625 87.3071 216.454 88.5789 217.201L89.9059 217.92L90.5142 217.256C90.5142 217.256 90.7354 217.035 90.8183 216.869C93.2513 214.16 94.8272 212.335 94.8272 212.335L98.8913 207.718C98.8913 207.718 99.2231 207.441 99.3613 207.137L99.6378 206.557L99.2784 206.031C98.4766 204.925 97.5642 203.709 96.5966 202.437L96.0713 201.746C93.2236 197.903 90.4312 194.088 90.4312 194.06C90.2377 193.784 90.3483 193.009 90.9565 192.401L104.089 180.153C104.587 179.683 105.693 179.739 105.803 179.822C105.803 179.822 109.425 183.001 113.074 186.181C113.793 186.816 114.512 187.452 115.203 188.088C115.867 188.669 116.503 189.222 117.083 189.747L118.079 190.217L118.825 189.471C121.728 187.231 123.691 185.766 123.691 185.738C123.691 185.738 125.654 184.218 128.723 181.868C128.833 181.785 128.944 181.674 129.055 181.591L129.607 181.038L129.248 180.319C128.889 179.601 128.502 178.826 128.087 178.052C127.672 177.25 127.257 176.421 126.843 175.619C124.686 171.223 122.557 166.91 122.557 166.91C122.392 166.606 122.64 165.777 123.249 165.334L138.455 155.796C139.035 155.409 139.948 155.409 140.169 155.686L146.196 163.123C147.329 164.533 148.491 166.026 149.458 167.27L150.177 168.376L151.062 167.436L151.283 167.325C154.545 165.666 156.702 164.533 156.702 164.533C156.702 164.533 158.858 163.454 162.121 161.851C162.314 161.796 162.48 161.713 162.618 161.63L163.475 161.215L163.199 160.303C162.701 158.782 162.176 157.04 161.678 155.216C160.296 150.626 158.997 145.981 158.997 145.954C158.886 145.622 159.273 144.848 160.102 144.433C160.13 144.433 164.028 142.36 168.148 140.867C172.295 139.318 176.47 137.687 176.47 137.687C177.216 137.411 178.129 137.687 178.239 137.881C178.239 137.881 180.534 142.111 182.884 146.258C183.769 147.889 184.626 149.548 185.4 150.986L186.119 152.285L187.031 151.373C187.031 151.373 187.086 151.373 187.142 151.345C188.164 150.958 189.077 150.626 189.851 150.35L200.108 147.336L199.998 146.396C199.832 144.848 199.61 142.968 199.334 141.143L198.339 131.494C198.311 131.218 198.781 130.554 199.61 130.333L208.181 128.038C212.549 127.209 216.945 126.462 216.945 126.462C217.775 126.324 218.549 126.684 218.659 126.905C218.659 126.905 220.208 131.522 221.784 136.056L222.254 137.411C222.696 138.738 223.111 139.982 223.498 141.143L223.802 142.055L224.742 141.89C228.557 141.198 231.101 140.701 231.101 140.701C231.156 140.701 231.792 140.645 232.76 140.48L233.948 140.369C234.888 140.286 235.967 140.175 237.128 140.065H238.538L238.621 139.042C238.731 137.438 238.842 135.558 238.897 133.734C239.284 128.951 239.561 124.112 239.561 124.112C239.561 123.781 240.197 123.255 241.054 123.172L250.012 122.509C252.279 122.288 254.546 122.232 256.066 122.232C257.67 122.232 258.748 122.288 258.831 122.288C259.66 122.288 260.324 122.758 260.379 123.117L261.928 132.683C262.149 133.982 262.342 135.282 262.48 136.471L262.812 138.876H264.167C267.872 138.987 270.36 138.987 270.332 138.987C270.388 138.987 272.848 139.097 276.581 139.208H277.825L278.046 138.378C278.433 136.83 278.875 135.061 279.262 133.208L281.557 123.891C281.612 123.615 282.193 123.2 283.161 123.311L300.827 125.384C301.712 125.578 302.293 126.241 302.293 126.601C302.293 126.601 302.237 131.411 302.127 136.222C302.071 138.074 302.016 140.01 301.961 141.585L301.823 142.719H302.956L303.426 141.696L303.288 142.802C306.91 143.576 309.343 144.074 309.343 144.074C309.343 144.074 311.748 144.571 315.674 145.456L316.669 145.816L317.056 144.82C317.388 143.991 317.775 143.106 318.162 142.194C318.494 141.447 318.826 140.701 319.13 139.954C321.037 135.503 323 131.135 323 131.135C323.194 130.775 324.106 130.416 324.742 130.609L341.773 136.084C342.602 136.388 343.045 136.996 342.962 137.355L341.22 146.728C340.916 148.027 340.667 149.271 340.418 150.433L339.976 152.506L340.418 152.921C340.695 153.17 340.971 153.253 341.137 153.28C344.593 154.746 346.832 155.741 346.832 155.741C346.832 155.741 349.017 156.709 352.362 158.091C352.528 158.201 352.666 158.284 352.777 158.312L353.661 158.81L354.242 157.953C355.127 156.626 356.177 155.022 357.145 153.474C359.882 149.52 362.536 145.456 362.536 145.456C362.702 145.207 363.559 145.014 364.361 145.373C364.361 145.373 365.384 145.815 366.96 146.534C368.508 147.17 370.443 148.138 372.268 149.216C376.194 151.4 380.037 153.584 380.064 153.612C380.866 154.054 381.17 154.773 381.032 155.105C381.032 155.105 379.346 159.584 377.576 164.09C376.94 165.832 376.221 167.574 375.613 168.956L375.226 169.869L381.696 173.601C381.696 173.601 383.88 175.149 387.142 177.333L387.916 177.859L388.552 177.195C389.05 176.67 389.603 176.089 390.183 175.481C390.819 174.79 391.51 174.071 392.174 173.38L398.837 166.385C398.837 166.385 399.971 166.192 400.579 166.606C400.579 166.606 404.201 169.26 408.071 171.915C409.758 173.131 411.472 174.403 412.633 175.481L414.734 177.306C415.398 177.886 415.591 178.688 415.425 178.965L410.504 187.259L410.145 187.867C409.288 189.277 408.431 190.632 407.712 191.848L407.242 192.982L408.265 193.535C411.057 195.94 412.909 197.571 412.909 197.571C412.909 197.571 414.734 199.23 417.527 201.608L418.107 202.852L420.374 201.165C421.342 200.419 422.392 199.645 423.471 198.871C427.286 196.051 431.157 193.203 431.157 193.203C431.461 192.982 432.373 193.258 432.843 193.756L445.091 206.888C445.616 207.414 445.616 208.243 445.367 208.547C445.367 208.547 442.243 212.169 438.953 216.012C437.737 217.339 436.52 218.666 435.497 219.855L435.027 220.408L435.331 221.044C435.47 221.32 435.663 221.514 435.718 221.569C437.958 224.527 439.423 226.49 439.451 226.518C439.451 226.518 440.999 228.509 443.211 231.273C443.266 231.412 443.377 231.66 443.598 231.882L444.179 232.462L444.897 232.075C446.142 231.412 447.524 230.693 448.962 229.974L449.57 229.67C453.938 227.486 458.334 225.357 458.527 225.329C458.915 225.329 459.523 225.578 459.91 226.103L469.393 241.226C469.863 242 469.752 242.775 469.531 242.968C469.531 242.968 465.799 246.037 462.066 248.995C460.795 250.073 459.523 251.069 458.389 251.953L457.283 252.811L457.67 253.612C457.67 253.612 457.781 253.806 457.892 254.027C459.578 257.372 460.684 259.557 460.684 259.557L463.449 265.086C463.504 265.252 463.587 265.418 463.725 265.611L464.195 266.302L464.997 266.054C466.435 265.584 468.204 265.031 470.001 264.478C474.646 263.095 479.318 261.796 479.429 261.768C479.816 261.768 480.452 262.211 480.784 262.874C480.784 262.902 482.857 266.8 484.35 270.975L487.502 279.297C487.806 280.098 487.557 280.873 487.281 281.011C487.281 281.011 483.051 283.361 478.904 285.711L478.212 286.07C476.802 286.817 475.42 287.563 474.231 288.227L473.263 288.724L473.955 290.107C474.535 291.766 475.061 293.176 475.42 294.116L477.853 302.963L478.793 302.852C480.397 302.686 482.194 302.465 484.046 302.244L493.723 301.138C494.054 301.138 494.663 301.663 494.911 302.437C494.911 302.437 496.017 306.778 497.206 310.953L498.754 319.772C498.948 320.629 498.533 321.348 498.257 321.459C498.257 321.459 493.64 323.035 489.133 324.638C488.304 324.887 487.447 325.191 486.645 325.44C485.732 325.744 484.875 326.021 484.101 326.269L483.161 326.546L483.327 327.514C484.046 331.384 484.488 333.955 484.488 333.955C484.488 333.955 484.599 334.591 484.709 335.642C484.82 336.692 484.986 338.213 485.152 339.9V341.365L486.175 341.42C487.834 341.531 489.631 341.641 491.511 341.752C496.321 342.028 501.077 342.36 501.104 342.36C501.436 342.36 501.961 342.968 502.044 343.798L502.708 352.756C503.123 357.069 502.984 361.492 502.984 361.547L502.763 361.464Z" fill="#5D758B"/>
<path d="M340.996 237.71C344.204 239.728 347.881 240.778 351.641 240.778C358.525 240.778 364.828 237.295 368.506 231.489C371.353 226.982 372.266 221.674 371.104 216.477C369.943 211.279 366.847 206.855 362.34 204.035C359.133 201.989 355.428 200.939 351.668 200.939C344.784 200.939 338.508 204.395 334.859 210.201C332.011 214.679 331.071 220.015 332.232 225.213C333.393 230.411 336.518 234.834 341.024 237.71H340.996ZM336.739 211.389C340.001 206.247 345.586 203.151 351.696 203.151C355.041 203.151 358.331 204.118 361.207 205.915C365.188 208.431 367.953 212.357 368.976 216.974C369.998 221.591 369.169 226.319 366.653 230.328C363.363 235.498 357.778 238.594 351.641 238.594C348.295 238.594 345.033 237.654 342.185 235.857C338.176 233.314 335.412 229.36 334.389 224.743C333.366 220.126 334.195 215.398 336.739 211.389Z" fill="#5D758B"/>
<path d="M95.988 381.094C94.495 381.094 93.0021 381.26 91.5644 381.591C80.8649 383.942 74.0913 394.613 76.469 405.368C78.4873 414.381 86.6985 420.906 95.988 420.906C97.4257 420.906 98.8357 420.74 100.273 420.436C110.973 418.003 117.719 407.303 115.341 396.604C113.268 387.453 105.305 381.066 95.988 381.066V381.094ZM99.7757 418.307C98.5315 418.584 97.2598 418.722 95.988 418.722C87.7215 418.722 80.4226 412.916 78.6255 404.898C76.5243 395.332 82.5238 385.849 92.0344 383.748C93.3339 383.444 94.6609 383.306 95.988 383.306C104.282 383.306 111.36 388.973 113.185 397.102C115.286 406.64 109.286 416.151 99.7757 418.307Z" fill="#5D758B"/>
<path d="M426.347 306.883C424.881 306.883 423.388 307.049 421.923 307.381C416.725 308.542 412.302 311.639 409.427 316.145C406.579 320.652 405.639 325.988 406.828 331.185C408.901 340.337 416.891 346.751 426.264 346.751C427.729 346.751 429.167 346.585 430.604 346.281C435.83 345.092 440.281 341.94 443.129 337.406C445.949 332.927 446.861 327.619 445.672 322.476C443.599 313.298 435.636 306.883 426.291 306.883H426.347ZM441.276 336.217C438.733 340.254 434.779 343.046 430.134 344.097C428.863 344.373 427.563 344.511 426.264 344.511C417.942 344.511 410.837 338.816 408.984 330.66C407.934 326.043 408.763 321.315 411.279 317.306C413.822 313.297 417.748 310.533 422.393 309.51C423.693 309.206 425.02 309.067 426.319 309.067C434.613 309.067 441.691 314.763 443.543 322.919C444.594 327.481 443.792 332.181 441.276 336.189V336.217Z" fill="#5D758B"/>
<path d="M414.761 437.635C411.554 435.589 407.877 434.538 404.117 434.538C397.261 434.538 390.957 437.994 387.252 443.8C381.446 453.089 384.239 465.42 393.473 471.281C396.68 473.327 400.357 474.405 404.145 474.405C411.029 474.405 417.333 470.95 420.982 465.144C426.816 455.882 424.051 443.551 414.789 437.635H414.761ZM419.102 463.955C415.867 469.097 410.255 472.194 404.117 472.194C400.772 472.194 397.482 471.226 394.634 469.429C386.423 464.204 383.962 453.228 389.105 444.989C392.395 439.819 398.007 436.75 404.117 436.75C407.463 436.75 410.725 437.718 413.573 439.515C421.811 444.768 424.3 455.744 419.102 463.982V463.955Z" fill="#5D758B"/>
<path d="M298.146 509.125C296.68 509.125 295.243 509.291 293.805 509.595C283.133 512.028 276.387 522.728 278.765 533.427C280.755 542.413 288.911 548.965 298.118 548.965C299.611 548.965 301.076 548.799 302.542 548.467C307.739 547.334 312.163 544.21 315.011 539.703C317.858 535.224 318.798 529.861 317.637 524.663C315.591 515.65 307.38 509.098 298.146 509.098V509.125ZM313.13 538.542C310.587 542.551 306.661 545.315 302.044 546.338C300.745 546.643 299.417 546.781 298.118 546.781C289.907 546.781 282.691 540.975 280.921 532.985C278.793 523.446 284.792 513.936 294.275 511.779C295.547 511.503 296.846 511.365 298.146 511.365C306.357 511.365 313.656 517.198 315.481 525.188C316.503 529.805 315.674 534.561 313.158 538.542H313.13Z" fill="#5D758B"/>
<path d="M181.167 490.139C177.988 488.093 174.283 487.015 170.523 487.015C163.666 487.015 157.363 490.47 153.658 496.276C147.825 505.538 150.589 517.869 159.879 523.785C163.058 525.776 166.735 526.827 170.468 526.827C177.352 526.827 183.655 523.371 187.333 517.565C190.18 513.086 191.12 507.75 189.959 502.58C188.798 497.382 185.674 492.959 181.195 490.139H181.167ZM185.453 516.404C182.19 521.546 176.605 524.643 170.468 524.643C167.15 524.643 163.888 523.703 161.068 521.933C152.829 516.68 150.34 505.704 155.538 497.465C158.828 492.295 164.441 489.226 170.523 489.226C173.868 489.226 177.131 490.194 179.978 491.991C183.987 494.507 186.752 498.433 187.775 503.05C188.798 507.667 187.968 512.395 185.453 516.376V516.404Z" fill="#5D758B"/>
<path d="M137.514 268.953C136.353 263.755 133.229 259.332 128.722 256.484C125.543 254.466 121.866 253.415 118.106 253.415C111.221 253.415 104.918 256.899 101.241 262.705C98.4207 267.183 97.4807 272.492 98.6695 277.689C99.8307 282.887 102.955 287.338 107.461 290.158C110.641 292.177 114.318 293.227 118.05 293.227C124.934 293.227 131.238 289.771 134.915 283.938C137.763 279.459 138.703 274.123 137.542 268.953H137.514ZM133.007 282.777C129.745 287.947 124.133 291.015 118.023 291.015C114.705 291.015 111.443 290.075 108.595 288.278C104.614 285.762 101.821 281.809 100.771 277.192C99.7201 272.575 100.55 267.847 103.065 263.893C106.355 258.723 111.94 255.627 118.078 255.627C121.423 255.627 124.686 256.567 127.533 258.364C131.542 260.88 134.307 264.833 135.33 269.451C136.353 274.068 135.523 278.795 132.98 282.777H133.007Z" fill="#5D758B"/>
<path d="M516.256 27.7584L519.241 30.0255L509.067 40.5038L509.98 41.4162L521.094 29.9702L516.974 27.012L516.256 27.7584Z" fill="#5D758B"/>
<path d="M525.82 36.4138C524.576 36.4415 523.526 36.9391 522.669 37.8791V37.9344L523.498 38.7638C524.217 38.0174 525.019 37.6303 525.931 37.575C526.816 37.5197 527.673 37.8791 528.474 38.6532C529.193 39.3444 529.553 40.0909 529.525 40.8374C529.525 41.5839 529.166 42.3027 528.502 42.9939C528.032 43.4915 527.424 43.8509 526.677 44.0998C525.931 44.3486 524.853 44.5421 523.443 44.6804L515.536 45.3992L514.844 46.118L521.701 52.781L522.447 52.0069L516.78 46.5051V46.4498L523.304 45.8415C524.853 45.6757 526.124 45.4545 527.064 45.2057C528.032 44.9568 528.806 44.5145 529.387 43.9062C530.272 42.9939 530.714 41.9709 530.686 40.8927C530.659 39.8144 530.161 38.7915 529.193 37.8515C528.143 36.8285 527.009 36.3585 525.765 36.3862L525.82 36.4138Z" fill="#5D758B"/>
<path d="M120.235 64.1448L121.313 61.9054H120.318L119.46 63.6472C119.129 63.4813 118.742 63.3431 118.355 63.2601C117.968 63.1772 117.553 63.1219 117.11 63.1219C115.562 63.1219 114.318 63.6748 113.35 64.7807C112.41 65.8866 111.94 67.2966 111.94 69.0108V69.3702C111.94 70.4484 112.134 71.4437 112.521 72.3008C112.908 73.1578 113.461 73.849 114.18 74.3467L113.102 76.5308H114.097L114.926 74.8167C115.258 74.9549 115.59 75.0655 115.949 75.1485C116.309 75.2314 116.668 75.259 117.083 75.259C118.631 75.259 119.875 74.7061 120.815 73.6002C121.755 72.4943 122.225 71.0843 122.225 69.3702V69.0108C122.225 67.9602 122.032 67.0478 121.672 66.1907C121.313 65.3613 120.788 64.6701 120.152 64.1448H120.235ZM114.788 73.1855H114.733C114.263 72.7984 113.903 72.2455 113.655 71.582C113.406 70.8908 113.267 70.1719 113.267 69.3702V69.0108C113.267 67.6837 113.599 66.5501 114.29 65.6101C114.982 64.6701 115.922 64.2278 117.138 64.2278C117.47 64.2278 117.802 64.2554 118.106 64.3384C118.41 64.4213 118.686 64.5319 118.963 64.6978L114.816 73.1855H114.788ZM121.036 69.3702C121.036 70.7249 120.705 71.8584 120.013 72.7708C119.322 73.6831 118.382 74.1532 117.166 74.1532C116.862 74.1532 116.558 74.1255 116.281 74.0702C116.005 74.0149 115.756 73.9043 115.507 73.7937L119.654 65.3613H119.709C120.124 65.776 120.428 66.3013 120.677 66.9372C120.898 67.5731 121.009 68.2643 121.009 69.0108V69.3702H121.036Z" fill="#5D758B"/>
<g style="mix-blend-mode:screen">
<path d="M508.903 0L480.039 30.3291L531.905 79.7072L532.403 80.1772L561.267 49.8481L509.4 0.470004L508.903 0ZM532.348 78.2419L481.974 30.2738L508.93 1.93531L559.304 49.9034L532.348 78.2419Z" fill="#5D758B"/>
</g>
<path d="M545.26 64.9755L563.645 85.2963L439.675 199.507L441.168 201.138L565.968 86.181L566.77 85.4345L546.919 63.4825L545.26 64.9755Z" fill="#5D758B"/>
<path d="M148.214 83.6649V81.4531L113.102 81.4808L155 126.5L156.659 125.007L118.078 83.6926L148.214 83.6649Z" fill="#5D758B"/>
<path d="M126.18 62.3099L126.595 63.8581L129.221 62.4481H129.277V75.6912H131.267V60.5128H129.498L126.18 62.3099Z" fill="#5D758B"/>
<path d="M142.381 65.7154C140.694 65.7154 139.45 66.5172 138.731 67.4572H138.648C139.008 64.969 140.694 62.5913 143.929 62.066C144.509 61.9831 145.062 61.9554 145.477 61.9831V60.2966C145.118 60.2966 144.592 60.2966 143.984 60.4072C142.077 60.6283 140.39 61.4025 139.146 62.6466C137.653 64.1395 136.575 66.4896 136.575 69.4755C136.575 73.429 138.704 75.9449 141.938 75.9449C145.173 75.9449 146.97 73.3737 146.97 70.609C146.97 67.6508 145.09 65.7154 142.408 65.7154H142.381ZM141.911 74.369C139.754 74.369 138.621 72.5167 138.565 70.0284C138.565 69.6414 138.648 69.3372 138.786 69.1161C139.339 68.0102 140.501 67.236 141.717 67.236C143.597 67.236 144.841 68.5355 144.841 70.7196C144.841 72.9037 143.652 74.369 141.883 74.369H141.911Z" fill="#5D758B"/>
<circle cx="260.5" cy="363.5" r="110" stroke="#5D758B" stroke-dasharray="13 7"/>
<circle cx="260.5" cy="363.5" r="260" stroke="#5D758B" stroke-dasharray="13 7"/>
</svg>