<svg width="992" height="140" viewBox="0 0 992 140" fill="none" xmlns="http://www.w3.org/2000/svg">
<path d="M48.2156 98.5156L49.3661 99.1309V104.283C47.7771 105.425 45.9803 106.48 43.942 107.446C40.0737 109.281 36.1725 110.204 32.2385 110.204C22.8804 110.204 15.166 106.71 9.1062 99.7458C3.03545 92.7699 0 83.7511 0 72.6889C0 62.879 3.38608 54.4642 10.1801 47.4446C16.9631 40.4249 25.1707 36.9097 34.8028 36.9097C38.6052 36.9097 42.1665 37.3382 45.5089 38.1951C46.8785 38.5467 48.0948 38.9309 49.2345 39.3374V45.3356L47.9524 45.9727C47.3828 45.5661 46.7582 45.1925 46.0349 44.841C44.4896 44.0942 42.7365 43.7206 40.7969 43.7206C36.1726 43.7206 32.3812 46.3463 29.4115 51.5972C26.4529 56.8482 24.9735 64.2633 24.9735 73.8423C24.9735 77.6105 25.2364 80.9939 25.7734 83.9928C26.3103 86.9917 27.2418 89.7272 28.5897 92.188C29.9375 94.6484 31.6579 96.582 33.7619 97.9771C35.8658 99.3722 38.397 100.064 41.3666 100.064C44.1061 100.086 46.3855 99.5592 48.2156 98.5156Z" fill="#4CA9DF"/>
<path d="M88.98 101.405V106.503L54.6811 108.524L53.4977 107.371V56.146L53.5305 27.9246L53.4977 27.9356V18.4224C53.4977 16.6977 53.147 15.0827 52.457 13.5777C51.7666 12.0617 50.8351 10.8973 49.6734 10.0514C48.238 9.02984 46.4408 8.29381 44.2818 7.85441C42.1231 7.41497 39.9536 7.0963 37.7729 6.90953V1.81247L75.4031 0L76.4441 1.12052V92.5515C76.4441 94.3202 76.7289 95.8029 77.3098 97.011C77.8903 98.2195 78.8218 99.1754 80.1151 99.8676C81.0795 100.373 82.5036 100.746 84.3666 100.988C86.2404 101.219 87.7745 101.361 88.98 101.405Z" fill="#0A2540"/>
<path d="M137.809 102.964V108.05H93.8451V102.964C95.0506 102.876 96.234 102.755 97.3953 102.612C98.5571 102.47 99.5544 102.239 100.387 101.92C101.877 101.36 102.918 100.558 103.521 99.5142C104.124 98.4706 104.431 97.0867 104.431 95.3619V54.7711C104.431 53.1452 104.058 51.7175 103.313 50.4869C102.568 49.2567 101.647 48.2682 100.529 47.521C99.6964 46.9608 98.4364 46.4332 96.7378 45.9168C95.0501 45.4008 93.5053 45.0823 92.1136 44.9395V39.8533L126.204 38.0405L127.245 39.0841V94.4614C127.245 96.087 127.596 97.4712 128.286 98.6137C128.988 99.7563 129.974 100.602 131.278 101.162C132.209 101.58 133.228 101.953 134.335 102.272C135.442 102.601 136.603 102.832 137.809 102.964Z" fill="#0A2540"/>
<path d="M113.909 25.6928C120.959 25.6928 126.675 19.9631 126.675 12.895C126.675 5.82691 120.959 0.0969238 113.909 0.0969238C106.858 0.0969238 101.143 5.82691 101.143 12.895C101.143 19.9631 106.858 25.6928 113.909 25.6928Z" fill="#0A2540"/>
<path d="M219.874 105.559C221.266 108.097 221.967 111.007 221.967 114.314C221.967 117.851 221.123 121.169 219.425 124.289C217.726 127.409 215.151 130.1 211.666 132.385C208.006 134.758 203.613 136.592 198.484 137.889C193.356 139.185 187.011 139.844 179.461 139.844C167.265 139.844 157.983 138.35 151.639 135.384C145.283 132.407 142.104 127.947 142.104 121.993C142.104 118.324 143.814 115.292 147.244 112.93C149.096 111.656 151.518 110.7 154.465 110.041L166.267 113.358L166.453 114.292C166.245 114.578 166.026 114.852 165.851 115.16C164.755 117.071 164.218 119.367 164.218 122.07C164.218 123.234 164.547 124.508 165.193 125.904C165.84 127.299 166.859 128.595 168.251 129.814C169.872 131.166 171.681 132.22 173.664 132.989C175.658 133.758 178.661 134.142 182.693 134.142C188.665 134.142 193.224 132.978 196.369 130.66C199.514 128.332 201.092 124.596 201.092 119.433C201.092 117.851 200.654 116.28 199.777 114.732C198.901 113.172 196.993 111.689 193.87 110.931C192.227 110.535 189.454 110.469 185.641 110.37C181.926 110.283 176.787 111.117 170.442 110.228C168.481 109.953 162.816 108.041 162.816 108.041C158.761 106.613 155.561 104.746 153.249 102.439C150.86 100.033 149.677 97.243 149.677 94.0792C149.677 92.1235 150.148 90.465 151.101 89.1138C152.055 87.7517 153.271 86.5762 154.75 85.5434C156.054 84.6538 157.632 83.9066 159.484 83.2696C161.336 82.6434 162.892 82.1379 164.141 81.7756V81.0067C157.884 78.6778 153.271 75.8546 150.334 72.5042C147.386 69.1534 145.918 65.0667 145.918 60.2331C145.918 53.4004 149.063 47.9299 155.342 43.8431C161.621 39.7567 169.588 37.7024 179.242 37.7024C179.768 37.7024 180.293 37.7464 180.809 37.7683L180.995 38.4606C176.348 41.3936 172.919 45.3263 172.349 46.0071C172.294 46.0731 172.217 46.1503 172.217 46.1503H172.239C171.746 46.7435 171.286 47.4022 170.891 48.1494C170.102 49.7311 169.566 51.577 169.281 53.686C169.007 55.8062 168.864 57.9814 168.864 60.2114C168.864 65.2754 169.752 69.4389 171.516 72.6908C172.897 75.2284 174.004 76.4035 176.294 76.9529L176.546 77.6671C173.313 80.1826 169.215 82.7311 169.215 82.7311C168.656 83.1486 168.042 83.819 167.374 84.7307C166.705 85.6423 166.366 86.5215 166.366 87.3672C166.366 89.4214 167.177 90.8495 168.799 91.6514C170.42 92.4425 173.368 92.8929 177.631 92.9805C181.85 93.0686 186.123 93.2444 190.43 93.5078C194.747 93.7603 197.826 93.9144 199.678 93.9586C202.374 94.1014 205.037 94.6503 207.678 95.5954C210.319 96.5401 212.62 97.792 214.57 99.319C216.729 100.945 218.493 103.032 219.874 105.559Z" fill="#0A2540"/>
<path d="M182.123 43.798L181.959 43.0291C184.096 41.1944 186.035 39.2502 187.252 38.3933C187.833 38.4812 188.424 38.5251 189.005 38.6239C191.952 39.1622 193.596 39.4587 195.12 39.8982C198.462 40.8759 202.209 42.0953 206.812 47.5003C208.576 49.5762 209.979 51.6856 210.877 53.9594C211.787 56.2332 212.236 58.5842 212.236 61.0338C212.236 64.2418 211.382 67.2519 209.661 70.0642C207.952 72.8761 205.694 75.1612 202.911 76.9299C200.083 78.7424 196.763 80.1592 192.961 81.1811C189.158 82.2026 185.027 82.719 180.578 82.719H177.773L177.433 81.6094C183.361 78.0942 186.408 73.7331 186.408 73.7331C188.282 70.9977 189.476 66.0873 189.476 60.7374C189.476 55.2994 188.61 50.9934 186.89 47.8405C185.553 45.3797 184.611 44.3361 182.123 43.798Z" fill="#0A2540"/>
<path d="M272.373 102.877V107.974H228.409V102.877C229.615 102.79 230.798 102.669 231.96 102.526C233.121 102.383 234.118 102.152 234.951 101.834C236.441 101.274 237.483 100.472 238.085 99.4281C238.688 98.3845 238.995 97.0002 238.995 95.2758V54.6851C238.995 53.0591 238.622 51.6311 237.877 50.4004C237.132 49.1702 236.212 48.1817 235.094 47.4345C234.261 46.8743 233.001 46.3471 231.302 45.8307C229.604 45.3143 228.07 44.9958 226.678 44.8531V39.7668L260.768 37.9541L261.809 38.9979V94.375C261.809 96.0005 262.16 97.3847 262.851 98.5272C263.552 99.6698 264.538 100.516 265.842 101.076C266.774 101.494 267.793 101.867 268.899 102.186C270.006 102.515 271.157 102.745 272.373 102.877Z" fill="#0A2540"/>
<path d="M235.708 12.8075C235.708 5.733 241.428 0.00976562 248.474 0.00976562C255.52 0.00976562 261.24 5.733 261.24 12.8075C261.24 19.8711 255.52 25.6053 248.474 25.6053C241.428 25.6053 235.708 19.8711 235.708 12.8075Z" fill="#0A2540"/>
<path d="M325.827 100.051V104.204C322.857 105.511 319.679 106.676 316.293 107.73C312.907 108.774 308.776 109.301 303.91 109.301C296.678 109.301 291.309 107.533 287.802 104.006C284.295 100.48 282.553 95.4378 282.553 88.8906V46.1137L282.827 38.5117L282.805 19.8256C282.805 18.057 282.455 16.4202 281.742 14.9042C281.03 13.3883 280.087 12.2459 278.904 11.455C277.994 10.8508 276.614 10.2684 274.773 9.70818C272.932 9.14793 271.299 8.82946 269.885 8.73061V3.64426L304.316 1.83179L305.346 2.95231V3.8859L305.357 3.8969V37.8307H324.928V45.4325H305.521V84.2987C305.521 89.7255 306.278 93.5814 307.79 95.8552C309.302 98.1294 312.009 99.2715 315.92 99.2715C317.169 99.2715 318.923 99.1835 321.158 98.9969C322.419 98.8979 323.448 98.7773 324.281 98.6562L325.827 100.051Z" fill="#0A2540"/>
<path d="M367.993 64.7808L369.461 65.5605V70.493C368.092 71.0311 366.733 71.5913 365.374 72.1958C362.81 73.3383 360.717 74.5355 359.095 75.7987C357.375 77.1061 356.027 78.7646 355.051 80.7972C354.065 82.8184 353.583 85.2133 353.583 87.9596C353.583 91.5955 354.405 94.2321 356.06 95.858C357.714 97.4948 359.742 98.308 362.175 98.308C364.695 98.308 366.777 97.7912 368.421 96.7697L369.461 97.3299V102.526C369.166 102.768 368.859 103.043 368.563 103.262C367.106 104.383 365.527 105.327 363.862 106.118C361.681 107.14 359.577 107.909 357.55 108.425C355.534 108.941 352.707 109.194 349.091 109.194C343.699 109.194 339.097 107.601 335.294 104.416C331.492 101.23 329.585 97.0006 329.585 91.7387C329.585 88.7177 330.001 86.1362 330.845 84.0269C331.678 81.9067 332.872 80.0391 334.396 78.4023C335.787 76.9083 337.398 75.6781 339.239 74.7004C341.069 73.7228 343.086 72.8111 345.266 71.9762C349.441 70.4379 354.46 68.845 360.312 67.1865C363.314 66.3295 365.834 65.5384 367.993 64.7808Z" fill="#0A2540"/>
<path d="M333.585 52.9252C333.585 49.0147 335.503 45.5653 338.418 43.4122L338.385 43.3901C338.385 43.3901 346.932 36.3484 367.544 36.0737L369.09 36.8976V39.2816C369.09 39.2816 357.244 41.9399 357.244 52.5846L357.211 52.5625C357.211 52.6836 357.244 52.7933 357.244 52.9144C357.244 59.4615 351.951 64.7676 345.42 64.7676C338.889 64.7676 333.585 59.4724 333.585 52.9252Z" fill="#4CA9DF"/>
<path d="M407.64 100.406V105.492C405.602 106.371 403.191 107.184 400.418 107.931C397.646 108.678 394.698 109.051 391.597 109.051C385.899 109.051 381.713 108.205 379.028 106.503C376.343 104.8 374.514 102.372 373.538 99.2192L373.166 60.5617V36.2185C374.294 36.3284 375.467 36.4053 376.53 36.5591C380.288 37.0974 383.675 38.1957 386.688 39.8654C389.559 41.4913 391.849 43.8532 393.537 46.9402C395.235 50.0271 396.079 54.0696 396.079 59.0351C396.079 64.2861 395.98 70.5147 395.761 77.721C395.553 84.9273 395.443 89.6732 395.443 91.947C395.443 94.0451 395.761 95.6931 396.386 96.9016C397.01 98.1097 397.975 99.0214 399.279 99.6258C400.068 99.9994 401.306 100.219 403.003 100.285C404.703 100.373 406.236 100.406 407.64 100.406Z" fill="#0A2540"/>
<path d="M455.218 102.966V108.063H411.387V102.966C412.603 102.878 413.778 102.757 414.926 102.614C416.065 102.471 417.088 102.241 417.974 101.911C419.463 101.351 420.482 100.549 421.019 99.5054C421.557 98.4618 421.83 97.0775 421.83 95.3527V18.0822C421.83 16.3136 421.468 14.6768 420.758 13.1608C420.032 11.6449 419.082 10.5022 417.862 9.7113C416.943 9.1071 415.531 8.52505 413.658 7.9648C411.78 7.40455 410.116 7.08584 408.679 6.98695V1.88989L443.737 0.0771484L444.776 1.19767V94.4414C444.776 96.1658 445.073 97.5501 445.687 98.6267C446.288 99.6924 447.275 100.538 448.635 101.142C449.566 101.56 450.553 101.933 451.572 102.263C452.603 102.603 453.818 102.834 455.218 102.966Z" fill="#0A2540"/>
<path d="M547.212 102.371C549.503 102.722 551.168 102.92 552.187 102.964V108.05H505.648V102.964C506.811 102.876 507.983 102.744 509.166 102.579C510.35 102.415 511.356 102.195 512.191 101.92C513.671 101.404 514.69 100.613 515.248 99.5475C515.805 98.4818 516.082 97.0867 516.082 95.3619V54.7711C516.082 53.1014 515.685 51.5965 514.899 50.2782C514.108 48.9491 513.154 47.8942 512.05 47.1036C511.216 46.5433 510.153 46.0817 508.881 45.7085C507.61 45.3349 506.21 45.0823 504.673 44.9395V39.8533L537.853 38.0405L538.896 39.0841V94.527C538.896 96.1529 539.149 97.5042 539.662 98.5699C540.18 99.6352 541.034 100.47 542.238 101.085C543.269 101.591 544.922 102.019 547.212 102.371Z" fill="#0A2540"/>
<path d="M571.575 56.7813C567.266 61.7029 559.793 62.1859 554.883 57.8687C554.786 57.7919 554.73 57.693 554.642 57.6162L554.634 57.6491C551.421 54.826 547.927 54.3205 544.878 54.7049L543.149 53.7824L543.181 46.488C552.813 38.194 560.166 37.3703 560.166 37.3703L560.154 37.4031C563.696 36.6341 567.539 37.4582 570.476 40.0397C575.386 44.3678 575.879 51.8601 571.575 56.7813Z" fill="#4CA9DF"/>
<path d="M650.547 90.4533C648.926 93.1007 646.965 95.6057 644.674 97.9564C642.371 100.307 639.764 102.317 636.851 103.988C633.738 105.756 630.605 107.096 627.428 107.997C624.247 108.909 620.6 109.359 616.468 109.359C609.609 109.359 603.679 108.382 598.693 106.426C593.707 104.471 589.587 101.845 586.345 98.5495C583.1 95.2542 580.681 91.3541 579.08 86.872C577.48 82.39 576.681 77.513 576.681 72.262C576.681 67.5161 577.544 62.979 579.289 58.6288C581.03 54.2786 583.497 50.4119 586.694 47.0173C589.851 43.7107 593.831 41.0416 598.629 38.9983C603.427 36.955 608.798 35.9333 614.735 35.9333C615.47 35.9333 616.172 35.9553 616.862 35.9773V37.0209C606.419 40.7118 603.667 50.2804 603.667 50.2804C602.464 53.7735 601.786 58.4313 601.654 64.2425V70.0976C601.654 79.6328 603.483 86.8833 607.153 91.8596C610.812 96.8359 616.645 99.3185 624.62 99.3185C628.981 99.3185 632.896 98.1212 636.378 95.7264C639.852 93.3315 642.821 90.2996 645.276 86.6303L650.547 90.4533Z" fill="#0A2540"/>
<path d="M619.141 43.5116L619.044 42.3144C622.514 39.0186 627.709 37.5024 627.962 37.4365C628.917 37.6892 629.86 37.9639 630.714 38.2934C634.886 39.8753 638.34 42.0614 641.08 44.8516C643.72 47.499 645.649 50.6298 646.853 54.2332C648.06 57.8361 648.662 61.6152 648.662 65.5701V70.1068H607.451V64.1971L623.963 63.9662C623.963 61.1761 623.822 58.3195 623.545 55.3866C623.273 52.4536 622.779 50.0696 622.089 48.202C621.367 46.1699 620.368 44.6208 619.141 43.5116Z" fill="#0A2540"/>
<path d="M696.276 80.4978L704.339 98.217L698.775 108.005H684.233C678.962 95.5917 674.457 85.2984 670.722 77.1145C666.987 68.9301 663.028 60.1421 658.864 50.7497C657.901 48.5636 656.401 47.3772 654.363 46.1249C652.325 44.8725 650.243 44.1032 648.137 43.8177V38.7317H690.491V43.8177C688.935 43.8615 687.105 44.213 684.991 44.8613C682.885 45.5096 681.834 46.3444 681.834 47.3772C681.834 47.6515 681.922 48.0802 682.107 48.6295C682.283 49.1897 682.524 49.2774 682.797 49.9808C684.265 53.5178 686.48 58.6039 689.448 65.25C691.618 70.1165 693.921 75.2468 696.276 80.4978Z" fill="#0A2540"/>
<path d="M728.721 55.3629L707.484 92.6254L706.312 92.5707L705.117 89.9337C705.117 89.9337 718.576 64.393 710.597 57.7356C710.597 57.7356 710.585 57.7356 710.585 57.7248C705.831 53.2427 705.602 45.7288 710.083 40.9612C714.552 36.1936 722.038 35.9629 726.792 40.4448C730.98 44.3888 731.658 50.6612 728.721 55.3629Z" fill="#0A2540"/>
<path d="M781.651 102.964V108.05H737.688V102.964C738.891 102.876 740.075 102.755 741.238 102.612C742.397 102.47 743.396 102.239 744.227 101.92C745.707 101.36 746.758 100.558 747.364 99.5142C747.966 98.4706 748.271 97.0867 748.271 95.3619V54.7711C748.271 53.1452 747.897 51.7175 747.155 50.4869C746.409 49.2567 745.49 48.2682 744.371 47.521C743.537 46.9608 742.265 46.4332 740.58 45.9168C738.891 45.4008 737.347 45.0823 735.955 44.9395V39.8533L770.046 38.0405L771.085 39.0841V94.4614C771.085 96.087 771.438 97.4712 772.128 98.6137C772.818 99.7563 773.816 100.602 775.12 101.162C776.051 101.58 777.07 101.953 778.177 102.272C779.284 102.601 780.444 102.832 781.651 102.964Z" fill="#0A2540"/>
<path d="M757.75 25.6928C764.802 25.6928 770.515 19.9631 770.515 12.895C770.515 5.82691 764.802 0.0969238 757.75 0.0969238C750.701 0.0969238 744.985 5.82691 744.985 12.895C744.985 19.9631 750.701 25.6928 757.75 25.6928Z" fill="#0A2540"/>
<path d="M829.549 80.4978L837.613 98.217L832.044 108.005H817.506C812.235 95.5917 807.73 85.2984 803.995 77.1145C800.256 68.9301 796.301 60.1421 792.137 50.7497C791.174 48.5636 789.67 47.3772 787.632 46.1249C785.594 44.8725 783.512 44.1032 781.41 43.8177V38.7317H823.76V43.8177C822.204 43.8615 820.375 44.213 818.261 44.8613C816.159 45.5096 815.103 46.3444 815.103 47.3772C815.103 47.6515 815.192 48.0802 815.38 48.6295C815.553 49.1897 815.793 49.2774 816.07 49.9808C817.538 53.5178 819.753 58.6039 822.722 65.25C824.88 70.1165 827.182 75.2468 829.549 80.4978Z" fill="#0A2540"/>
<path d="M861.995 55.3629L840.758 92.6254L839.586 92.5707L838.391 89.9337C838.391 89.9337 851.846 64.393 843.871 57.7356C843.871 57.7356 843.859 57.7356 843.859 57.7248C839.105 53.2427 838.872 45.7288 843.353 40.9612C847.826 36.1936 855.312 35.9629 860.065 40.4448C864.254 44.3888 864.932 50.6612 861.995 55.3629Z" fill="#4CA9DF"/>
<path d="M904.775 64.7808L906.243 65.5605V70.493C904.871 71.0311 903.516 71.5913 902.156 72.1958C899.592 73.3383 897.498 74.5355 895.877 75.7987C894.156 77.1061 892.809 78.7646 891.822 80.7972C890.847 82.8184 890.353 85.2133 890.353 87.9596C890.353 91.5955 891.176 94.2321 892.829 95.858C894.485 97.4948 896.511 98.308 898.946 98.308C901.466 98.308 903.548 97.7912 905.192 96.7697L906.231 97.3299V102.526C905.934 102.768 905.63 103.043 905.333 103.262C903.877 104.383 902.296 105.327 900.631 106.118C898.453 107.14 896.347 107.909 894.321 108.425C892.303 108.941 889.475 109.194 885.86 109.194C880.469 109.194 875.867 107.601 872.064 104.416C868.249 101.23 866.356 97.0006 866.356 91.7387C866.356 88.7177 866.773 86.1362 867.616 84.0269C868.446 81.9067 869.641 80.0391 871.166 78.4023C872.558 76.9083 874.167 75.6781 876.008 74.7004C877.837 73.7228 879.855 72.8111 882.037 71.9762C886.209 70.4379 891.228 68.845 897.081 67.1865C900.094 66.3295 902.625 65.5384 904.775 64.7808Z" fill="#0A2540"/>
<path d="M870.376 52.9253C870.376 49.0147 872.293 45.5653 875.21 43.4122L875.178 43.3901C875.178 43.3901 883.722 36.3484 904.338 36.0737L905.883 36.8976V39.2816C905.883 39.2816 894.036 41.9399 894.036 52.5846L894.004 52.5625C894.004 52.6836 894.036 52.7933 894.036 52.9144C894.036 59.4615 888.745 64.7676 882.21 64.7676C875.671 64.7785 870.376 59.4724 870.376 52.9253Z" fill="#0A2540"/>
<path d="M944.423 100.406V105.492C942.385 106.371 939.974 107.184 937.202 107.931C934.426 108.678 931.481 109.051 928.38 109.051C922.68 109.051 918.496 108.205 915.808 106.503C913.124 104.8 911.295 102.372 910.32 99.2192L909.947 60.5617V36.2185C911.074 36.3284 912.25 36.4053 913.313 36.5591C917.072 37.0974 920.457 38.1957 923.47 39.8654C926.342 41.4913 928.629 43.8532 930.318 46.9402C932.015 50.0271 932.861 54.0696 932.861 59.0351C932.861 64.2861 932.761 70.5147 932.544 77.721C932.336 84.9273 932.223 89.6732 932.223 91.947C932.223 94.0451 932.544 95.6931 933.166 96.9016C933.792 98.1097 934.755 99.0214 936.059 99.6258C936.849 99.9994 938.088 100.219 939.785 100.285C941.486 100.373 943.031 100.406 944.423 100.406Z" fill="#0A2540"/>
<path d="M992 102.966V108.063H948.169V102.966C949.384 102.878 950.556 102.757 951.707 102.614C952.846 102.471 953.865 102.241 954.756 101.911C956.244 101.351 957.263 100.549 957.801 99.5054C958.338 98.4618 958.611 97.0775 958.611 95.3527V18.0822C958.611 16.3136 958.25 14.6768 957.536 13.1608C956.814 11.6449 955.859 10.5022 954.644 9.7113C953.713 9.1071 952.309 8.52505 950.435 7.9648C948.562 7.40455 946.897 7.08584 945.461 6.98695V1.88989L980.514 0.0771484L981.557 1.19767V94.4414C981.557 96.1658 981.854 97.5501 982.468 98.6267C983.07 99.6924 984.057 100.538 985.417 101.142C986.347 101.56 987.334 101.933 988.353 102.263C989.392 102.603 990.6 102.834 992 102.966Z" fill="#0A2540"/>
</svg>