<svg width="470" height="118" viewBox="0 0 470 118" fill="none" xmlns="http://www.w3.org/2000/svg">
<path d="M13.4721 73.4054V41.2954H0V27.0299H13.4721V10.5451L30.7226 6.69653V27.0299H49.3542V41.2825H30.7226V69.9289C30.7226 72.9821 31.3871 75.1373 32.7421 76.3817C34.0841 77.6261 36.4293 78.2418 39.7908 78.2418C41.3804 78.2418 42.8917 78.1392 44.3249 77.934C45.7451 77.7287 47.3086 77.331 48.9893 76.7537V90.6343C47.1392 91.2116 44.9112 91.6863 42.3184 92.0583C39.7126 92.4303 37.4847 92.6227 35.6476 92.6227C28.3382 92.6227 22.827 90.9935 19.0876 87.7222C15.3352 84.4637 13.4721 79.6915 13.4721 73.4054Z" fill="white"/>
<path d="M57.9147 91.6347V27.0296H75.1653V34.0982C77.2629 31.2887 79.8036 29.1592 82.7873 27.7095C85.7709 26.2599 89.0673 25.5415 92.6763 25.5415C94.3571 25.6185 95.7642 25.7724 96.8978 25.9777C98.0313 26.1829 99.0215 26.5421 99.8554 27.0296V41.9108C98.5915 41.3336 97.2105 40.8974 95.6991 40.6023C94.1877 40.3073 92.6373 40.1662 91.0347 40.1662C87.6732 40.1662 84.5853 41 81.784 42.6421C78.9697 44.297 76.7678 46.6959 75.1783 49.8389V91.6218H57.9147V91.6347Z" fill="white"/>
<path d="M117.731 19.3456C115.047 19.3456 112.741 18.3963 110.799 16.4976C108.871 14.599 107.907 12.3283 107.907 9.67279C107.907 7.03009 108.871 4.75942 110.799 2.84796C112.728 0.949319 115.034 0 117.731 0C120.415 0 122.721 0.949319 124.662 2.84796C126.591 4.7466 127.555 7.01727 127.555 9.67279C127.555 12.3155 126.591 14.5862 124.662 16.4976C122.721 18.3963 120.415 19.3456 117.731 19.3456ZM126.421 27.0299V91.6221H109.171V27.0299H126.421Z" fill="white"/>
<path d="M156.649 27.03V64.6051C156.649 68.7359 157.886 72.0457 160.362 74.5216C162.837 76.9976 166.134 78.2419 170.251 78.2419C173.183 78.2419 175.814 77.6903 178.121 76.5742C180.427 75.4581 182.342 73.8674 183.853 71.802V27.03H201.104V91.6222H183.853V86.4138C181.339 88.4792 178.524 90.07 175.424 91.1861C172.323 92.3021 168.961 92.8538 165.352 92.8538C157.795 92.8538 151.58 90.442 146.72 85.6056C141.848 80.7692 139.411 74.5986 139.411 67.0682V27.03H156.649Z" fill="white"/>
<path d="M214.563 91.6348V27.0298H231.813V31.8662C234.158 29.8777 236.764 28.3768 239.617 27.3377C242.471 26.2985 245.572 25.7854 248.933 25.7854C253.129 25.7854 256.933 26.6321 260.334 28.3255C263.734 30.0189 266.523 32.3921 268.711 35.4582C271.317 32.3152 274.457 29.9162 278.158 28.2613C281.845 26.6064 285.923 25.7854 290.379 25.7854C297.688 25.7854 303.682 28.1844 308.385 32.9823C313.089 37.7802 315.434 43.9379 315.434 51.4555V91.622H298.183V53.9443C298.183 49.8904 297.076 46.6319 294.848 44.1432C292.62 41.6673 289.623 40.4229 285.845 40.4229C283.239 40.4229 280.868 40.9873 278.731 42.1034C276.594 43.2195 274.77 44.8103 273.259 46.8757C273.337 47.6197 273.428 48.3638 273.506 49.1079C273.584 49.8519 273.636 50.6345 273.636 51.4683V91.6348H256.386V53.9443C256.386 49.8904 255.265 46.6319 253.05 44.1432C250.823 41.6673 247.826 40.4229 244.047 40.4229C241.442 40.4229 239.135 40.9232 237.116 41.911C235.096 42.8988 233.337 44.3484 231.826 46.2471V91.622H214.563V91.6348Z" fill="white"/>
<path d="M328.659 117.549V27.0302H345.662V32.3669C348.267 30.3015 351.16 28.7492 354.352 27.7229C357.544 26.6966 360.853 26.1707 364.306 26.1707C368.918 26.1707 373.27 27.043 377.335 28.7749C381.4 30.5067 384.957 32.8672 387.98 35.8434C391.003 38.8197 393.374 42.3347 395.094 46.3886C396.814 50.4424 397.674 54.7785 397.674 59.4097C397.674 64.0408 396.788 68.3769 395.029 72.4307C393.27 76.4846 390.872 79.9996 387.85 82.963C384.827 85.9393 381.244 88.2741 377.088 89.9675C372.931 91.6609 368.502 92.5075 363.798 92.5075C360.606 92.5075 357.479 92.0714 354.417 91.2118C351.355 90.3395 348.515 89.0823 345.922 87.4274V117.562H328.659V117.549ZM361.518 40.6798C358.417 40.6798 355.512 41.193 352.828 42.2321C350.144 43.2712 347.837 44.7722 345.896 46.7606V72.1742C347.746 73.9958 350.026 75.4455 352.762 76.5102C355.485 77.5878 358.404 78.1266 361.518 78.1266C366.886 78.1266 371.42 76.3306 375.12 72.7386C378.808 69.1466 380.658 64.6951 380.658 59.4097C380.658 54.1243 378.795 49.6727 375.055 46.0807C371.329 42.4759 366.808 40.6798 361.518 40.6798Z" fill="white"/>
<path d="M408.24 91.6346V4.83603L425.491 1.11572V32.1097C428.006 30.0443 430.807 28.4792 433.869 27.4016C436.93 26.324 440.266 25.7852 443.875 25.7852C451.432 25.7852 457.647 28.1841 462.507 32.9821C467.379 37.78 469.816 43.9377 469.816 51.4553V91.6217H452.565V53.944C452.565 49.8902 451.328 46.6317 448.852 44.143C446.377 41.667 443.08 40.4227 438.963 40.4227C436.11 40.4227 433.53 40.9871 431.224 42.1032C428.918 43.2193 427.002 44.8101 425.491 46.8755V91.6346H408.24Z" fill="white"/>
</svg>
