<svg width="470" height="118" viewBox="0 0 470 118" fill="none" xmlns="http://www.w3.org/2000/svg">
<path d="M13.4721 73.4072V41.2965H0V27.0308H13.4721V10.5457L30.7226 6.69702V27.0308H49.3541V41.2837H30.7226V69.9306C30.7226 72.9839 31.387 75.1391 32.7421 76.3835C34.0841 77.6279 36.4293 78.2437 39.7908 78.2437C41.3804 78.2437 42.8917 78.1411 44.3249 77.9358C45.7451 77.7306 47.3086 77.3329 48.9893 76.7556V90.6364C47.1392 91.2137 44.9112 91.6884 42.3184 92.0604C39.7126 92.4325 37.4846 92.6249 35.6475 92.6249C28.3382 92.6249 22.827 90.9956 19.0876 87.7243C15.3352 84.4657 13.4721 79.6934 13.4721 73.4072Z" fill="#0A2540"/>
<path d="M57.9147 91.6369V27.0306H75.1652V34.0993C77.2629 31.2898 79.8036 29.1602 82.7872 27.7106C85.7709 26.2609 89.0672 25.5425 92.6763 25.5425C94.3571 25.6195 95.7642 25.7734 96.8977 25.9787C98.0313 26.1839 99.0215 26.5431 99.8553 27.0306V41.9121C98.5915 41.3348 97.2104 40.8987 95.699 40.6036C94.1877 40.3085 92.6372 40.1674 91.0346 40.1674C87.6731 40.1674 84.5852 41.0013 81.784 42.6434C78.9697 44.2983 76.7678 46.6973 75.1782 49.8404V91.6241H57.9147V91.6369Z" fill="#0A2540"/>
<path d="M117.731 19.346C115.047 19.346 112.741 18.3966 110.8 16.4979C108.871 14.5993 107.907 12.3286 107.907 9.67298C107.907 7.03023 108.871 4.75952 110.8 2.84801C112.728 0.949337 115.034 0 117.731 0C120.415 0 122.721 0.949337 124.663 2.84801C126.591 4.74669 127.555 7.0174 127.555 9.67298C127.555 12.3157 126.591 14.5864 124.663 16.4979C122.721 18.3966 120.415 19.346 117.731 19.346ZM126.421 27.0305V91.6239H109.171V27.0305H126.421Z" fill="#0A2540"/>
<path d="M156.649 27.03V64.6058C156.649 68.7367 157.886 72.0466 160.362 74.5226C162.838 76.9985 166.134 78.2429 170.251 78.2429C173.183 78.2429 175.814 77.6913 178.121 76.5752C180.427 75.4591 182.342 73.8683 183.853 71.8028V27.03H201.104V91.6235H183.853V86.4149C181.339 88.4804 178.525 90.0712 175.424 91.1873C172.323 92.3034 168.961 92.855 165.352 92.855C157.795 92.855 151.58 90.4432 146.721 85.6067C141.848 80.7702 139.411 74.5995 139.411 67.069V27.03H156.649Z" fill="#0A2540"/>
<path d="M214.563 91.6373V27.031H231.813V31.8675C234.158 29.879 236.764 28.3781 239.618 27.3389C242.471 26.2998 245.572 25.7866 248.933 25.7866C253.129 25.7866 256.933 26.6333 260.334 28.3267C263.735 30.0202 266.523 32.3935 268.712 35.4596C271.317 32.3165 274.457 29.9175 278.158 28.2626C281.845 26.6077 285.923 25.7866 290.379 25.7866C297.688 25.7866 303.682 28.1856 308.385 32.9836C313.089 37.7816 315.434 43.9395 315.434 51.4572V91.6245H298.183V53.946C298.183 49.8921 297.076 46.6336 294.848 44.1448C292.62 41.6688 289.623 40.4244 285.845 40.4244C283.239 40.4244 280.868 40.9889 278.731 42.105C276.594 43.2211 274.77 44.8119 273.259 46.8773C273.337 47.6214 273.428 48.3655 273.506 49.1095C273.584 49.8536 273.637 50.6362 273.637 51.4701V91.6373H256.386V53.946C256.386 49.8921 255.266 46.6336 253.051 44.1448C250.823 41.6688 247.826 40.4244 244.048 40.4244C241.442 40.4244 239.136 40.9247 237.116 41.9125C235.097 42.9004 233.338 44.35 231.826 46.2487V91.6245H214.563V91.6373Z" fill="#0A2540"/>
<path d="M328.658 117.552V27.0309H345.661V32.3677C348.267 30.3023 351.16 28.75 354.352 27.7237C357.544 26.6974 360.853 26.1714 364.306 26.1714C368.918 26.1714 373.27 27.0438 377.335 28.7757C381.4 30.5076 384.957 32.8681 387.98 35.8444C391.003 38.8207 393.374 42.3358 395.094 46.3897C396.814 50.4436 397.673 54.7798 397.673 59.411C397.673 64.0423 396.787 68.3784 395.029 72.4323C393.27 76.4863 390.872 80.0014 387.85 82.9649C384.827 85.9412 381.244 88.276 377.087 89.9694C372.931 91.6628 368.501 92.5096 363.798 92.5096C360.606 92.5096 357.479 92.0734 354.417 91.2138C351.355 90.3415 348.515 89.0842 345.922 87.4293V117.564H328.658V117.552ZM361.518 40.6809C358.417 40.6809 355.511 41.194 352.827 42.2331C350.143 43.2723 347.837 44.7733 345.896 46.7617V72.1758C347.746 73.9975 350.026 75.4471 352.762 76.5119C355.485 77.5896 358.404 78.1284 361.518 78.1284C366.886 78.1284 371.42 76.3323 375.12 72.7402C378.807 69.1482 380.657 64.6965 380.657 59.411C380.657 54.1255 378.794 49.6739 375.055 46.0818C371.329 42.4769 366.808 40.6809 361.518 40.6809Z" fill="#0A2540"/>
<path d="M408.24 91.6363V4.8361L425.491 1.11572V32.1103C428.006 30.0449 430.807 28.4797 433.869 27.4021C436.931 26.3245 440.266 25.7857 443.875 25.7857C451.432 25.7857 457.647 28.1847 462.507 32.9827C467.379 37.7807 469.816 43.9385 469.816 51.4563V91.6235H452.565V53.9451C452.565 49.8911 451.328 46.6326 448.852 44.1438C446.377 41.6678 443.08 40.4234 438.963 40.4234C436.11 40.4234 433.53 40.9879 431.224 42.104C428.918 43.2201 427.002 44.8109 425.491 46.8764V91.6363H408.24Z" fill="#0A2540"/>
</svg>
