<svg width="1092" height="220" viewBox="0 0 1092 220" fill="none" xmlns="http://www.w3.org/2000/svg">
<path d="M294.821 142.046V85.9653H271.292V61.0504H294.821V32.2593L324.95 25.5376V61.0504H357.49V85.9429H324.95V135.974C324.95 141.307 326.11 145.071 328.477 147.244C330.821 149.418 334.917 150.493 340.788 150.493C343.564 150.493 346.203 150.314 348.707 149.956C351.187 149.597 353.918 148.902 356.853 147.894V172.137C353.622 173.145 349.731 173.974 345.202 174.624C340.651 175.274 336.76 175.61 333.551 175.61C320.785 175.61 311.16 172.764 304.629 167.051C298.075 161.36 294.821 153.025 294.821 142.046Z" fill="#0A2540"/>
<path d="M372.441 173.885V61.0505H402.569V73.3959C406.233 68.4891 410.67 64.7698 415.881 62.238C421.092 59.7061 426.85 58.4514 433.153 58.4514C436.088 58.5858 438.546 58.8547 440.526 59.2132C442.505 59.5717 444.235 60.199 445.691 61.0505V87.0409C443.484 86.0326 441.072 85.2708 438.432 84.7555C435.793 84.2402 433.085 83.9937 430.286 83.9937C424.415 83.9937 419.022 85.4501 414.129 88.318C409.214 91.2083 405.368 95.3981 402.592 100.887V173.862H372.441V173.885Z" fill="#0A2540"/>
<path d="M476.912 47.6293C472.224 47.6293 468.196 45.9713 464.806 42.6553C461.438 39.3393 459.754 35.3735 459.754 30.7356C459.754 26.12 461.438 22.1542 464.806 18.8158C468.173 15.4998 472.201 13.8418 476.912 13.8418C481.599 13.8418 485.627 15.4998 489.018 18.8158C492.385 22.1318 494.069 26.0976 494.069 30.7356C494.069 35.3511 492.385 39.3169 489.018 42.6553C485.627 45.9713 481.599 47.6293 476.912 47.6293ZM492.09 61.0503V173.862H461.961V61.0503H492.09Z" fill="#0A2540"/>
<path d="M544.883 61.05V126.676C544.883 133.89 547.044 139.671 551.368 143.995C555.691 148.32 561.449 150.493 568.639 150.493C573.759 150.493 578.356 149.529 582.384 147.58C586.412 145.631 589.757 142.853 592.396 139.245V61.05H622.525V173.862H592.396V164.765C588.004 168.373 583.089 171.151 577.673 173.1C572.258 175.049 566.387 176.013 560.083 176.013C546.885 176.013 536.031 171.801 527.543 163.354C519.032 154.907 514.777 144.13 514.777 130.978V61.05H544.883Z" fill="#0A2540"/>
<path d="M646.031 173.884V61.05H676.16V69.4969C680.256 66.0241 684.807 63.4026 689.79 61.5878C694.774 59.7729 700.19 58.8767 706.061 58.8767C713.388 58.8767 720.033 60.3555 725.972 63.313C731.911 66.2705 736.781 70.4156 740.604 75.7705C745.155 70.2811 750.639 66.0913 757.101 63.201C763.541 60.3107 770.664 58.8767 778.446 58.8767C791.212 58.8767 801.68 63.0665 809.894 71.4462C818.109 79.8259 822.205 90.5805 822.205 103.71V173.862H792.077V108.057C792.077 100.977 790.143 95.2857 786.251 90.939C782.36 86.6148 777.126 84.4414 770.527 84.4414C765.976 84.4414 761.835 85.4273 758.103 87.3765C754.371 89.3258 751.185 92.1041 748.545 95.7114C748.682 97.0109 748.841 98.3104 748.978 99.61C749.114 100.909 749.205 102.276 749.205 103.733V173.884H719.077V108.057C719.077 100.977 717.12 95.2857 713.251 90.939C709.36 86.6148 704.126 84.4414 697.527 84.4414C692.976 84.4414 688.948 85.3152 685.421 87.0405C681.894 88.7657 678.822 91.2975 676.182 94.6135V173.862H646.031V173.884Z" fill="#0A2540"/>
<path d="M845.302 219.144V61.0502H874.998V70.3709C879.549 66.7637 884.601 64.0526 890.176 62.2601C895.751 60.4677 901.531 59.5491 907.562 59.5491C915.617 59.5491 923.217 61.0726 930.317 64.0974C937.417 67.1221 943.629 71.2448 948.909 76.4428C954.188 81.6409 958.329 87.78 961.333 94.8602C964.337 101.94 965.839 109.513 965.839 117.602C965.839 125.69 964.291 133.263 961.219 140.343C958.147 147.424 953.96 153.563 948.681 158.738C943.402 163.936 937.144 168.014 929.885 170.972C922.626 173.929 914.889 175.408 906.674 175.408C901.099 175.408 895.638 174.646 890.29 173.145C884.943 171.622 879.982 169.426 875.453 166.535V219.166H845.302V219.144ZM902.692 84.8897C897.276 84.8897 892.202 85.7859 887.514 87.6008C882.826 89.4156 878.798 92.0371 875.408 95.5099V139.895C878.639 143.077 882.621 145.609 887.4 147.468C892.156 149.35 897.253 150.291 902.692 150.291C912.067 150.291 919.986 147.155 926.449 140.881C932.889 134.608 936.12 126.833 936.12 117.602C936.12 108.371 932.866 100.596 926.335 94.3224C919.827 88.0265 911.931 84.8897 902.692 84.8897Z" fill="#0A2540"/>
<path d="M984.294 173.884V22.2884L1014.42 15.7908V69.9225C1018.81 66.3152 1023.71 63.5818 1029.05 61.6997C1034.4 59.8176 1040.23 58.8766 1046.53 58.8766C1059.73 58.8766 1070.58 63.0664 1079.07 71.4461C1087.58 79.8258 1091.84 90.5804 1091.84 103.71V173.862H1061.71V108.057C1061.71 100.977 1059.55 95.2856 1055.22 90.9389C1050.9 86.6147 1045.14 84.4413 1037.95 84.4413C1032.97 84.4413 1028.46 85.4272 1024.43 87.3764C1020.41 89.3257 1017.06 92.104 1014.42 95.7113V173.884H984.294Z" fill="#0A2540"/>
<rect x="0.258301" y="0.95874" width="209.793" height="209.793" fill="white"/>
<path d="M210.052 210.752V91.4446L108.171 210.752H210.052Z" fill="#4BA9DF"/>
<path d="M170.729 0.95874H0.258301V200.698L170.729 0.95874Z" fill="#4BA9DF"/>
</svg>
