<svg width="1092" height="219" viewBox="0 0 1092 219" fill="none" xmlns="http://www.w3.org/2000/svg">
<path d="M294.821 141.246V85.1649H271.292V60.25H294.821V31.4588L324.949 24.7372V60.25H357.49V85.1425H324.949V135.174C324.949 140.507 326.11 144.271 328.476 146.444C330.82 148.617 334.916 149.693 340.787 149.693C343.563 149.693 346.203 149.514 348.706 149.155C351.186 148.797 353.917 148.102 356.853 147.094V171.337C353.621 172.345 349.73 173.174 345.202 173.824C340.651 174.473 336.759 174.809 333.551 174.809C320.785 174.809 311.159 171.964 304.628 166.251C298.075 160.56 294.821 152.225 294.821 141.246Z" fill="white"/>
<path d="M372.44 173.084V60.2498H402.569V72.5953C406.233 67.6884 410.67 63.9691 415.881 61.4373C421.092 58.9055 426.849 57.6508 433.152 57.6508C436.088 57.7852 438.546 58.0541 440.525 58.4125C442.505 58.771 444.234 59.3984 445.691 60.2498V86.2402C443.483 85.232 441.071 84.4702 438.432 83.9549C435.792 83.4395 433.084 83.1931 430.285 83.1931C424.414 83.1931 419.021 84.6494 414.129 87.5173C409.214 90.4076 405.368 94.5975 402.592 100.087V173.062H372.44V173.084Z" fill="white"/>
<path d="M476.911 46.8288C472.223 46.8288 468.196 45.1708 464.805 41.8548C461.437 38.5388 459.753 34.573 459.753 29.935C459.753 25.3195 461.437 21.3537 464.805 18.0153C468.173 14.6993 472.201 13.0413 476.911 13.0413C481.599 13.0413 485.627 14.6993 489.017 18.0153C492.385 21.3313 494.069 25.2971 494.069 29.935C494.069 34.5506 492.385 38.5163 489.017 41.8548C485.627 45.1708 481.599 46.8288 476.911 46.8288ZM492.089 60.2497V173.062H461.961V60.2497H492.089Z" fill="white"/>
<path d="M544.882 60.2495V125.875C544.882 133.09 547.044 138.871 551.367 143.195C555.691 147.519 561.448 149.692 568.639 149.692C573.759 149.692 578.356 148.729 582.383 146.78C586.411 144.83 589.756 142.052 592.396 138.445V60.2495H622.524V173.061H592.396V163.965C588.004 167.572 583.089 170.35 577.673 172.3C572.257 174.249 566.386 175.212 560.083 175.212C546.885 175.212 536.03 171 527.542 162.553C519.032 154.106 514.776 143.329 514.776 130.177V60.2495H544.882Z" fill="white"/>
<path d="M646.031 173.084V60.2496H676.159V68.6965C680.255 65.2237 684.806 62.6022 689.79 60.7874C694.773 58.9725 700.189 58.0763 706.06 58.0763C713.387 58.0763 720.032 59.5551 725.971 62.5126C731.91 65.4701 736.78 69.6151 740.603 74.9701C745.154 69.4807 750.638 65.2909 757.101 62.4006C763.541 59.5102 770.663 58.0763 778.446 58.0763C791.212 58.0763 801.679 62.2661 809.894 70.6458C818.109 79.0255 822.205 89.7801 822.205 102.91V173.061H792.076V107.256C792.076 100.176 790.142 94.4853 786.251 90.1386C782.36 85.8143 777.126 83.641 770.527 83.641C765.976 83.641 761.834 84.6269 758.102 86.5761C754.37 88.5254 751.184 91.3037 748.545 94.911C748.681 96.2105 748.841 97.51 748.977 98.8096C749.114 100.109 749.205 101.476 749.205 102.932V173.084H719.076V107.256C719.076 100.176 717.119 94.4853 713.251 90.1386C709.36 85.8143 704.126 83.641 697.527 83.641C692.976 83.641 688.948 84.5148 685.421 86.24C681.894 87.9653 678.822 90.4971 676.182 93.8131V173.061H646.031V173.084Z" fill="white"/>
<path d="M845.302 218.343V60.2497H874.998V69.5704C879.549 65.9631 884.601 63.252 890.176 61.4596C895.751 59.6672 901.531 58.7485 907.561 58.7485C915.617 58.7485 923.217 60.2721 930.317 63.2969C937.416 66.3216 943.629 70.4442 948.908 75.6423C954.187 80.8404 958.329 86.9795 961.333 94.0597C964.336 101.14 965.838 108.713 965.838 116.801C965.838 124.89 964.291 132.463 961.219 139.543C958.147 146.623 953.96 152.762 948.681 157.938C943.401 163.136 937.143 167.214 929.884 170.171C922.625 173.129 914.888 174.608 906.674 174.608C901.099 174.608 895.637 173.846 890.29 172.345C884.942 170.821 879.981 168.625 875.453 165.735V218.366H845.302V218.343ZM902.691 84.0892C897.276 84.0892 892.201 84.9854 887.513 86.8003C882.826 88.6151 878.798 91.2366 875.407 94.7094V139.095C878.639 142.276 882.621 144.808 887.4 146.668C892.156 148.55 897.253 149.491 902.691 149.491C912.067 149.491 919.986 146.354 926.448 140.081C932.888 133.807 936.119 126.032 936.119 116.801C936.119 107.57 932.865 99.7955 926.334 93.5219C919.826 87.226 911.93 84.0892 902.691 84.0892Z" fill="white"/>
<path d="M984.293 173.084V21.4878L1014.42 14.9902V69.122C1018.81 65.5147 1023.71 62.7812 1029.05 60.8992C1034.4 59.0171 1040.23 58.0761 1046.53 58.0761C1059.73 58.0761 1070.58 62.2659 1079.07 70.6456C1087.58 79.0252 1091.84 89.7799 1091.84 102.91V173.061H1061.71V107.256C1061.71 100.176 1059.55 94.4851 1055.22 90.1384C1050.9 85.8141 1045.14 83.6408 1037.95 83.6408C1032.97 83.6408 1028.46 84.6266 1024.43 86.5759C1020.41 88.5252 1017.06 91.3035 1014.42 94.9108V173.084H984.293Z" fill="white"/>
<rect x="0.258301" y="0.158203" width="209.793" height="209.793" fill="white"/>
<path d="M210.052 209.951V90.644L108.171 209.951H210.052Z" fill="#4BA9DF"/>
<path d="M170.729 0.158203H0.258301V199.898L170.729 0.158203Z" fill="#4BA9DF"/>
</svg>
