<svg width="625" height="125" viewBox="0 0 625 125" fill="none" xmlns="http://www.w3.org/2000/svg">
<path d="M168.656 80.783V48.6723H155.184V34.4065H168.656V17.9214L185.907 14.0728V34.4065H204.538V48.6594H185.907V77.3063C185.907 80.3596 186.571 82.5149 187.926 83.7593C189.268 85.0037 191.613 85.6194 194.975 85.6194C196.564 85.6194 198.076 85.5168 199.509 85.3116C200.929 85.1063 202.493 84.7086 204.173 84.1313V98.0122C202.323 98.5894 200.095 99.0641 197.503 99.4362C194.897 99.8082 192.669 100.001 190.832 100.001C183.522 100.001 178.011 98.3714 174.272 95.1C170.519 91.8415 168.656 87.0691 168.656 80.783Z" fill="#0A2540"/>
<path d="M213.099 99.0126V34.4064H230.349V41.4751C232.447 38.6656 234.988 36.536 237.971 35.0863C240.955 33.6366 244.251 32.9182 247.86 32.9182C249.541 32.9952 250.948 33.1491 252.082 33.3544C253.215 33.5597 254.206 33.9189 255.039 34.4064V49.2879C253.776 48.7106 252.394 48.2744 250.883 47.9793C249.372 47.6843 247.821 47.5431 246.219 47.5431C242.857 47.5431 239.769 48.377 236.968 50.0191C234.154 51.674 231.952 54.073 230.362 57.2161V98.9998H213.099V99.0126Z" fill="#0A2540"/>
<path d="M272.915 26.7217C270.231 26.7217 267.925 25.7724 265.984 23.8737C264.055 21.975 263.091 19.7043 263.091 17.0487C263.091 14.406 264.055 12.1352 265.984 10.2237C267.912 8.32507 270.218 7.37573 272.915 7.37573C275.599 7.37573 277.905 8.32507 279.847 10.2237C281.775 12.1224 282.739 14.3931 282.739 17.0487C282.739 19.6915 281.775 21.9622 279.847 23.8737C277.905 25.7724 275.599 26.7217 272.915 26.7217ZM281.606 34.4062V98.9996H264.355V34.4062H281.606Z" fill="#0A2540"/>
<path d="M311.833 34.4058V71.9816C311.833 76.1125 313.071 79.4223 315.546 81.8983C318.022 84.3743 321.318 85.6187 325.435 85.6187C328.367 85.6187 330.999 85.067 333.305 83.9509C335.611 82.8348 337.526 81.244 339.038 79.1786V34.4058H356.288V98.9992H339.038V93.7907C336.523 95.8561 333.709 97.4469 330.608 98.563C327.507 99.6791 324.145 100.231 320.536 100.231C312.979 100.231 306.764 97.8189 301.905 92.9825C297.032 88.146 294.595 81.9753 294.595 74.4447V34.4058H311.833Z" fill="#0A2540"/>
<path d="M369.747 99.013V34.4068H386.997V39.2432C389.343 37.2548 391.948 35.7538 394.802 34.7146C397.655 33.6755 400.756 33.1624 404.118 33.1624C408.313 33.1624 412.117 34.0091 415.518 35.7025C418.919 37.3959 421.707 39.7692 423.896 42.8353C426.502 39.6923 429.642 37.2933 433.342 35.6383C437.029 33.9834 441.107 33.1624 445.563 33.1624C452.872 33.1624 458.866 35.5614 463.569 40.3594C468.273 45.1574 470.618 51.3152 470.618 58.833V99.0002H453.367V61.3218C453.367 57.2678 452.26 54.0093 450.032 51.5205C447.804 49.0445 444.807 47.8001 441.029 47.8001C438.423 47.8001 436.052 48.3646 433.915 49.4807C431.778 50.5968 429.954 52.1876 428.443 54.253C428.521 54.9971 428.612 55.7412 428.69 56.4853C428.769 57.2293 428.821 58.0119 428.821 58.8458V99.013H411.57V61.3218C411.57 57.2678 410.45 54.0093 408.235 51.5205C406.007 49.0445 403.01 47.8001 399.232 47.8001C396.626 47.8001 394.32 48.3004 392.3 49.2883C390.281 50.2761 388.522 51.7258 387.01 53.6244V99.0002H369.747V99.013Z" fill="#0A2540"/>
<path d="M483.842 124.927V34.4067H500.845V39.7435C503.451 37.678 506.344 36.1257 509.536 35.0994C512.728 34.0731 516.037 33.5471 519.49 33.5471C524.102 33.5471 528.454 34.4195 532.519 36.1514C536.584 37.8833 540.141 40.2438 543.164 43.2201C546.187 46.1964 548.558 49.7115 550.278 53.7654C551.998 57.8194 552.858 62.1555 552.858 66.7868C552.858 71.418 551.972 75.7542 550.213 79.8081C548.454 83.862 546.056 87.3771 543.034 90.3406C540.011 93.3169 536.428 95.6517 532.272 97.3452C528.115 99.0386 523.685 99.8853 518.982 99.8853C515.79 99.8853 512.663 99.4491 509.601 98.5896C506.539 97.7172 503.699 96.46 501.106 94.805V124.94H483.842V124.927ZM516.702 48.0566C513.601 48.0566 510.695 48.5697 508.011 49.6089C505.327 50.648 503.021 52.149 501.08 54.1375V79.5515C502.93 81.3732 505.21 82.8229 507.946 83.8877C510.669 84.9653 513.588 85.5041 516.702 85.5041C522.07 85.5041 526.604 83.7081 530.304 80.116C533.991 76.5239 535.842 72.0723 535.842 66.7868C535.842 61.5013 533.978 57.0496 530.239 53.4575C526.513 49.8526 521.992 48.0566 516.702 48.0566Z" fill="#0A2540"/>
<path d="M563.425 99.0121V12.2118L580.675 8.49146V39.486C583.19 37.4206 585.991 35.8555 589.053 34.7778C592.115 33.7002 595.45 33.1614 599.059 33.1614C606.616 33.1614 612.831 35.5604 617.691 40.3584C622.564 45.1564 625 51.3143 625 58.832V98.9992H607.749V61.3208C607.749 57.2669 606.512 54.0083 604.036 51.5195C601.561 49.0436 598.264 47.7992 594.147 47.7992C591.294 47.7992 588.714 48.3636 586.408 49.4797C584.102 50.5959 582.186 52.1866 580.675 54.2521V99.0121H563.425Z" fill="#0A2540"/>
<rect width="120.12" height="120.123" fill="white"/>
<path d="M120.121 120.123V51.8101L61.7875 120.123H120.121Z" fill="#4BA9DF"/>
<path d="M97.6058 0.000244141H0V114.366L97.6058 0.000244141Z" fill="#4BA9DF"/>
</svg>
